G04*
G04 #@! TF.GenerationSoftware,Altium Limited,Altium Designer,21.2.0 (30)*
G04*
G04 Layer_Color=65535*
%FSLAX25Y25*%
%MOIN*%
G70*
G04*
G04 #@! TF.SameCoordinates,915FADF9-C2CC-4250-813C-173C15824247*
G04*
G04*
G04 #@! TF.FilePolarity,Positive*
G04*
G01*
G75*
%ADD10C,0.03937*%
%ADD11C,0.00700*%
%ADD12C,0.05000*%
%ADD13C,0.06500*%
%ADD14C,0.01000*%
%ADD15C,0.01102*%
G36*
X21549Y-210666D02*
X21625D01*
X21707Y-210677D01*
X21800Y-210683D01*
X21904Y-210694D01*
X22019Y-210710D01*
X22133Y-210726D01*
X22385Y-210776D01*
X22510Y-210803D01*
X22641Y-210841D01*
X22767Y-210879D01*
X22892Y-210929D01*
X22898Y-210934D01*
X22919Y-210939D01*
X22958Y-210956D01*
X23001Y-210978D01*
X23056Y-211005D01*
X23122Y-211038D01*
X23192Y-211076D01*
X23274Y-211120D01*
X23356Y-211174D01*
X23438Y-211229D01*
X23613Y-211354D01*
X23782Y-211502D01*
X23864Y-211584D01*
X23935Y-211671D01*
X23941Y-211677D01*
X23952Y-211693D01*
X23973Y-211720D01*
X23995Y-211758D01*
X24028Y-211802D01*
X24066Y-211862D01*
X24104Y-211928D01*
X24148Y-212004D01*
X24192Y-212086D01*
X24241Y-212184D01*
X24290Y-212283D01*
X24334Y-212392D01*
X24383Y-212512D01*
X24427Y-212637D01*
X24470Y-212769D01*
X24508Y-212911D01*
X23607Y-213156D01*
Y-213151D01*
X23602Y-213129D01*
X23591Y-213102D01*
X23575Y-213058D01*
X23558Y-213014D01*
X23542Y-212954D01*
X23515Y-212894D01*
X23493Y-212823D01*
X23427Y-212681D01*
X23356Y-212528D01*
X23274Y-212381D01*
X23231Y-212315D01*
X23182Y-212250D01*
X23176Y-212244D01*
X23171Y-212233D01*
X23154Y-212217D01*
X23138Y-212195D01*
X23111Y-212168D01*
X23078Y-212135D01*
X23040Y-212097D01*
X22996Y-212059D01*
X22947Y-212015D01*
X22898Y-211971D01*
X22772Y-211884D01*
X22625Y-211797D01*
X22461Y-211720D01*
X22455D01*
X22439Y-211709D01*
X22412Y-211704D01*
X22379Y-211687D01*
X22335Y-211671D01*
X22281Y-211655D01*
X22221Y-211638D01*
X22155Y-211616D01*
X22084Y-211600D01*
X22002Y-211584D01*
X21915Y-211567D01*
X21827Y-211551D01*
X21631Y-211529D01*
X21423Y-211518D01*
X21358D01*
X21309Y-211524D01*
X21249D01*
X21178Y-211529D01*
X21101Y-211535D01*
X21020Y-211545D01*
X20927Y-211556D01*
X20828Y-211567D01*
X20632Y-211606D01*
X20430Y-211660D01*
X20233Y-211731D01*
X20228D01*
X20211Y-211742D01*
X20184Y-211753D01*
X20151Y-211769D01*
X20108Y-211791D01*
X20058Y-211813D01*
X20004Y-211846D01*
X19949Y-211878D01*
X19818Y-211955D01*
X19687Y-212053D01*
X19551Y-212162D01*
X19431Y-212283D01*
X19425Y-212288D01*
X19420Y-212299D01*
X19403Y-212315D01*
X19381Y-212343D01*
X19354Y-212375D01*
X19327Y-212408D01*
X19294Y-212452D01*
X19256Y-212501D01*
X19179Y-212610D01*
X19097Y-212736D01*
X19021Y-212878D01*
X18950Y-213025D01*
X18945Y-213031D01*
X18939Y-213058D01*
X18923Y-213096D01*
X18906Y-213145D01*
X18885Y-213211D01*
X18863Y-213287D01*
X18835Y-213380D01*
X18808Y-213478D01*
X18781Y-213587D01*
X18754Y-213702D01*
X18732Y-213828D01*
X18710Y-213964D01*
X18693Y-214101D01*
X18677Y-214248D01*
X18672Y-214396D01*
X18666Y-214548D01*
Y-214554D01*
Y-214559D01*
Y-214592D01*
Y-214647D01*
X18672Y-214718D01*
X18677Y-214805D01*
X18683Y-214903D01*
X18693Y-215018D01*
X18710Y-215138D01*
X18726Y-215269D01*
X18748Y-215406D01*
X18781Y-215548D01*
X18814Y-215690D01*
X18852Y-215832D01*
X18895Y-215973D01*
X18950Y-216110D01*
X19010Y-216241D01*
X19016Y-216247D01*
X19027Y-216268D01*
X19048Y-216307D01*
X19076Y-216350D01*
X19114Y-216410D01*
X19158Y-216470D01*
X19207Y-216541D01*
X19267Y-216618D01*
X19338Y-216700D01*
X19414Y-216782D01*
X19496Y-216869D01*
X19589Y-216951D01*
X19687Y-217033D01*
X19791Y-217109D01*
X19906Y-217180D01*
X20026Y-217246D01*
X20031Y-217251D01*
X20058Y-217262D01*
X20091Y-217279D01*
X20140Y-217295D01*
X20200Y-217322D01*
X20277Y-217350D01*
X20359Y-217377D01*
X20452Y-217409D01*
X20555Y-217442D01*
X20665Y-217470D01*
X20779Y-217497D01*
X20899Y-217524D01*
X21030Y-217541D01*
X21161Y-217557D01*
X21298Y-217568D01*
X21434Y-217573D01*
X21500D01*
X21544Y-217568D01*
X21604D01*
X21675Y-217562D01*
X21751Y-217551D01*
X21838Y-217541D01*
X21931Y-217530D01*
X22030Y-217513D01*
X22242Y-217470D01*
X22472Y-217409D01*
X22587Y-217371D01*
X22701Y-217328D01*
X22707Y-217322D01*
X22728Y-217317D01*
X22761Y-217300D01*
X22805Y-217284D01*
X22854Y-217262D01*
X22914Y-217235D01*
X22980Y-217202D01*
X23051Y-217164D01*
X23203Y-217087D01*
X23362Y-216995D01*
X23515Y-216896D01*
X23580Y-216847D01*
X23646Y-216792D01*
Y-215384D01*
X21423D01*
Y-214494D01*
X24623D01*
Y-217300D01*
X24612Y-217306D01*
X24590Y-217328D01*
X24552Y-217355D01*
X24498Y-217399D01*
X24427Y-217442D01*
X24350Y-217502D01*
X24257Y-217562D01*
X24159Y-217628D01*
X24044Y-217699D01*
X23930Y-217770D01*
X23804Y-217846D01*
X23668Y-217917D01*
X23389Y-218059D01*
X23247Y-218119D01*
X23100Y-218179D01*
X23089Y-218185D01*
X23067Y-218190D01*
X23023Y-218207D01*
X22963Y-218223D01*
X22892Y-218245D01*
X22810Y-218272D01*
X22712Y-218300D01*
X22608Y-218327D01*
X22488Y-218354D01*
X22363Y-218381D01*
X22232Y-218403D01*
X22095Y-218430D01*
X21800Y-218463D01*
X21647Y-218469D01*
X21495Y-218474D01*
X21418D01*
X21385Y-218469D01*
X21309D01*
X21211Y-218458D01*
X21096Y-218447D01*
X20965Y-218436D01*
X20823Y-218414D01*
X20670Y-218387D01*
X20512Y-218360D01*
X20342Y-218321D01*
X20168Y-218272D01*
X19993Y-218218D01*
X19818Y-218158D01*
X19644Y-218081D01*
X19469Y-217999D01*
X19458Y-217994D01*
X19431Y-217977D01*
X19381Y-217950D01*
X19321Y-217912D01*
X19245Y-217863D01*
X19158Y-217803D01*
X19059Y-217732D01*
X18956Y-217650D01*
X18846Y-217557D01*
X18732Y-217453D01*
X18617Y-217344D01*
X18502Y-217218D01*
X18393Y-217082D01*
X18284Y-216940D01*
X18186Y-216787D01*
X18093Y-216623D01*
X18087Y-216612D01*
X18071Y-216580D01*
X18049Y-216530D01*
X18022Y-216465D01*
X17989Y-216378D01*
X17945Y-216279D01*
X17907Y-216159D01*
X17864Y-216034D01*
X17820Y-215886D01*
X17782Y-215733D01*
X17743Y-215569D01*
X17705Y-215389D01*
X17678Y-215204D01*
X17656Y-215013D01*
X17640Y-214816D01*
X17634Y-214609D01*
Y-214603D01*
Y-214598D01*
Y-214581D01*
Y-214559D01*
Y-214532D01*
X17640Y-214499D01*
Y-214423D01*
X17651Y-214325D01*
X17656Y-214210D01*
X17673Y-214079D01*
X17694Y-213937D01*
X17716Y-213784D01*
X17749Y-213620D01*
X17782Y-213451D01*
X17825Y-213276D01*
X17880Y-213096D01*
X17940Y-212911D01*
X18011Y-212730D01*
X18093Y-212550D01*
Y-212545D01*
X18098Y-212539D01*
X18115Y-212506D01*
X18142Y-212457D01*
X18180Y-212392D01*
X18224Y-212315D01*
X18284Y-212223D01*
X18355Y-212119D01*
X18431Y-212010D01*
X18519Y-211895D01*
X18617Y-211780D01*
X18726Y-211660D01*
X18846Y-211545D01*
X18977Y-211431D01*
X19114Y-211322D01*
X19261Y-211218D01*
X19420Y-211125D01*
X19431Y-211120D01*
X19458Y-211103D01*
X19507Y-211081D01*
X19573Y-211054D01*
X19655Y-211016D01*
X19753Y-210978D01*
X19867Y-210934D01*
X19993Y-210890D01*
X20135Y-210852D01*
X20288Y-210808D01*
X20452Y-210770D01*
X20626Y-210732D01*
X20812Y-210705D01*
X21003Y-210683D01*
X21205Y-210666D01*
X21413Y-210661D01*
X21495D01*
X21549Y-210666D01*
D02*
G37*
G36*
X-36212Y-212758D02*
X-36152Y-212763D01*
X-36081Y-212774D01*
X-36005Y-212785D01*
X-35917Y-212796D01*
X-35825Y-212818D01*
X-35726Y-212840D01*
X-35623Y-212872D01*
X-35519Y-212905D01*
X-35410Y-212949D01*
X-35306Y-212998D01*
X-35202Y-213052D01*
X-35098Y-213118D01*
X-35093Y-213123D01*
X-35077Y-213134D01*
X-35049Y-213156D01*
X-35011Y-213183D01*
X-34962Y-213222D01*
X-34913Y-213265D01*
X-34858Y-213320D01*
X-34793Y-213380D01*
X-34727Y-213446D01*
X-34662Y-213522D01*
X-34596Y-213609D01*
X-34525Y-213697D01*
X-34460Y-213795D01*
X-34400Y-213904D01*
X-34339Y-214013D01*
X-34285Y-214134D01*
X-34279Y-214139D01*
X-34274Y-214161D01*
X-34258Y-214199D01*
X-34241Y-214248D01*
X-34219Y-214308D01*
X-34198Y-214379D01*
X-34176Y-214467D01*
X-34148Y-214559D01*
X-34121Y-214663D01*
X-34099Y-214772D01*
X-34077Y-214893D01*
X-34056Y-215018D01*
X-34039Y-215149D01*
X-34023Y-215286D01*
X-34017Y-215422D01*
X-34012Y-215569D01*
Y-215580D01*
Y-215608D01*
Y-215651D01*
X-34017Y-215711D01*
X-34023Y-215782D01*
X-34028Y-215870D01*
X-34039Y-215968D01*
X-34050Y-216072D01*
X-34067Y-216186D01*
X-34088Y-216307D01*
X-34143Y-216563D01*
X-34176Y-216694D01*
X-34214Y-216825D01*
X-34263Y-216956D01*
X-34318Y-217082D01*
X-34323Y-217087D01*
X-34334Y-217109D01*
X-34350Y-217147D01*
X-34372Y-217191D01*
X-34405Y-217251D01*
X-34443Y-217311D01*
X-34487Y-217388D01*
X-34541Y-217464D01*
X-34596Y-217546D01*
X-34662Y-217628D01*
X-34733Y-217715D01*
X-34815Y-217803D01*
X-34896Y-217884D01*
X-34989Y-217966D01*
X-35087Y-218043D01*
X-35191Y-218114D01*
X-35197Y-218119D01*
X-35219Y-218130D01*
X-35246Y-218147D01*
X-35289Y-218168D01*
X-35344Y-218196D01*
X-35404Y-218229D01*
X-35475Y-218256D01*
X-35557Y-218289D01*
X-35644Y-218327D01*
X-35737Y-218354D01*
X-35835Y-218387D01*
X-35939Y-218414D01*
X-36048Y-218436D01*
X-36163Y-218452D01*
X-36278Y-218463D01*
X-36398Y-218469D01*
X-36442D01*
X-36474Y-218463D01*
X-36518D01*
X-36562Y-218458D01*
X-36616Y-218452D01*
X-36676Y-218447D01*
X-36807Y-218420D01*
X-36944Y-218387D01*
X-37091Y-218343D01*
X-37233Y-218278D01*
X-37239D01*
X-37250Y-218267D01*
X-37266Y-218256D01*
X-37293Y-218239D01*
X-37326Y-218223D01*
X-37359Y-218201D01*
X-37446Y-218141D01*
X-37539Y-218070D01*
X-37643Y-217983D01*
X-37741Y-217890D01*
X-37834Y-217781D01*
Y-220445D01*
X-38762D01*
Y-212872D01*
X-37916D01*
Y-213587D01*
X-37910Y-213582D01*
X-37905Y-213571D01*
X-37889Y-213549D01*
X-37861Y-213517D01*
X-37834Y-213484D01*
X-37801Y-213446D01*
X-37719Y-213353D01*
X-37621Y-213254D01*
X-37506Y-213151D01*
X-37381Y-213052D01*
X-37244Y-212965D01*
X-37239D01*
X-37228Y-212954D01*
X-37206Y-212943D01*
X-37179Y-212932D01*
X-37141Y-212916D01*
X-37097Y-212900D01*
X-37048Y-212878D01*
X-36988Y-212856D01*
X-36928Y-212840D01*
X-36856Y-212818D01*
X-36780Y-212801D01*
X-36698Y-212785D01*
X-36524Y-212763D01*
X-36332Y-212752D01*
X-36267D01*
X-36212Y-212758D01*
D02*
G37*
G36*
X46447D02*
X46507D01*
X46572Y-212769D01*
X46649Y-212774D01*
X46736Y-212790D01*
X46834Y-212807D01*
X46933Y-212834D01*
X47031Y-212861D01*
X47135Y-212900D01*
X47244Y-212943D01*
X47342Y-212992D01*
X47440Y-213058D01*
X47533Y-213123D01*
X47621Y-213205D01*
X47626Y-213211D01*
X47642Y-213227D01*
X47664Y-213254D01*
X47692Y-213293D01*
X47724Y-213336D01*
X47763Y-213396D01*
X47801Y-213467D01*
X47844Y-213549D01*
X47883Y-213642D01*
X47921Y-213740D01*
X47959Y-213855D01*
X47992Y-213981D01*
X48025Y-214117D01*
X48046Y-214265D01*
X48057Y-214423D01*
X48063Y-214592D01*
Y-218349D01*
X47135D01*
Y-214903D01*
Y-214898D01*
Y-214876D01*
Y-214849D01*
Y-214811D01*
Y-214767D01*
X47129Y-214712D01*
X47124Y-214592D01*
X47113Y-214461D01*
X47096Y-214330D01*
X47075Y-214205D01*
X47058Y-214150D01*
X47042Y-214101D01*
Y-214095D01*
X47036Y-214090D01*
X47025Y-214063D01*
X47004Y-214013D01*
X46971Y-213959D01*
X46922Y-213899D01*
X46867Y-213833D01*
X46796Y-213768D01*
X46714Y-213708D01*
X46703Y-213702D01*
X46670Y-213686D01*
X46621Y-213658D01*
X46556Y-213631D01*
X46474Y-213604D01*
X46381Y-213577D01*
X46272Y-213560D01*
X46157Y-213555D01*
X46103D01*
X46064Y-213560D01*
X46015Y-213566D01*
X45955Y-213577D01*
X45890Y-213587D01*
X45824Y-213604D01*
X45748Y-213626D01*
X45671Y-213648D01*
X45595Y-213680D01*
X45513Y-213719D01*
X45431Y-213762D01*
X45355Y-213817D01*
X45278Y-213872D01*
X45202Y-213942D01*
X45196Y-213948D01*
X45185Y-213959D01*
X45169Y-213981D01*
X45142Y-214013D01*
X45114Y-214057D01*
X45082Y-214106D01*
X45049Y-214166D01*
X45011Y-214237D01*
X44978Y-214319D01*
X44940Y-214412D01*
X44907Y-214510D01*
X44880Y-214619D01*
X44852Y-214745D01*
X44836Y-214876D01*
X44825Y-215018D01*
X44820Y-215171D01*
Y-218349D01*
X43891D01*
Y-214794D01*
Y-214789D01*
Y-214767D01*
Y-214734D01*
X43886Y-214690D01*
Y-214641D01*
X43881Y-214581D01*
X43875Y-214516D01*
X43864Y-214445D01*
X43837Y-214297D01*
X43793Y-214144D01*
X43738Y-213997D01*
X43700Y-213926D01*
X43662Y-213866D01*
Y-213861D01*
X43651Y-213855D01*
X43640Y-213839D01*
X43618Y-213817D01*
X43597Y-213795D01*
X43564Y-213768D01*
X43526Y-213740D01*
X43487Y-213708D01*
X43438Y-213680D01*
X43384Y-213653D01*
X43324Y-213626D01*
X43253Y-213604D01*
X43182Y-213582D01*
X43100Y-213566D01*
X43012Y-213560D01*
X42919Y-213555D01*
X42881D01*
X42854Y-213560D01*
X42821D01*
X42778Y-213566D01*
X42685Y-213582D01*
X42575Y-213604D01*
X42450Y-213642D01*
X42324Y-213691D01*
X42199Y-213762D01*
X42193D01*
X42182Y-213773D01*
X42166Y-213784D01*
X42144Y-213801D01*
X42084Y-213850D01*
X42013Y-213915D01*
X41931Y-214002D01*
X41855Y-214106D01*
X41778Y-214226D01*
X41713Y-214368D01*
Y-214374D01*
X41707Y-214385D01*
X41702Y-214412D01*
X41691Y-214439D01*
X41680Y-214483D01*
X41664Y-214532D01*
X41653Y-214592D01*
X41642Y-214658D01*
X41625Y-214734D01*
X41615Y-214822D01*
X41598Y-214914D01*
X41587Y-215018D01*
X41582Y-215127D01*
X41571Y-215247D01*
X41565Y-215373D01*
Y-215510D01*
Y-218349D01*
X40637D01*
Y-212872D01*
X41467D01*
Y-213648D01*
X41473Y-213642D01*
X41478Y-213631D01*
X41495Y-213609D01*
X41516Y-213582D01*
X41538Y-213544D01*
X41571Y-213506D01*
X41647Y-213413D01*
X41746Y-213309D01*
X41866Y-213205D01*
X41997Y-213096D01*
X42150Y-212998D01*
X42155Y-212992D01*
X42171Y-212987D01*
X42193Y-212976D01*
X42226Y-212960D01*
X42264Y-212943D01*
X42314Y-212921D01*
X42373Y-212900D01*
X42434Y-212872D01*
X42505Y-212850D01*
X42575Y-212829D01*
X42657Y-212807D01*
X42745Y-212790D01*
X42930Y-212763D01*
X43029Y-212752D01*
X43187D01*
X43231Y-212758D01*
X43280D01*
X43340Y-212763D01*
X43411Y-212774D01*
X43482Y-212785D01*
X43640Y-212812D01*
X43804Y-212861D01*
X43973Y-212921D01*
X44050Y-212965D01*
X44126Y-213009D01*
X44132Y-213014D01*
X44143Y-213020D01*
X44164Y-213036D01*
X44192Y-213052D01*
X44219Y-213080D01*
X44257Y-213112D01*
X44339Y-213189D01*
X44432Y-213293D01*
X44519Y-213413D01*
X44601Y-213555D01*
X44672Y-213713D01*
Y-213708D01*
X44678Y-213702D01*
X44705Y-213669D01*
X44738Y-213626D01*
X44792Y-213560D01*
X44858Y-213489D01*
X44934Y-213407D01*
X45027Y-213320D01*
X45131Y-213233D01*
X45246Y-213145D01*
X45377Y-213058D01*
X45513Y-212976D01*
X45666Y-212900D01*
X45824Y-212840D01*
X45999Y-212796D01*
X46179Y-212763D01*
X46272Y-212752D01*
X46409D01*
X46447Y-212758D01*
D02*
G37*
G36*
X37656D02*
X37716D01*
X37782Y-212769D01*
X37858Y-212774D01*
X37946Y-212790D01*
X38044Y-212807D01*
X38142Y-212834D01*
X38240Y-212861D01*
X38344Y-212900D01*
X38453Y-212943D01*
X38552Y-212992D01*
X38650Y-213058D01*
X38743Y-213123D01*
X38830Y-213205D01*
X38835Y-213211D01*
X38852Y-213227D01*
X38874Y-213254D01*
X38901Y-213293D01*
X38934Y-213336D01*
X38972Y-213396D01*
X39010Y-213467D01*
X39054Y-213549D01*
X39092Y-213642D01*
X39130Y-213740D01*
X39169Y-213855D01*
X39201Y-213981D01*
X39234Y-214117D01*
X39256Y-214265D01*
X39267Y-214423D01*
X39272Y-214592D01*
Y-218349D01*
X38344D01*
Y-214903D01*
Y-214898D01*
Y-214876D01*
Y-214849D01*
Y-214811D01*
Y-214767D01*
X38339Y-214712D01*
X38333Y-214592D01*
X38322Y-214461D01*
X38306Y-214330D01*
X38284Y-214205D01*
X38268Y-214150D01*
X38251Y-214101D01*
Y-214095D01*
X38246Y-214090D01*
X38235Y-214063D01*
X38213Y-214013D01*
X38180Y-213959D01*
X38131Y-213899D01*
X38076Y-213833D01*
X38006Y-213768D01*
X37924Y-213708D01*
X37913Y-213702D01*
X37880Y-213686D01*
X37831Y-213658D01*
X37765Y-213631D01*
X37683Y-213604D01*
X37591Y-213577D01*
X37481Y-213560D01*
X37367Y-213555D01*
X37312D01*
X37274Y-213560D01*
X37225Y-213566D01*
X37165Y-213577D01*
X37099Y-213587D01*
X37034Y-213604D01*
X36957Y-213626D01*
X36881Y-213648D01*
X36804Y-213680D01*
X36722Y-213719D01*
X36641Y-213762D01*
X36564Y-213817D01*
X36488Y-213872D01*
X36411Y-213942D01*
X36406Y-213948D01*
X36395Y-213959D01*
X36378Y-213981D01*
X36351Y-214013D01*
X36324Y-214057D01*
X36291Y-214106D01*
X36258Y-214166D01*
X36220Y-214237D01*
X36187Y-214319D01*
X36149Y-214412D01*
X36116Y-214510D01*
X36089Y-214619D01*
X36062Y-214745D01*
X36045Y-214876D01*
X36035Y-215018D01*
X36029Y-215171D01*
Y-218349D01*
X35101D01*
Y-214794D01*
Y-214789D01*
Y-214767D01*
Y-214734D01*
X35095Y-214690D01*
Y-214641D01*
X35090Y-214581D01*
X35084Y-214516D01*
X35074Y-214445D01*
X35046Y-214297D01*
X35002Y-214144D01*
X34948Y-213997D01*
X34910Y-213926D01*
X34872Y-213866D01*
Y-213861D01*
X34861Y-213855D01*
X34850Y-213839D01*
X34828Y-213817D01*
X34806Y-213795D01*
X34773Y-213768D01*
X34735Y-213740D01*
X34697Y-213708D01*
X34648Y-213680D01*
X34593Y-213653D01*
X34533Y-213626D01*
X34462Y-213604D01*
X34391Y-213582D01*
X34309Y-213566D01*
X34222Y-213560D01*
X34129Y-213555D01*
X34091D01*
X34063Y-213560D01*
X34031D01*
X33987Y-213566D01*
X33894Y-213582D01*
X33785Y-213604D01*
X33659Y-213642D01*
X33534Y-213691D01*
X33408Y-213762D01*
X33403D01*
X33392Y-213773D01*
X33375Y-213784D01*
X33354Y-213801D01*
X33294Y-213850D01*
X33223Y-213915D01*
X33141Y-214002D01*
X33064Y-214106D01*
X32988Y-214226D01*
X32922Y-214368D01*
Y-214374D01*
X32917Y-214385D01*
X32911Y-214412D01*
X32900Y-214439D01*
X32890Y-214483D01*
X32873Y-214532D01*
X32862Y-214592D01*
X32851Y-214658D01*
X32835Y-214734D01*
X32824Y-214822D01*
X32808Y-214914D01*
X32797Y-215018D01*
X32791Y-215127D01*
X32780Y-215247D01*
X32775Y-215373D01*
Y-215510D01*
Y-218349D01*
X31847D01*
Y-212872D01*
X32677D01*
Y-213648D01*
X32682Y-213642D01*
X32688Y-213631D01*
X32704Y-213609D01*
X32726Y-213582D01*
X32748Y-213544D01*
X32780Y-213506D01*
X32857Y-213413D01*
X32955Y-213309D01*
X33075Y-213205D01*
X33206Y-213096D01*
X33359Y-212998D01*
X33364Y-212992D01*
X33381Y-212987D01*
X33403Y-212976D01*
X33435Y-212960D01*
X33474Y-212943D01*
X33523Y-212921D01*
X33583Y-212900D01*
X33643Y-212872D01*
X33714Y-212850D01*
X33785Y-212829D01*
X33867Y-212807D01*
X33954Y-212790D01*
X34140Y-212763D01*
X34238Y-212752D01*
X34396D01*
X34440Y-212758D01*
X34489D01*
X34549Y-212763D01*
X34620Y-212774D01*
X34691Y-212785D01*
X34850Y-212812D01*
X35013Y-212861D01*
X35183Y-212921D01*
X35259Y-212965D01*
X35336Y-213009D01*
X35341Y-213014D01*
X35352Y-213020D01*
X35374Y-213036D01*
X35401Y-213052D01*
X35428Y-213080D01*
X35467Y-213112D01*
X35548Y-213189D01*
X35641Y-213293D01*
X35729Y-213413D01*
X35811Y-213555D01*
X35882Y-213713D01*
Y-213708D01*
X35887Y-213702D01*
X35914Y-213669D01*
X35947Y-213626D01*
X36002Y-213560D01*
X36067Y-213489D01*
X36144Y-213407D01*
X36237Y-213320D01*
X36340Y-213233D01*
X36455Y-213145D01*
X36586Y-213058D01*
X36722Y-212976D01*
X36875Y-212900D01*
X37034Y-212840D01*
X37208Y-212796D01*
X37389Y-212763D01*
X37481Y-212752D01*
X37618D01*
X37656Y-212758D01*
D02*
G37*
G36*
X51918D02*
X51989Y-212763D01*
X52065Y-212769D01*
X52147Y-212774D01*
X52327Y-212796D01*
X52518Y-212823D01*
X52704Y-212867D01*
X52797Y-212894D01*
X52879Y-212921D01*
X52884D01*
X52900Y-212927D01*
X52922Y-212938D01*
X52950Y-212949D01*
X52988Y-212965D01*
X53026Y-212987D01*
X53124Y-213036D01*
X53228Y-213096D01*
X53337Y-213167D01*
X53435Y-213244D01*
X53523Y-213336D01*
Y-213342D01*
X53534Y-213347D01*
X53545Y-213364D01*
X53556Y-213380D01*
X53594Y-213435D01*
X53637Y-213511D01*
X53687Y-213604D01*
X53730Y-213708D01*
X53774Y-213833D01*
X53812Y-213970D01*
Y-213981D01*
X53818Y-213997D01*
Y-214013D01*
X53823Y-214041D01*
X53829Y-214079D01*
X53834Y-214117D01*
X53839Y-214166D01*
Y-214221D01*
X53845Y-214281D01*
X53850Y-214352D01*
X53856Y-214428D01*
Y-214516D01*
X53861Y-214609D01*
Y-214712D01*
Y-214822D01*
Y-216055D01*
Y-216061D01*
Y-216072D01*
Y-216088D01*
Y-216110D01*
Y-216143D01*
Y-216176D01*
Y-216263D01*
Y-216367D01*
X53867Y-216481D01*
Y-216612D01*
Y-216743D01*
X53872Y-217022D01*
X53878Y-217158D01*
X53883Y-217295D01*
X53889Y-217415D01*
X53900Y-217524D01*
X53905Y-217617D01*
X53910Y-217661D01*
X53916Y-217693D01*
Y-217699D01*
X53921Y-217710D01*
Y-217726D01*
X53927Y-217754D01*
X53938Y-217781D01*
X53943Y-217819D01*
X53971Y-217906D01*
X54003Y-218005D01*
X54041Y-218114D01*
X54096Y-218229D01*
X54156Y-218349D01*
X53190D01*
Y-218343D01*
X53184Y-218338D01*
X53173Y-218321D01*
X53168Y-218300D01*
X53152Y-218272D01*
X53141Y-218234D01*
X53108Y-218158D01*
X53075Y-218054D01*
X53042Y-217939D01*
X53021Y-217814D01*
X52999Y-217672D01*
X52993Y-217677D01*
X52977Y-217693D01*
X52950Y-217715D01*
X52911Y-217743D01*
X52862Y-217781D01*
X52808Y-217819D01*
X52747Y-217868D01*
X52682Y-217917D01*
X52606Y-217966D01*
X52529Y-218016D01*
X52360Y-218119D01*
X52185Y-218218D01*
X52092Y-218256D01*
X52005Y-218294D01*
X51999D01*
X51983Y-218300D01*
X51956Y-218310D01*
X51923Y-218321D01*
X51879Y-218332D01*
X51825Y-218349D01*
X51765Y-218365D01*
X51699Y-218381D01*
X51628Y-218398D01*
X51546Y-218414D01*
X51372Y-218442D01*
X51186Y-218463D01*
X50984Y-218469D01*
X50946D01*
X50897Y-218463D01*
X50836D01*
X50760Y-218458D01*
X50673Y-218447D01*
X50574Y-218430D01*
X50471Y-218414D01*
X50362Y-218392D01*
X50252Y-218360D01*
X50132Y-218327D01*
X50017Y-218283D01*
X49908Y-218234D01*
X49794Y-218174D01*
X49695Y-218108D01*
X49597Y-218032D01*
X49592Y-218026D01*
X49575Y-218010D01*
X49553Y-217988D01*
X49521Y-217950D01*
X49488Y-217906D01*
X49444Y-217857D01*
X49400Y-217797D01*
X49357Y-217726D01*
X49313Y-217650D01*
X49270Y-217562D01*
X49226Y-217470D01*
X49193Y-217371D01*
X49160Y-217262D01*
X49139Y-217153D01*
X49122Y-217033D01*
X49117Y-216907D01*
Y-216902D01*
Y-216891D01*
Y-216869D01*
X49122Y-216836D01*
Y-216804D01*
X49128Y-216760D01*
X49139Y-216662D01*
X49160Y-216552D01*
X49193Y-216427D01*
X49237Y-216301D01*
X49297Y-216176D01*
Y-216170D01*
X49308Y-216159D01*
X49313Y-216143D01*
X49330Y-216121D01*
X49368Y-216061D01*
X49422Y-215985D01*
X49493Y-215897D01*
X49575Y-215810D01*
X49668Y-215722D01*
X49772Y-215640D01*
X49777D01*
X49788Y-215630D01*
X49805Y-215619D01*
X49826Y-215608D01*
X49854Y-215591D01*
X49887Y-215569D01*
X49968Y-215526D01*
X50067Y-215477D01*
X50181Y-215428D01*
X50307Y-215378D01*
X50443Y-215335D01*
X50449D01*
X50454Y-215329D01*
X50471D01*
X50493Y-215324D01*
X50525Y-215318D01*
X50558Y-215307D01*
X50602Y-215302D01*
X50651Y-215291D01*
X50705Y-215280D01*
X50766Y-215269D01*
X50831Y-215258D01*
X50907Y-215247D01*
X50989Y-215236D01*
X51077Y-215220D01*
X51170Y-215209D01*
X51268Y-215198D01*
X51279D01*
X51295Y-215193D01*
X51317D01*
X51377Y-215182D01*
X51454Y-215176D01*
X51546Y-215160D01*
X51650Y-215144D01*
X51770Y-215127D01*
X51896Y-215105D01*
X52027Y-215084D01*
X52163Y-215062D01*
X52436Y-215007D01*
X52573Y-214974D01*
X52698Y-214942D01*
X52813Y-214909D01*
X52922Y-214876D01*
Y-214865D01*
Y-214843D01*
Y-214816D01*
X52928Y-214778D01*
Y-214696D01*
Y-214663D01*
Y-214636D01*
Y-214630D01*
Y-214609D01*
Y-214581D01*
X52922Y-214543D01*
Y-214499D01*
X52911Y-214445D01*
X52895Y-214325D01*
X52862Y-214194D01*
X52813Y-214057D01*
X52786Y-213997D01*
X52747Y-213937D01*
X52709Y-213888D01*
X52660Y-213839D01*
X52655Y-213833D01*
X52644Y-213822D01*
X52622Y-213811D01*
X52595Y-213790D01*
X52556Y-213768D01*
X52513Y-213740D01*
X52458Y-213708D01*
X52398Y-213680D01*
X52327Y-213653D01*
X52245Y-213620D01*
X52163Y-213593D01*
X52065Y-213571D01*
X51961Y-213549D01*
X51852Y-213533D01*
X51732Y-213527D01*
X51606Y-213522D01*
X51546D01*
X51497Y-213527D01*
X51443D01*
X51382Y-213533D01*
X51311Y-213544D01*
X51241Y-213549D01*
X51082Y-213577D01*
X50924Y-213620D01*
X50771Y-213680D01*
X50700Y-213713D01*
X50640Y-213757D01*
X50634D01*
X50629Y-213768D01*
X50613Y-213784D01*
X50591Y-213801D01*
X50564Y-213828D01*
X50536Y-213861D01*
X50503Y-213899D01*
X50465Y-213942D01*
X50427Y-213997D01*
X50389Y-214057D01*
X50351Y-214123D01*
X50318Y-214194D01*
X50280Y-214276D01*
X50241Y-214363D01*
X50209Y-214461D01*
X50181Y-214565D01*
X49275Y-214439D01*
Y-214434D01*
X49280Y-214412D01*
X49286Y-214385D01*
X49297Y-214341D01*
X49313Y-214292D01*
X49330Y-214237D01*
X49346Y-214172D01*
X49373Y-214106D01*
X49428Y-213953D01*
X49499Y-213801D01*
X49581Y-213642D01*
X49679Y-213500D01*
X49685Y-213495D01*
X49690Y-213484D01*
X49706Y-213467D01*
X49734Y-213440D01*
X49761Y-213413D01*
X49799Y-213375D01*
X49837Y-213336D01*
X49887Y-213298D01*
X49941Y-213254D01*
X50007Y-213205D01*
X50072Y-213162D01*
X50143Y-213118D01*
X50225Y-213069D01*
X50307Y-213025D01*
X50400Y-212987D01*
X50498Y-212949D01*
X50503D01*
X50520Y-212938D01*
X50553Y-212932D01*
X50591Y-212916D01*
X50645Y-212905D01*
X50705Y-212889D01*
X50776Y-212867D01*
X50853Y-212850D01*
X50940Y-212834D01*
X51038Y-212812D01*
X51142Y-212796D01*
X51252Y-212785D01*
X51366Y-212769D01*
X51486Y-212763D01*
X51743Y-212752D01*
X51858D01*
X51918Y-212758D01*
D02*
G37*
G36*
X28467D02*
X28538Y-212763D01*
X28614Y-212769D01*
X28696Y-212774D01*
X28876Y-212796D01*
X29068Y-212823D01*
X29253Y-212867D01*
X29346Y-212894D01*
X29428Y-212921D01*
X29433D01*
X29450Y-212927D01*
X29471Y-212938D01*
X29499Y-212949D01*
X29537Y-212965D01*
X29575Y-212987D01*
X29674Y-213036D01*
X29777Y-213096D01*
X29886Y-213167D01*
X29985Y-213244D01*
X30072Y-213336D01*
Y-213342D01*
X30083Y-213347D01*
X30094Y-213364D01*
X30105Y-213380D01*
X30143Y-213435D01*
X30187Y-213511D01*
X30236Y-213604D01*
X30280Y-213708D01*
X30323Y-213833D01*
X30362Y-213970D01*
Y-213981D01*
X30367Y-213997D01*
Y-214013D01*
X30372Y-214041D01*
X30378Y-214079D01*
X30383Y-214117D01*
X30389Y-214166D01*
Y-214221D01*
X30394Y-214281D01*
X30400Y-214352D01*
X30405Y-214428D01*
Y-214516D01*
X30411Y-214609D01*
Y-214712D01*
Y-214822D01*
Y-216055D01*
Y-216061D01*
Y-216072D01*
Y-216088D01*
Y-216110D01*
Y-216143D01*
Y-216176D01*
Y-216263D01*
Y-216367D01*
X30416Y-216481D01*
Y-216612D01*
Y-216743D01*
X30422Y-217022D01*
X30427Y-217158D01*
X30433Y-217295D01*
X30438Y-217415D01*
X30449Y-217524D01*
X30454Y-217617D01*
X30460Y-217661D01*
X30465Y-217693D01*
Y-217699D01*
X30471Y-217710D01*
Y-217726D01*
X30476Y-217754D01*
X30487Y-217781D01*
X30493Y-217819D01*
X30520Y-217906D01*
X30553Y-218005D01*
X30591Y-218114D01*
X30645Y-218229D01*
X30705Y-218349D01*
X29739D01*
Y-218343D01*
X29734Y-218338D01*
X29723Y-218321D01*
X29717Y-218300D01*
X29701Y-218272D01*
X29690Y-218234D01*
X29657Y-218158D01*
X29624Y-218054D01*
X29592Y-217939D01*
X29570Y-217814D01*
X29548Y-217672D01*
X29542Y-217677D01*
X29526Y-217693D01*
X29499Y-217715D01*
X29461Y-217743D01*
X29412Y-217781D01*
X29357Y-217819D01*
X29297Y-217868D01*
X29231Y-217917D01*
X29155Y-217966D01*
X29078Y-218016D01*
X28909Y-218119D01*
X28734Y-218218D01*
X28642Y-218256D01*
X28554Y-218294D01*
X28549D01*
X28532Y-218300D01*
X28505Y-218310D01*
X28472Y-218321D01*
X28429Y-218332D01*
X28374Y-218349D01*
X28314Y-218365D01*
X28249Y-218381D01*
X28177Y-218398D01*
X28096Y-218414D01*
X27921Y-218442D01*
X27735Y-218463D01*
X27533Y-218469D01*
X27495D01*
X27446Y-218463D01*
X27386D01*
X27309Y-218458D01*
X27222Y-218447D01*
X27124Y-218430D01*
X27020Y-218414D01*
X26911Y-218392D01*
X26802Y-218360D01*
X26682Y-218327D01*
X26567Y-218283D01*
X26458Y-218234D01*
X26343Y-218174D01*
X26245Y-218108D01*
X26146Y-218032D01*
X26141Y-218026D01*
X26125Y-218010D01*
X26103Y-217988D01*
X26070Y-217950D01*
X26037Y-217906D01*
X25993Y-217857D01*
X25950Y-217797D01*
X25906Y-217726D01*
X25863Y-217650D01*
X25819Y-217562D01*
X25775Y-217470D01*
X25742Y-217371D01*
X25710Y-217262D01*
X25688Y-217153D01*
X25671Y-217033D01*
X25666Y-216907D01*
Y-216902D01*
Y-216891D01*
Y-216869D01*
X25671Y-216836D01*
Y-216804D01*
X25677Y-216760D01*
X25688Y-216662D01*
X25710Y-216552D01*
X25742Y-216427D01*
X25786Y-216301D01*
X25846Y-216176D01*
Y-216170D01*
X25857Y-216159D01*
X25863Y-216143D01*
X25879Y-216121D01*
X25917Y-216061D01*
X25972Y-215985D01*
X26043Y-215897D01*
X26125Y-215810D01*
X26217Y-215722D01*
X26321Y-215640D01*
X26327D01*
X26338Y-215630D01*
X26354Y-215619D01*
X26376Y-215608D01*
X26403Y-215591D01*
X26436Y-215569D01*
X26518Y-215526D01*
X26616Y-215477D01*
X26731Y-215428D01*
X26856Y-215378D01*
X26993Y-215335D01*
X26998D01*
X27004Y-215329D01*
X27020D01*
X27042Y-215324D01*
X27075Y-215318D01*
X27107Y-215307D01*
X27151Y-215302D01*
X27200Y-215291D01*
X27255Y-215280D01*
X27315Y-215269D01*
X27380Y-215258D01*
X27457Y-215247D01*
X27539Y-215236D01*
X27626Y-215220D01*
X27719Y-215209D01*
X27817Y-215198D01*
X27828D01*
X27845Y-215193D01*
X27866D01*
X27926Y-215182D01*
X28003Y-215176D01*
X28096Y-215160D01*
X28199Y-215144D01*
X28319Y-215127D01*
X28445Y-215105D01*
X28576Y-215084D01*
X28713Y-215062D01*
X28986Y-215007D01*
X29122Y-214974D01*
X29248Y-214942D01*
X29362Y-214909D01*
X29471Y-214876D01*
Y-214865D01*
Y-214843D01*
Y-214816D01*
X29477Y-214778D01*
Y-214696D01*
Y-214663D01*
Y-214636D01*
Y-214630D01*
Y-214609D01*
Y-214581D01*
X29471Y-214543D01*
Y-214499D01*
X29461Y-214445D01*
X29444Y-214325D01*
X29412Y-214194D01*
X29362Y-214057D01*
X29335Y-213997D01*
X29297Y-213937D01*
X29259Y-213888D01*
X29210Y-213839D01*
X29204Y-213833D01*
X29193Y-213822D01*
X29171Y-213811D01*
X29144Y-213790D01*
X29106Y-213768D01*
X29062Y-213740D01*
X29007Y-213708D01*
X28947Y-213680D01*
X28876Y-213653D01*
X28795Y-213620D01*
X28713Y-213593D01*
X28614Y-213571D01*
X28511Y-213549D01*
X28401Y-213533D01*
X28281Y-213527D01*
X28156Y-213522D01*
X28096D01*
X28047Y-213527D01*
X27992D01*
X27932Y-213533D01*
X27861Y-213544D01*
X27790Y-213549D01*
X27632Y-213577D01*
X27473Y-213620D01*
X27320Y-213680D01*
X27249Y-213713D01*
X27189Y-213757D01*
X27184D01*
X27178Y-213768D01*
X27162Y-213784D01*
X27140Y-213801D01*
X27113Y-213828D01*
X27086Y-213861D01*
X27053Y-213899D01*
X27014Y-213942D01*
X26976Y-213997D01*
X26938Y-214057D01*
X26900Y-214123D01*
X26867Y-214194D01*
X26829Y-214276D01*
X26791Y-214363D01*
X26758Y-214461D01*
X26731Y-214565D01*
X25824Y-214439D01*
Y-214434D01*
X25830Y-214412D01*
X25835Y-214385D01*
X25846Y-214341D01*
X25863Y-214292D01*
X25879Y-214237D01*
X25895Y-214172D01*
X25923Y-214106D01*
X25977Y-213953D01*
X26048Y-213801D01*
X26130Y-213642D01*
X26228Y-213500D01*
X26234Y-213495D01*
X26239Y-213484D01*
X26256Y-213467D01*
X26283Y-213440D01*
X26310Y-213413D01*
X26348Y-213375D01*
X26387Y-213336D01*
X26436Y-213298D01*
X26490Y-213254D01*
X26556Y-213205D01*
X26621Y-213162D01*
X26692Y-213118D01*
X26774Y-213069D01*
X26856Y-213025D01*
X26949Y-212987D01*
X27047Y-212949D01*
X27053D01*
X27069Y-212938D01*
X27102Y-212932D01*
X27140Y-212916D01*
X27195Y-212905D01*
X27255Y-212889D01*
X27326Y-212867D01*
X27402Y-212850D01*
X27490Y-212834D01*
X27588Y-212812D01*
X27692Y-212796D01*
X27801Y-212785D01*
X27915Y-212769D01*
X28036Y-212763D01*
X28292Y-212752D01*
X28407D01*
X28467Y-212758D01*
D02*
G37*
G36*
X5781D02*
X5852Y-212763D01*
X5928Y-212769D01*
X6010Y-212774D01*
X6190Y-212796D01*
X6381Y-212823D01*
X6567Y-212867D01*
X6660Y-212894D01*
X6742Y-212921D01*
X6747D01*
X6763Y-212927D01*
X6785Y-212938D01*
X6813Y-212949D01*
X6851Y-212965D01*
X6889Y-212987D01*
X6987Y-213036D01*
X7091Y-213096D01*
X7200Y-213167D01*
X7299Y-213244D01*
X7386Y-213336D01*
Y-213342D01*
X7397Y-213347D01*
X7408Y-213364D01*
X7419Y-213380D01*
X7457Y-213435D01*
X7501Y-213511D01*
X7550Y-213604D01*
X7593Y-213708D01*
X7637Y-213833D01*
X7675Y-213970D01*
Y-213981D01*
X7681Y-213997D01*
Y-214013D01*
X7686Y-214041D01*
X7692Y-214079D01*
X7697Y-214117D01*
X7702Y-214166D01*
Y-214221D01*
X7708Y-214281D01*
X7713Y-214352D01*
X7719Y-214428D01*
Y-214516D01*
X7724Y-214609D01*
Y-214712D01*
Y-214822D01*
Y-216055D01*
Y-216061D01*
Y-216072D01*
Y-216088D01*
Y-216110D01*
Y-216143D01*
Y-216176D01*
Y-216263D01*
Y-216367D01*
X7730Y-216481D01*
Y-216612D01*
Y-216743D01*
X7735Y-217022D01*
X7741Y-217158D01*
X7746Y-217295D01*
X7752Y-217415D01*
X7763Y-217524D01*
X7768Y-217617D01*
X7773Y-217661D01*
X7779Y-217693D01*
Y-217699D01*
X7784Y-217710D01*
Y-217726D01*
X7790Y-217754D01*
X7801Y-217781D01*
X7806Y-217819D01*
X7834Y-217906D01*
X7866Y-218005D01*
X7904Y-218114D01*
X7959Y-218229D01*
X8019Y-218349D01*
X7053D01*
Y-218343D01*
X7047Y-218338D01*
X7036Y-218321D01*
X7031Y-218300D01*
X7015Y-218272D01*
X7004Y-218234D01*
X6971Y-218158D01*
X6938Y-218054D01*
X6905Y-217939D01*
X6883Y-217814D01*
X6862Y-217672D01*
X6856Y-217677D01*
X6840Y-217693D01*
X6813Y-217715D01*
X6774Y-217743D01*
X6725Y-217781D01*
X6671Y-217819D01*
X6611Y-217868D01*
X6545Y-217917D01*
X6469Y-217966D01*
X6392Y-218016D01*
X6223Y-218119D01*
X6048Y-218218D01*
X5955Y-218256D01*
X5868Y-218294D01*
X5863D01*
X5846Y-218300D01*
X5819Y-218310D01*
X5786Y-218321D01*
X5742Y-218332D01*
X5688Y-218349D01*
X5628Y-218365D01*
X5562Y-218381D01*
X5491Y-218398D01*
X5409Y-218414D01*
X5235Y-218442D01*
X5049Y-218463D01*
X4847Y-218469D01*
X4809D01*
X4760Y-218463D01*
X4699D01*
X4623Y-218458D01*
X4536Y-218447D01*
X4437Y-218430D01*
X4334Y-218414D01*
X4225Y-218392D01*
X4115Y-218360D01*
X3995Y-218327D01*
X3881Y-218283D01*
X3771Y-218234D01*
X3657Y-218174D01*
X3558Y-218108D01*
X3460Y-218032D01*
X3455Y-218026D01*
X3438Y-218010D01*
X3416Y-217988D01*
X3384Y-217950D01*
X3351Y-217906D01*
X3307Y-217857D01*
X3263Y-217797D01*
X3220Y-217726D01*
X3176Y-217650D01*
X3133Y-217562D01*
X3089Y-217470D01*
X3056Y-217371D01*
X3023Y-217262D01*
X3001Y-217153D01*
X2985Y-217033D01*
X2980Y-216907D01*
Y-216902D01*
Y-216891D01*
Y-216869D01*
X2985Y-216836D01*
Y-216804D01*
X2991Y-216760D01*
X3001Y-216662D01*
X3023Y-216552D01*
X3056Y-216427D01*
X3100Y-216301D01*
X3160Y-216176D01*
Y-216170D01*
X3171Y-216159D01*
X3176Y-216143D01*
X3193Y-216121D01*
X3231Y-216061D01*
X3285Y-215985D01*
X3356Y-215897D01*
X3438Y-215810D01*
X3531Y-215722D01*
X3635Y-215640D01*
X3640D01*
X3651Y-215630D01*
X3668Y-215619D01*
X3689Y-215608D01*
X3717Y-215591D01*
X3749Y-215569D01*
X3831Y-215526D01*
X3930Y-215477D01*
X4044Y-215428D01*
X4170Y-215378D01*
X4306Y-215335D01*
X4312D01*
X4317Y-215329D01*
X4334D01*
X4355Y-215324D01*
X4388Y-215318D01*
X4421Y-215307D01*
X4465Y-215302D01*
X4514Y-215291D01*
X4569Y-215280D01*
X4628Y-215269D01*
X4694Y-215258D01*
X4770Y-215247D01*
X4852Y-215236D01*
X4940Y-215220D01*
X5033Y-215209D01*
X5131Y-215198D01*
X5142D01*
X5158Y-215193D01*
X5180D01*
X5240Y-215182D01*
X5316Y-215176D01*
X5409Y-215160D01*
X5513Y-215144D01*
X5633Y-215127D01*
X5759Y-215105D01*
X5890Y-215084D01*
X6026Y-215062D01*
X6299Y-215007D01*
X6436Y-214974D01*
X6561Y-214942D01*
X6676Y-214909D01*
X6785Y-214876D01*
Y-214865D01*
Y-214843D01*
Y-214816D01*
X6791Y-214778D01*
Y-214696D01*
Y-214663D01*
Y-214636D01*
Y-214630D01*
Y-214609D01*
Y-214581D01*
X6785Y-214543D01*
Y-214499D01*
X6774Y-214445D01*
X6758Y-214325D01*
X6725Y-214194D01*
X6676Y-214057D01*
X6649Y-213997D01*
X6611Y-213937D01*
X6572Y-213888D01*
X6523Y-213839D01*
X6518Y-213833D01*
X6507Y-213822D01*
X6485Y-213811D01*
X6458Y-213790D01*
X6419Y-213768D01*
X6376Y-213740D01*
X6321Y-213708D01*
X6261Y-213680D01*
X6190Y-213653D01*
X6108Y-213620D01*
X6026Y-213593D01*
X5928Y-213571D01*
X5824Y-213549D01*
X5715Y-213533D01*
X5595Y-213527D01*
X5469Y-213522D01*
X5409D01*
X5360Y-213527D01*
X5306D01*
X5246Y-213533D01*
X5175Y-213544D01*
X5104Y-213549D01*
X4945Y-213577D01*
X4787Y-213620D01*
X4634Y-213680D01*
X4563Y-213713D01*
X4503Y-213757D01*
X4498D01*
X4492Y-213768D01*
X4476Y-213784D01*
X4454Y-213801D01*
X4426Y-213828D01*
X4399Y-213861D01*
X4366Y-213899D01*
X4328Y-213942D01*
X4290Y-213997D01*
X4252Y-214057D01*
X4214Y-214123D01*
X4181Y-214194D01*
X4143Y-214276D01*
X4104Y-214363D01*
X4072Y-214461D01*
X4044Y-214565D01*
X3138Y-214439D01*
Y-214434D01*
X3143Y-214412D01*
X3149Y-214385D01*
X3160Y-214341D01*
X3176Y-214292D01*
X3193Y-214237D01*
X3209Y-214172D01*
X3236Y-214106D01*
X3291Y-213953D01*
X3362Y-213801D01*
X3444Y-213642D01*
X3542Y-213500D01*
X3548Y-213495D01*
X3553Y-213484D01*
X3569Y-213467D01*
X3597Y-213440D01*
X3624Y-213413D01*
X3662Y-213375D01*
X3700Y-213336D01*
X3749Y-213298D01*
X3804Y-213254D01*
X3870Y-213205D01*
X3935Y-213162D01*
X4006Y-213118D01*
X4088Y-213069D01*
X4170Y-213025D01*
X4263Y-212987D01*
X4361Y-212949D01*
X4366D01*
X4383Y-212938D01*
X4416Y-212932D01*
X4454Y-212916D01*
X4508Y-212905D01*
X4569Y-212889D01*
X4640Y-212867D01*
X4716Y-212850D01*
X4803Y-212834D01*
X4902Y-212812D01*
X5005Y-212796D01*
X5114Y-212785D01*
X5229Y-212769D01*
X5349Y-212763D01*
X5606Y-212752D01*
X5720D01*
X5781Y-212758D01*
D02*
G37*
G36*
X-9497Y-210798D02*
X-9420D01*
X-9338Y-210803D01*
X-9240Y-210814D01*
X-9142Y-210819D01*
X-9032Y-210836D01*
X-8918Y-210847D01*
X-8688Y-210890D01*
X-8459Y-210950D01*
X-8350Y-210983D01*
X-8252Y-211027D01*
X-8246D01*
X-8230Y-211038D01*
X-8202Y-211049D01*
X-8164Y-211070D01*
X-8121Y-211092D01*
X-8071Y-211125D01*
X-8011Y-211158D01*
X-7951Y-211202D01*
X-7886Y-211245D01*
X-7820Y-211300D01*
X-7755Y-211354D01*
X-7684Y-211420D01*
X-7618Y-211491D01*
X-7553Y-211562D01*
X-7493Y-211644D01*
X-7433Y-211731D01*
X-7427Y-211737D01*
X-7422Y-211753D01*
X-7405Y-211780D01*
X-7384Y-211813D01*
X-7362Y-211857D01*
X-7340Y-211911D01*
X-7312Y-211966D01*
X-7280Y-212031D01*
X-7252Y-212108D01*
X-7225Y-212184D01*
X-7181Y-212354D01*
X-7143Y-212539D01*
X-7138Y-212632D01*
X-7132Y-212730D01*
Y-212736D01*
Y-212752D01*
Y-212779D01*
X-7138Y-212812D01*
Y-212856D01*
X-7149Y-212905D01*
X-7154Y-212965D01*
X-7165Y-213025D01*
X-7198Y-213167D01*
X-7247Y-213320D01*
X-7274Y-213402D01*
X-7312Y-213478D01*
X-7351Y-213560D01*
X-7400Y-213642D01*
X-7405Y-213648D01*
X-7411Y-213658D01*
X-7427Y-213680D01*
X-7449Y-213713D01*
X-7476Y-213751D01*
X-7509Y-213790D01*
X-7553Y-213839D01*
X-7596Y-213888D01*
X-7651Y-213942D01*
X-7706Y-213997D01*
X-7771Y-214052D01*
X-7842Y-214112D01*
X-7924Y-214172D01*
X-8006Y-214226D01*
X-8093Y-214281D01*
X-8191Y-214330D01*
X-8186D01*
X-8159Y-214341D01*
X-8126Y-214352D01*
X-8077Y-214368D01*
X-8022Y-214390D01*
X-7957Y-214418D01*
X-7880Y-214450D01*
X-7804Y-214494D01*
X-7717Y-214538D01*
X-7629Y-214587D01*
X-7542Y-214641D01*
X-7454Y-214707D01*
X-7373Y-214772D01*
X-7285Y-214849D01*
X-7209Y-214931D01*
X-7138Y-215018D01*
X-7132Y-215023D01*
X-7121Y-215040D01*
X-7105Y-215067D01*
X-7078Y-215105D01*
X-7050Y-215149D01*
X-7018Y-215204D01*
X-6985Y-215269D01*
X-6952Y-215340D01*
X-6919Y-215422D01*
X-6881Y-215510D01*
X-6854Y-215602D01*
X-6826Y-215706D01*
X-6799Y-215810D01*
X-6783Y-215924D01*
X-6772Y-216039D01*
X-6767Y-216159D01*
Y-216165D01*
Y-216181D01*
Y-216214D01*
X-6772Y-216252D01*
Y-216296D01*
X-6777Y-216350D01*
X-6783Y-216416D01*
X-6794Y-216481D01*
X-6821Y-216634D01*
X-6865Y-216804D01*
X-6919Y-216978D01*
X-6996Y-217153D01*
Y-217158D01*
X-7007Y-217175D01*
X-7018Y-217197D01*
X-7034Y-217229D01*
X-7056Y-217268D01*
X-7083Y-217311D01*
X-7149Y-217409D01*
X-7231Y-217524D01*
X-7323Y-217639D01*
X-7427Y-217754D01*
X-7547Y-217852D01*
X-7553D01*
X-7564Y-217863D01*
X-7580Y-217874D01*
X-7607Y-217890D01*
X-7640Y-217912D01*
X-7678Y-217934D01*
X-7722Y-217961D01*
X-7771Y-217988D01*
X-7831Y-218021D01*
X-7891Y-218048D01*
X-8033Y-218114D01*
X-8191Y-218168D01*
X-8372Y-218223D01*
X-8377D01*
X-8394Y-218229D01*
X-8421Y-218234D01*
X-8459Y-218245D01*
X-8508Y-218250D01*
X-8568Y-218261D01*
X-8634Y-218272D01*
X-8710Y-218283D01*
X-8792Y-218300D01*
X-8885Y-218310D01*
X-8989Y-218321D01*
X-9092Y-218327D01*
X-9207Y-218338D01*
X-9327Y-218343D01*
X-9458Y-218349D01*
X-12467D01*
Y-210792D01*
X-9556D01*
X-9497Y-210798D01*
D02*
G37*
G36*
X-24533Y-212758D02*
X-24462Y-212763D01*
X-24386Y-212769D01*
X-24304Y-212774D01*
X-24124Y-212796D01*
X-23933Y-212823D01*
X-23747Y-212867D01*
X-23654Y-212894D01*
X-23572Y-212921D01*
X-23567D01*
X-23550Y-212927D01*
X-23529Y-212938D01*
X-23501Y-212949D01*
X-23463Y-212965D01*
X-23425Y-212987D01*
X-23327Y-213036D01*
X-23223Y-213096D01*
X-23114Y-213167D01*
X-23015Y-213244D01*
X-22928Y-213336D01*
Y-213342D01*
X-22917Y-213347D01*
X-22906Y-213364D01*
X-22895Y-213380D01*
X-22857Y-213435D01*
X-22813Y-213511D01*
X-22764Y-213604D01*
X-22721Y-213708D01*
X-22677Y-213833D01*
X-22639Y-213970D01*
Y-213981D01*
X-22633Y-213997D01*
Y-214013D01*
X-22628Y-214041D01*
X-22622Y-214079D01*
X-22617Y-214117D01*
X-22611Y-214166D01*
Y-214221D01*
X-22606Y-214281D01*
X-22601Y-214352D01*
X-22595Y-214428D01*
Y-214516D01*
X-22590Y-214609D01*
Y-214712D01*
Y-214822D01*
Y-216055D01*
Y-216061D01*
Y-216072D01*
Y-216088D01*
Y-216110D01*
Y-216143D01*
Y-216176D01*
Y-216263D01*
Y-216367D01*
X-22584Y-216481D01*
Y-216612D01*
Y-216743D01*
X-22579Y-217022D01*
X-22573Y-217158D01*
X-22568Y-217295D01*
X-22562Y-217415D01*
X-22551Y-217524D01*
X-22546Y-217617D01*
X-22540Y-217661D01*
X-22535Y-217693D01*
Y-217699D01*
X-22530Y-217710D01*
Y-217726D01*
X-22524Y-217754D01*
X-22513Y-217781D01*
X-22508Y-217819D01*
X-22480Y-217906D01*
X-22448Y-218005D01*
X-22409Y-218114D01*
X-22355Y-218229D01*
X-22295Y-218349D01*
X-23261D01*
Y-218343D01*
X-23267Y-218338D01*
X-23278Y-218321D01*
X-23283Y-218300D01*
X-23299Y-218272D01*
X-23310Y-218234D01*
X-23343Y-218158D01*
X-23376Y-218054D01*
X-23409Y-217939D01*
X-23430Y-217814D01*
X-23452Y-217672D01*
X-23458Y-217677D01*
X-23474Y-217693D01*
X-23501Y-217715D01*
X-23540Y-217743D01*
X-23589Y-217781D01*
X-23643Y-217819D01*
X-23703Y-217868D01*
X-23769Y-217917D01*
X-23845Y-217966D01*
X-23922Y-218016D01*
X-24091Y-218119D01*
X-24266Y-218218D01*
X-24359Y-218256D01*
X-24446Y-218294D01*
X-24451D01*
X-24468Y-218300D01*
X-24495Y-218310D01*
X-24528Y-218321D01*
X-24572Y-218332D01*
X-24626Y-218349D01*
X-24686Y-218365D01*
X-24752Y-218381D01*
X-24823Y-218398D01*
X-24905Y-218414D01*
X-25079Y-218442D01*
X-25265Y-218463D01*
X-25467Y-218469D01*
X-25505D01*
X-25554Y-218463D01*
X-25614D01*
X-25691Y-218458D01*
X-25778Y-218447D01*
X-25877Y-218430D01*
X-25980Y-218414D01*
X-26089Y-218392D01*
X-26199Y-218360D01*
X-26319Y-218327D01*
X-26433Y-218283D01*
X-26543Y-218234D01*
X-26657Y-218174D01*
X-26755Y-218108D01*
X-26854Y-218032D01*
X-26859Y-218026D01*
X-26876Y-218010D01*
X-26897Y-217988D01*
X-26930Y-217950D01*
X-26963Y-217906D01*
X-27007Y-217857D01*
X-27050Y-217797D01*
X-27094Y-217726D01*
X-27138Y-217650D01*
X-27181Y-217562D01*
X-27225Y-217470D01*
X-27258Y-217371D01*
X-27291Y-217262D01*
X-27312Y-217153D01*
X-27329Y-217033D01*
X-27334Y-216907D01*
Y-216902D01*
Y-216891D01*
Y-216869D01*
X-27329Y-216836D01*
Y-216804D01*
X-27323Y-216760D01*
X-27312Y-216662D01*
X-27291Y-216552D01*
X-27258Y-216427D01*
X-27214Y-216301D01*
X-27154Y-216176D01*
Y-216170D01*
X-27143Y-216159D01*
X-27138Y-216143D01*
X-27121Y-216121D01*
X-27083Y-216061D01*
X-27029Y-215985D01*
X-26958Y-215897D01*
X-26876Y-215810D01*
X-26783Y-215722D01*
X-26679Y-215640D01*
X-26674D01*
X-26663Y-215630D01*
X-26646Y-215619D01*
X-26625Y-215608D01*
X-26597Y-215591D01*
X-26564Y-215569D01*
X-26482Y-215526D01*
X-26384Y-215477D01*
X-26270Y-215428D01*
X-26144Y-215378D01*
X-26008Y-215335D01*
X-26002D01*
X-25997Y-215329D01*
X-25980D01*
X-25958Y-215324D01*
X-25926Y-215318D01*
X-25893Y-215307D01*
X-25849Y-215302D01*
X-25800Y-215291D01*
X-25745Y-215280D01*
X-25685Y-215269D01*
X-25620Y-215258D01*
X-25543Y-215247D01*
X-25462Y-215236D01*
X-25374Y-215220D01*
X-25281Y-215209D01*
X-25183Y-215198D01*
X-25172D01*
X-25156Y-215193D01*
X-25134D01*
X-25074Y-215182D01*
X-24997Y-215176D01*
X-24905Y-215160D01*
X-24801Y-215144D01*
X-24681Y-215127D01*
X-24555Y-215105D01*
X-24424Y-215084D01*
X-24288Y-215062D01*
X-24015Y-215007D01*
X-23878Y-214974D01*
X-23753Y-214942D01*
X-23638Y-214909D01*
X-23529Y-214876D01*
Y-214865D01*
Y-214843D01*
Y-214816D01*
X-23523Y-214778D01*
Y-214696D01*
Y-214663D01*
Y-214636D01*
Y-214630D01*
Y-214609D01*
Y-214581D01*
X-23529Y-214543D01*
Y-214499D01*
X-23540Y-214445D01*
X-23556Y-214325D01*
X-23589Y-214194D01*
X-23638Y-214057D01*
X-23665Y-213997D01*
X-23703Y-213937D01*
X-23742Y-213888D01*
X-23791Y-213839D01*
X-23796Y-213833D01*
X-23807Y-213822D01*
X-23829Y-213811D01*
X-23856Y-213790D01*
X-23895Y-213768D01*
X-23938Y-213740D01*
X-23993Y-213708D01*
X-24053Y-213680D01*
X-24124Y-213653D01*
X-24206Y-213620D01*
X-24288Y-213593D01*
X-24386Y-213571D01*
X-24490Y-213549D01*
X-24599Y-213533D01*
X-24719Y-213527D01*
X-24845Y-213522D01*
X-24905D01*
X-24954Y-213527D01*
X-25008D01*
X-25068Y-213533D01*
X-25139Y-213544D01*
X-25210Y-213549D01*
X-25369Y-213577D01*
X-25527Y-213620D01*
X-25680Y-213680D01*
X-25751Y-213713D01*
X-25811Y-213757D01*
X-25816D01*
X-25822Y-213768D01*
X-25838Y-213784D01*
X-25860Y-213801D01*
X-25887Y-213828D01*
X-25915Y-213861D01*
X-25947Y-213899D01*
X-25986Y-213942D01*
X-26024Y-213997D01*
X-26062Y-214057D01*
X-26100Y-214123D01*
X-26133Y-214194D01*
X-26171Y-214276D01*
X-26210Y-214363D01*
X-26242Y-214461D01*
X-26270Y-214565D01*
X-27176Y-214439D01*
Y-214434D01*
X-27171Y-214412D01*
X-27165Y-214385D01*
X-27154Y-214341D01*
X-27138Y-214292D01*
X-27121Y-214237D01*
X-27105Y-214172D01*
X-27078Y-214106D01*
X-27023Y-213953D01*
X-26952Y-213801D01*
X-26870Y-213642D01*
X-26772Y-213500D01*
X-26766Y-213495D01*
X-26761Y-213484D01*
X-26745Y-213467D01*
X-26717Y-213440D01*
X-26690Y-213413D01*
X-26652Y-213375D01*
X-26614Y-213336D01*
X-26564Y-213298D01*
X-26510Y-213254D01*
X-26444Y-213205D01*
X-26379Y-213162D01*
X-26308Y-213118D01*
X-26226Y-213069D01*
X-26144Y-213025D01*
X-26051Y-212987D01*
X-25953Y-212949D01*
X-25947D01*
X-25931Y-212938D01*
X-25898Y-212932D01*
X-25860Y-212916D01*
X-25806Y-212905D01*
X-25745Y-212889D01*
X-25675Y-212867D01*
X-25598Y-212850D01*
X-25511Y-212834D01*
X-25412Y-212812D01*
X-25309Y-212796D01*
X-25199Y-212785D01*
X-25085Y-212769D01*
X-24965Y-212763D01*
X-24708Y-212752D01*
X-24593D01*
X-24533Y-212758D01*
D02*
G37*
G36*
X-31964Y-213506D02*
X-31959Y-213495D01*
X-31937Y-213473D01*
X-31899Y-213435D01*
X-31850Y-213386D01*
X-31784Y-213331D01*
X-31708Y-213265D01*
X-31615Y-213200D01*
X-31517Y-213129D01*
X-31402Y-213058D01*
X-31276Y-212992D01*
X-31145Y-212927D01*
X-30998Y-212872D01*
X-30845Y-212823D01*
X-30681Y-212785D01*
X-30507Y-212763D01*
X-30326Y-212752D01*
X-30266D01*
X-30223Y-212758D01*
X-30174D01*
X-30113Y-212763D01*
X-30042Y-212774D01*
X-29966Y-212779D01*
X-29802Y-212812D01*
X-29627Y-212856D01*
X-29447Y-212911D01*
X-29360Y-212949D01*
X-29273Y-212992D01*
X-29267D01*
X-29251Y-213003D01*
X-29229Y-213020D01*
X-29196Y-213036D01*
X-29163Y-213063D01*
X-29120Y-213091D01*
X-29021Y-213167D01*
X-28918Y-213260D01*
X-28809Y-213375D01*
X-28710Y-213506D01*
X-28666Y-213582D01*
X-28628Y-213658D01*
Y-213664D01*
X-28617Y-213680D01*
X-28612Y-213702D01*
X-28596Y-213735D01*
X-28585Y-213779D01*
X-28568Y-213833D01*
X-28546Y-213899D01*
X-28530Y-213970D01*
X-28514Y-214052D01*
X-28492Y-214139D01*
X-28475Y-214243D01*
X-28464Y-214352D01*
X-28448Y-214472D01*
X-28443Y-214598D01*
X-28432Y-214734D01*
Y-214882D01*
Y-218349D01*
X-29360D01*
Y-214882D01*
Y-214876D01*
Y-214849D01*
Y-214816D01*
X-29365Y-214767D01*
X-29371Y-214712D01*
X-29376Y-214647D01*
X-29387Y-214570D01*
X-29398Y-214494D01*
X-29436Y-214330D01*
X-29491Y-214161D01*
X-29524Y-214084D01*
X-29562Y-214008D01*
X-29611Y-213937D01*
X-29666Y-213872D01*
X-29671Y-213866D01*
X-29682Y-213855D01*
X-29699Y-213844D01*
X-29720Y-213822D01*
X-29753Y-213795D01*
X-29791Y-213768D01*
X-29835Y-213740D01*
X-29884Y-213708D01*
X-29944Y-213680D01*
X-30004Y-213653D01*
X-30075Y-213626D01*
X-30152Y-213598D01*
X-30234Y-213577D01*
X-30321Y-213566D01*
X-30419Y-213555D01*
X-30518Y-213549D01*
X-30556D01*
X-30588Y-213555D01*
X-30627D01*
X-30670Y-213560D01*
X-30714Y-213566D01*
X-30769Y-213577D01*
X-30889Y-213604D01*
X-31020Y-213642D01*
X-31162Y-213697D01*
X-31298Y-213768D01*
X-31304D01*
X-31315Y-213779D01*
X-31331Y-213790D01*
X-31358Y-213806D01*
X-31418Y-213855D01*
X-31495Y-213921D01*
X-31582Y-214002D01*
X-31664Y-214101D01*
X-31746Y-214215D01*
X-31811Y-214347D01*
Y-214352D01*
X-31817Y-214363D01*
X-31828Y-214385D01*
X-31833Y-214412D01*
X-31844Y-214450D01*
X-31861Y-214494D01*
X-31872Y-214548D01*
X-31888Y-214609D01*
X-31904Y-214680D01*
X-31915Y-214756D01*
X-31926Y-214838D01*
X-31942Y-214925D01*
X-31948Y-215023D01*
X-31959Y-215127D01*
X-31964Y-215236D01*
Y-215357D01*
Y-218349D01*
X-32893D01*
Y-210792D01*
X-31964D01*
Y-213506D01*
D02*
G37*
G36*
X-40193Y-218349D02*
X-41121D01*
Y-210792D01*
X-40193D01*
Y-218349D01*
D02*
G37*
G36*
X-41781D02*
X-42917D01*
X-43791Y-216061D01*
X-46963D01*
X-47787Y-218349D01*
X-48841D01*
X-45942Y-210792D01*
X-44872D01*
X-41781Y-218349D01*
D02*
G37*
G36*
X1462Y-212872D02*
X2385D01*
Y-213593D01*
X1462D01*
Y-216798D01*
Y-216804D01*
Y-216814D01*
Y-216836D01*
Y-216863D01*
Y-216929D01*
X1467Y-217011D01*
X1473Y-217093D01*
X1478Y-217180D01*
X1489Y-217251D01*
X1500Y-217279D01*
X1505Y-217306D01*
Y-217311D01*
X1516Y-217322D01*
X1527Y-217344D01*
X1544Y-217371D01*
X1593Y-217431D01*
X1626Y-217459D01*
X1664Y-217486D01*
X1669D01*
X1686Y-217497D01*
X1707Y-217508D01*
X1746Y-217519D01*
X1789Y-217530D01*
X1844Y-217541D01*
X1909Y-217546D01*
X1980Y-217551D01*
X2041D01*
X2090Y-217546D01*
X2144D01*
X2215Y-217535D01*
X2297Y-217530D01*
X2385Y-217519D01*
X2521Y-218338D01*
X2516D01*
X2505Y-218343D01*
X2483D01*
X2455Y-218349D01*
X2423Y-218354D01*
X2379Y-218365D01*
X2286Y-218376D01*
X2177Y-218392D01*
X2057Y-218409D01*
X1937Y-218414D01*
X1817Y-218420D01*
X1735D01*
X1691Y-218414D01*
X1642Y-218409D01*
X1533Y-218398D01*
X1407Y-218381D01*
X1276Y-218354D01*
X1151Y-218316D01*
X1036Y-218261D01*
X1030D01*
X1025Y-218256D01*
X992Y-218234D01*
X943Y-218196D01*
X883Y-218152D01*
X817Y-218092D01*
X752Y-218021D01*
X692Y-217939D01*
X643Y-217846D01*
Y-217841D01*
X637Y-217835D01*
X632Y-217819D01*
X626Y-217792D01*
X615Y-217759D01*
X610Y-217721D01*
X599Y-217672D01*
X588Y-217612D01*
X577Y-217541D01*
X566Y-217464D01*
X561Y-217371D01*
X550Y-217273D01*
X544Y-217158D01*
X539Y-217038D01*
X533Y-216896D01*
Y-216749D01*
Y-213593D01*
X-154D01*
Y-212872D01*
X533D01*
Y-211518D01*
X1462Y-210961D01*
Y-212872D01*
D02*
G37*
G36*
X-3157Y-212758D02*
X-3081Y-212763D01*
X-2983Y-212774D01*
X-2879Y-212790D01*
X-2759Y-212812D01*
X-2628Y-212845D01*
X-2486Y-212883D01*
X-2344Y-212932D01*
X-2191Y-212992D01*
X-2044Y-213069D01*
X-1891Y-213151D01*
X-1749Y-213254D01*
X-1607Y-213369D01*
X-1470Y-213500D01*
X-1465Y-213511D01*
X-1438Y-213533D01*
X-1405Y-213577D01*
X-1361Y-213637D01*
X-1307Y-213713D01*
X-1246Y-213806D01*
X-1186Y-213915D01*
X-1121Y-214041D01*
X-1055Y-214183D01*
X-990Y-214341D01*
X-935Y-214516D01*
X-881Y-214701D01*
X-837Y-214903D01*
X-799Y-215122D01*
X-777Y-215357D01*
X-771Y-215602D01*
Y-215608D01*
Y-215619D01*
Y-215635D01*
Y-215662D01*
Y-215701D01*
Y-215739D01*
X-777Y-215788D01*
Y-215848D01*
X-4861D01*
Y-215859D01*
X-4856Y-215886D01*
Y-215935D01*
X-4845Y-215995D01*
X-4834Y-216072D01*
X-4823Y-216159D01*
X-4801Y-216252D01*
X-4779Y-216356D01*
X-4752Y-216470D01*
X-4713Y-216580D01*
X-4675Y-216694D01*
X-4626Y-216809D01*
X-4572Y-216924D01*
X-4506Y-217033D01*
X-4435Y-217137D01*
X-4353Y-217229D01*
X-4348Y-217235D01*
X-4331Y-217251D01*
X-4304Y-217273D01*
X-4271Y-217306D01*
X-4228Y-217338D01*
X-4173Y-217377D01*
X-4107Y-217420D01*
X-4036Y-217464D01*
X-3960Y-217513D01*
X-3873Y-217551D01*
X-3780Y-217595D01*
X-3676Y-217628D01*
X-3567Y-217661D01*
X-3452Y-217683D01*
X-3332Y-217699D01*
X-3207Y-217704D01*
X-3157D01*
X-3119Y-217699D01*
X-3076Y-217693D01*
X-3026Y-217688D01*
X-2966Y-217683D01*
X-2906Y-217672D01*
X-2770Y-217639D01*
X-2622Y-217590D01*
X-2546Y-217562D01*
X-2475Y-217524D01*
X-2404Y-217486D01*
X-2333Y-217437D01*
X-2327Y-217431D01*
X-2317Y-217426D01*
X-2300Y-217409D01*
X-2273Y-217388D01*
X-2240Y-217355D01*
X-2207Y-217322D01*
X-2169Y-217279D01*
X-2125Y-217229D01*
X-2082Y-217169D01*
X-2033Y-217109D01*
X-1989Y-217038D01*
X-1940Y-216962D01*
X-1891Y-216874D01*
X-1847Y-216782D01*
X-1803Y-216683D01*
X-1760Y-216574D01*
X-804Y-216700D01*
Y-216711D01*
X-815Y-216738D01*
X-831Y-216782D01*
X-848Y-216836D01*
X-875Y-216907D01*
X-908Y-216989D01*
X-946Y-217082D01*
X-995Y-217180D01*
X-1050Y-217279D01*
X-1110Y-217388D01*
X-1181Y-217497D01*
X-1257Y-217606D01*
X-1339Y-217710D01*
X-1432Y-217814D01*
X-1536Y-217912D01*
X-1645Y-218005D01*
X-1650Y-218010D01*
X-1672Y-218026D01*
X-1705Y-218048D01*
X-1754Y-218076D01*
X-1814Y-218114D01*
X-1891Y-218152D01*
X-1973Y-218196D01*
X-2071Y-218234D01*
X-2180Y-218278D01*
X-2295Y-218321D01*
X-2426Y-218360D01*
X-2562Y-218398D01*
X-2710Y-218425D01*
X-2868Y-218447D01*
X-3037Y-218463D01*
X-3212Y-218469D01*
X-3267D01*
X-3294Y-218463D01*
X-3327D01*
X-3409Y-218458D01*
X-3512Y-218447D01*
X-3627Y-218430D01*
X-3758Y-218409D01*
X-3900Y-218376D01*
X-4047Y-218338D01*
X-4206Y-218289D01*
X-4364Y-218229D01*
X-4522Y-218158D01*
X-4681Y-218076D01*
X-4834Y-217977D01*
X-4981Y-217863D01*
X-5118Y-217732D01*
X-5123Y-217721D01*
X-5145Y-217699D01*
X-5183Y-217655D01*
X-5227Y-217595D01*
X-5281Y-217519D01*
X-5336Y-217426D01*
X-5401Y-217322D01*
X-5467Y-217197D01*
X-5533Y-217055D01*
X-5593Y-216902D01*
X-5653Y-216733D01*
X-5707Y-216547D01*
X-5751Y-216345D01*
X-5784Y-216132D01*
X-5811Y-215903D01*
X-5816Y-215657D01*
Y-215651D01*
Y-215640D01*
Y-215624D01*
Y-215597D01*
X-5811Y-215564D01*
Y-215526D01*
Y-215482D01*
X-5805Y-215428D01*
X-5795Y-215313D01*
X-5778Y-215182D01*
X-5756Y-215034D01*
X-5729Y-214871D01*
X-5691Y-214707D01*
X-5642Y-214532D01*
X-5587Y-214352D01*
X-5516Y-214172D01*
X-5434Y-213997D01*
X-5341Y-213828D01*
X-5232Y-213664D01*
X-5107Y-213517D01*
X-5096Y-213506D01*
X-5074Y-213484D01*
X-5036Y-213446D01*
X-4976Y-213396D01*
X-4905Y-213336D01*
X-4823Y-213276D01*
X-4724Y-213205D01*
X-4610Y-213134D01*
X-4484Y-213063D01*
X-4342Y-212992D01*
X-4195Y-212927D01*
X-4031Y-212872D01*
X-3851Y-212823D01*
X-3665Y-212785D01*
X-3469Y-212763D01*
X-3261Y-212752D01*
X-3212D01*
X-3157Y-212758D01*
D02*
G37*
G36*
X13173Y-220571D02*
X12365D01*
Y-210666D01*
X13173D01*
Y-220571D01*
D02*
G37*
G36*
X-17141D02*
X-17949D01*
Y-210666D01*
X-17141D01*
Y-220571D01*
D02*
G37*
G36*
X-35153Y-45869D02*
X-35103D01*
X-35075Y-45872D01*
X-35045Y-45875D01*
X-35012Y-45877D01*
X-34937Y-45888D01*
X-34854Y-45899D01*
X-34765Y-45916D01*
X-34837Y-46326D01*
X-34843D01*
X-34851Y-46323D01*
X-34862Y-46320D01*
X-34890Y-46318D01*
X-34926Y-46312D01*
X-34970Y-46307D01*
X-35017Y-46304D01*
X-35114Y-46298D01*
X-35147D01*
X-35167Y-46301D01*
X-35186Y-46304D01*
X-35230Y-46309D01*
X-35280Y-46320D01*
X-35330Y-46337D01*
X-35377Y-46359D01*
X-35397Y-46373D01*
X-35416Y-46390D01*
X-35419Y-46395D01*
X-35430Y-46409D01*
X-35444Y-46431D01*
X-35452Y-46448D01*
X-35460Y-46467D01*
X-35469Y-46489D01*
X-35477Y-46512D01*
X-35485Y-46542D01*
X-35491Y-46573D01*
X-35496Y-46606D01*
X-35502Y-46644D01*
X-35505Y-46686D01*
Y-46730D01*
Y-46985D01*
X-34965D01*
Y-47351D01*
X-35502D01*
Y-49764D01*
X-35973D01*
Y-47351D01*
X-36388D01*
Y-46985D01*
X-35973D01*
Y-46692D01*
Y-46689D01*
Y-46681D01*
Y-46664D01*
Y-46644D01*
X-35970Y-46622D01*
Y-46595D01*
Y-46567D01*
X-35967Y-46534D01*
X-35962Y-46467D01*
X-35954Y-46398D01*
X-35942Y-46332D01*
X-35934Y-46304D01*
X-35926Y-46276D01*
Y-46273D01*
X-35923Y-46268D01*
X-35917Y-46259D01*
X-35912Y-46246D01*
X-35904Y-46229D01*
X-35895Y-46212D01*
X-35870Y-46171D01*
X-35837Y-46124D01*
X-35796Y-46074D01*
X-35746Y-46024D01*
X-35685Y-45980D01*
X-35682D01*
X-35677Y-45974D01*
X-35668Y-45969D01*
X-35654Y-45963D01*
X-35635Y-45952D01*
X-35613Y-45944D01*
X-35588Y-45933D01*
X-35560Y-45921D01*
X-35527Y-45913D01*
X-35491Y-45902D01*
X-35452Y-45891D01*
X-35411Y-45883D01*
X-35364Y-45877D01*
X-35314Y-45872D01*
X-35261Y-45866D01*
X-35170D01*
X-35153Y-45869D01*
D02*
G37*
G36*
X3173Y-46470D02*
X2702D01*
Y-45930D01*
X3173D01*
Y-46470D01*
D02*
G37*
G36*
X-29067D02*
X-29538D01*
Y-45930D01*
X-29067D01*
Y-46470D01*
D02*
G37*
G36*
X1957Y-49764D02*
X1519D01*
Y-49412D01*
X1516Y-49417D01*
X1508Y-49428D01*
X1491Y-49450D01*
X1469Y-49475D01*
X1441Y-49509D01*
X1408Y-49542D01*
X1367Y-49581D01*
X1322Y-49617D01*
X1270Y-49656D01*
X1212Y-49694D01*
X1148Y-49727D01*
X1079Y-49761D01*
X1004Y-49786D01*
X921Y-49808D01*
X835Y-49819D01*
X741Y-49825D01*
X708D01*
X685Y-49822D01*
X655Y-49819D01*
X622Y-49813D01*
X583Y-49808D01*
X541Y-49802D01*
X494Y-49791D01*
X447Y-49780D01*
X397Y-49766D01*
X345Y-49747D01*
X292Y-49727D01*
X237Y-49703D01*
X184Y-49675D01*
X131Y-49642D01*
X129Y-49639D01*
X120Y-49633D01*
X104Y-49622D01*
X87Y-49608D01*
X62Y-49589D01*
X34Y-49567D01*
X7Y-49539D01*
X-27Y-49509D01*
X-60Y-49475D01*
X-96Y-49437D01*
X-132Y-49395D01*
X-168Y-49348D01*
X-201Y-49301D01*
X-237Y-49248D01*
X-268Y-49190D01*
X-298Y-49132D01*
X-301Y-49129D01*
X-304Y-49118D01*
X-312Y-49099D01*
X-323Y-49074D01*
X-334Y-49043D01*
X-345Y-49007D01*
X-359Y-48963D01*
X-373Y-48916D01*
X-389Y-48863D01*
X-403Y-48805D01*
X-414Y-48741D01*
X-426Y-48675D01*
X-436Y-48606D01*
X-445Y-48534D01*
X-448Y-48456D01*
X-450Y-48379D01*
Y-48373D01*
Y-48359D01*
Y-48337D01*
X-448Y-48309D01*
X-445Y-48270D01*
X-442Y-48229D01*
X-439Y-48182D01*
X-434Y-48129D01*
X-426Y-48071D01*
X-417Y-48013D01*
X-392Y-47886D01*
X-378Y-47819D01*
X-359Y-47755D01*
X-340Y-47689D01*
X-315Y-47625D01*
X-312Y-47622D01*
X-309Y-47611D01*
X-301Y-47592D01*
X-290Y-47570D01*
X-273Y-47542D01*
X-256Y-47509D01*
X-234Y-47473D01*
X-209Y-47434D01*
X-184Y-47392D01*
X-151Y-47351D01*
X-118Y-47306D01*
X-82Y-47265D01*
X-40Y-47221D01*
X4Y-47182D01*
X51Y-47143D01*
X101Y-47107D01*
X104Y-47104D01*
X115Y-47099D01*
X129Y-47091D01*
X151Y-47079D01*
X176Y-47066D01*
X206Y-47049D01*
X242Y-47032D01*
X281Y-47016D01*
X325Y-46999D01*
X372Y-46982D01*
X425Y-46966D01*
X478Y-46952D01*
X536Y-46941D01*
X594Y-46933D01*
X655Y-46927D01*
X719Y-46924D01*
X744D01*
X760Y-46927D01*
X782D01*
X810Y-46930D01*
X838Y-46933D01*
X868Y-46938D01*
X937Y-46949D01*
X1012Y-46969D01*
X1090Y-46996D01*
X1165Y-47032D01*
X1167D01*
X1173Y-47038D01*
X1184Y-47043D01*
X1198Y-47052D01*
X1214Y-47063D01*
X1234Y-47074D01*
X1278Y-47107D01*
X1331Y-47146D01*
X1383Y-47193D01*
X1436Y-47248D01*
X1486Y-47309D01*
Y-45930D01*
X1957D01*
Y-49764D01*
D02*
G37*
G36*
X-51164Y-46927D02*
X-51133Y-46930D01*
X-51097Y-46935D01*
X-51058Y-46941D01*
X-51014Y-46946D01*
X-50967Y-46957D01*
X-50917Y-46969D01*
X-50864Y-46985D01*
X-50812Y-47002D01*
X-50756Y-47024D01*
X-50704Y-47049D01*
X-50651Y-47077D01*
X-50599Y-47110D01*
X-50596Y-47113D01*
X-50587Y-47118D01*
X-50573Y-47129D01*
X-50554Y-47143D01*
X-50529Y-47163D01*
X-50504Y-47185D01*
X-50477Y-47212D01*
X-50443Y-47243D01*
X-50410Y-47276D01*
X-50377Y-47315D01*
X-50344Y-47359D01*
X-50308Y-47403D01*
X-50274Y-47453D01*
X-50244Y-47509D01*
X-50213Y-47564D01*
X-50186Y-47625D01*
X-50183Y-47628D01*
X-50180Y-47639D01*
X-50172Y-47658D01*
X-50164Y-47683D01*
X-50152Y-47714D01*
X-50141Y-47750D01*
X-50130Y-47794D01*
X-50116Y-47841D01*
X-50103Y-47894D01*
X-50092Y-47949D01*
X-50081Y-48010D01*
X-50069Y-48074D01*
X-50061Y-48140D01*
X-50053Y-48210D01*
X-50050Y-48279D01*
X-50047Y-48354D01*
Y-48359D01*
Y-48373D01*
Y-48395D01*
X-50050Y-48426D01*
X-50053Y-48462D01*
X-50055Y-48506D01*
X-50061Y-48556D01*
X-50067Y-48608D01*
X-50075Y-48667D01*
X-50086Y-48728D01*
X-50114Y-48858D01*
X-50130Y-48924D01*
X-50150Y-48991D01*
X-50175Y-49057D01*
X-50202Y-49121D01*
X-50205Y-49124D01*
X-50211Y-49135D01*
X-50219Y-49154D01*
X-50230Y-49176D01*
X-50247Y-49207D01*
X-50266Y-49237D01*
X-50288Y-49276D01*
X-50316Y-49315D01*
X-50344Y-49356D01*
X-50377Y-49398D01*
X-50413Y-49442D01*
X-50454Y-49487D01*
X-50496Y-49528D01*
X-50543Y-49570D01*
X-50593Y-49608D01*
X-50646Y-49644D01*
X-50648Y-49647D01*
X-50659Y-49653D01*
X-50673Y-49661D01*
X-50695Y-49672D01*
X-50723Y-49686D01*
X-50754Y-49703D01*
X-50790Y-49716D01*
X-50831Y-49733D01*
X-50876Y-49752D01*
X-50923Y-49766D01*
X-50972Y-49783D01*
X-51025Y-49797D01*
X-51080Y-49808D01*
X-51139Y-49816D01*
X-51197Y-49822D01*
X-51258Y-49825D01*
X-51280D01*
X-51297Y-49822D01*
X-51319D01*
X-51341Y-49819D01*
X-51368Y-49816D01*
X-51399Y-49813D01*
X-51465Y-49799D01*
X-51535Y-49783D01*
X-51609Y-49761D01*
X-51682Y-49727D01*
X-51684D01*
X-51690Y-49722D01*
X-51698Y-49716D01*
X-51712Y-49708D01*
X-51729Y-49700D01*
X-51745Y-49689D01*
X-51790Y-49658D01*
X-51837Y-49622D01*
X-51889Y-49578D01*
X-51939Y-49531D01*
X-51986Y-49475D01*
Y-50827D01*
X-52457D01*
Y-46985D01*
X-52028D01*
Y-47348D01*
X-52025Y-47345D01*
X-52022Y-47340D01*
X-52014Y-47329D01*
X-52000Y-47312D01*
X-51986Y-47295D01*
X-51970Y-47276D01*
X-51928Y-47229D01*
X-51878Y-47179D01*
X-51820Y-47126D01*
X-51756Y-47077D01*
X-51687Y-47032D01*
X-51684D01*
X-51679Y-47027D01*
X-51668Y-47021D01*
X-51654Y-47016D01*
X-51634Y-47007D01*
X-51612Y-46999D01*
X-51587Y-46988D01*
X-51557Y-46977D01*
X-51526Y-46969D01*
X-51490Y-46957D01*
X-51452Y-46949D01*
X-51410Y-46941D01*
X-51321Y-46930D01*
X-51224Y-46924D01*
X-51191D01*
X-51164Y-46927D01*
D02*
G37*
G36*
X-27292D02*
X-27270Y-46930D01*
X-27245Y-46933D01*
X-27217Y-46938D01*
X-27184Y-46944D01*
X-27148Y-46952D01*
X-27109Y-46960D01*
X-27029Y-46988D01*
X-26984Y-47005D01*
X-26940Y-47027D01*
X-26896Y-47049D01*
X-26849Y-47077D01*
X-27015Y-47512D01*
X-27018D01*
X-27023Y-47506D01*
X-27031Y-47503D01*
X-27045Y-47495D01*
X-27059Y-47489D01*
X-27078Y-47481D01*
X-27123Y-47462D01*
X-27173Y-47442D01*
X-27231Y-47428D01*
X-27294Y-47417D01*
X-27358Y-47412D01*
X-27383D01*
X-27414Y-47417D01*
X-27450Y-47423D01*
X-27491Y-47434D01*
X-27538Y-47451D01*
X-27585Y-47475D01*
X-27632Y-47506D01*
X-27638Y-47512D01*
X-27652Y-47523D01*
X-27674Y-47545D01*
X-27699Y-47572D01*
X-27729Y-47609D01*
X-27757Y-47653D01*
X-27785Y-47705D01*
X-27807Y-47764D01*
Y-47766D01*
X-27810Y-47775D01*
X-27815Y-47789D01*
X-27818Y-47808D01*
X-27823Y-47830D01*
X-27832Y-47858D01*
X-27837Y-47891D01*
X-27846Y-47924D01*
X-27854Y-47966D01*
X-27860Y-48007D01*
X-27865Y-48052D01*
X-27873Y-48099D01*
X-27882Y-48201D01*
X-27885Y-48312D01*
Y-49764D01*
X-28355D01*
Y-46985D01*
X-27931D01*
Y-47412D01*
X-27929Y-47409D01*
X-27923Y-47398D01*
X-27915Y-47384D01*
X-27904Y-47365D01*
X-27890Y-47340D01*
X-27873Y-47312D01*
X-27835Y-47251D01*
X-27788Y-47187D01*
X-27738Y-47121D01*
X-27713Y-47093D01*
X-27688Y-47066D01*
X-27660Y-47041D01*
X-27635Y-47021D01*
X-27632D01*
X-27630Y-47016D01*
X-27621Y-47013D01*
X-27610Y-47005D01*
X-27582Y-46991D01*
X-27547Y-46971D01*
X-27499Y-46955D01*
X-27450Y-46938D01*
X-27394Y-46927D01*
X-27333Y-46924D01*
X-27308D01*
X-27292Y-46927D01*
D02*
G37*
G36*
X-45441D02*
X-45419Y-46930D01*
X-45394Y-46933D01*
X-45366Y-46938D01*
X-45333Y-46944D01*
X-45297Y-46952D01*
X-45258Y-46960D01*
X-45178Y-46988D01*
X-45133Y-47005D01*
X-45089Y-47027D01*
X-45045Y-47049D01*
X-44998Y-47077D01*
X-45164Y-47512D01*
X-45167D01*
X-45172Y-47506D01*
X-45180Y-47503D01*
X-45194Y-47495D01*
X-45208Y-47489D01*
X-45227Y-47481D01*
X-45272Y-47462D01*
X-45322Y-47442D01*
X-45380Y-47428D01*
X-45443Y-47417D01*
X-45507Y-47412D01*
X-45532D01*
X-45563Y-47417D01*
X-45599Y-47423D01*
X-45640Y-47434D01*
X-45687Y-47451D01*
X-45734Y-47475D01*
X-45781Y-47506D01*
X-45787Y-47512D01*
X-45801Y-47523D01*
X-45823Y-47545D01*
X-45848Y-47572D01*
X-45878Y-47609D01*
X-45906Y-47653D01*
X-45934Y-47705D01*
X-45956Y-47764D01*
Y-47766D01*
X-45959Y-47775D01*
X-45964Y-47789D01*
X-45967Y-47808D01*
X-45973Y-47830D01*
X-45981Y-47858D01*
X-45986Y-47891D01*
X-45995Y-47924D01*
X-46003Y-47966D01*
X-46009Y-48007D01*
X-46014Y-48052D01*
X-46022Y-48099D01*
X-46031Y-48201D01*
X-46033Y-48312D01*
Y-49764D01*
X-46504D01*
Y-46985D01*
X-46081D01*
Y-47412D01*
X-46078Y-47409D01*
X-46072Y-47398D01*
X-46064Y-47384D01*
X-46053Y-47365D01*
X-46039Y-47340D01*
X-46022Y-47312D01*
X-45984Y-47251D01*
X-45937Y-47187D01*
X-45887Y-47121D01*
X-45862Y-47093D01*
X-45837Y-47066D01*
X-45809Y-47041D01*
X-45784Y-47021D01*
X-45781D01*
X-45779Y-47016D01*
X-45770Y-47013D01*
X-45759Y-47005D01*
X-45732Y-46991D01*
X-45696Y-46971D01*
X-45649Y-46955D01*
X-45599Y-46938D01*
X-45543Y-46927D01*
X-45482Y-46924D01*
X-45457D01*
X-45441Y-46927D01*
D02*
G37*
G36*
X-56158D02*
X-56136Y-46930D01*
X-56111Y-46933D01*
X-56083Y-46938D01*
X-56050Y-46944D01*
X-56014Y-46952D01*
X-55975Y-46960D01*
X-55895Y-46988D01*
X-55850Y-47005D01*
X-55806Y-47027D01*
X-55762Y-47049D01*
X-55715Y-47077D01*
X-55881Y-47512D01*
X-55884D01*
X-55889Y-47506D01*
X-55897Y-47503D01*
X-55911Y-47495D01*
X-55925Y-47489D01*
X-55945Y-47481D01*
X-55989Y-47462D01*
X-56039Y-47442D01*
X-56097Y-47428D01*
X-56161Y-47417D01*
X-56224Y-47412D01*
X-56249D01*
X-56280Y-47417D01*
X-56316Y-47423D01*
X-56357Y-47434D01*
X-56404Y-47451D01*
X-56451Y-47475D01*
X-56499Y-47506D01*
X-56504Y-47512D01*
X-56518Y-47523D01*
X-56540Y-47545D01*
X-56565Y-47572D01*
X-56595Y-47609D01*
X-56623Y-47653D01*
X-56651Y-47705D01*
X-56673Y-47764D01*
Y-47766D01*
X-56676Y-47775D01*
X-56681Y-47789D01*
X-56684Y-47808D01*
X-56690Y-47830D01*
X-56698Y-47858D01*
X-56704Y-47891D01*
X-56712Y-47924D01*
X-56720Y-47966D01*
X-56726Y-48007D01*
X-56731Y-48052D01*
X-56739Y-48099D01*
X-56748Y-48201D01*
X-56751Y-48312D01*
Y-49764D01*
X-57222D01*
Y-46985D01*
X-56798D01*
Y-47412D01*
X-56795Y-47409D01*
X-56789Y-47398D01*
X-56781Y-47384D01*
X-56770Y-47365D01*
X-56756Y-47340D01*
X-56739Y-47312D01*
X-56701Y-47251D01*
X-56654Y-47187D01*
X-56604Y-47121D01*
X-56579Y-47093D01*
X-56554Y-47066D01*
X-56526Y-47041D01*
X-56501Y-47021D01*
X-56499D01*
X-56496Y-47016D01*
X-56488Y-47013D01*
X-56476Y-47005D01*
X-56449Y-46991D01*
X-56413Y-46971D01*
X-56366Y-46955D01*
X-56316Y-46938D01*
X-56260Y-46927D01*
X-56199Y-46924D01*
X-56174D01*
X-56158Y-46927D01*
D02*
G37*
G36*
X9574Y-49811D02*
X9572Y-49816D01*
X9566Y-49830D01*
X9558Y-49855D01*
X9547Y-49885D01*
X9533Y-49921D01*
X9516Y-49963D01*
X9497Y-50010D01*
X9477Y-50060D01*
X9436Y-50165D01*
X9391Y-50268D01*
X9369Y-50318D01*
X9350Y-50362D01*
X9330Y-50403D01*
X9311Y-50439D01*
Y-50442D01*
X9306Y-50450D01*
X9297Y-50462D01*
X9289Y-50478D01*
X9278Y-50495D01*
X9264Y-50517D01*
X9228Y-50567D01*
X9187Y-50622D01*
X9137Y-50678D01*
X9081Y-50733D01*
X9053Y-50755D01*
X9023Y-50777D01*
X9020D01*
X9015Y-50783D01*
X9006Y-50788D01*
X8995Y-50794D01*
X8979Y-50802D01*
X8959Y-50813D01*
X8937Y-50822D01*
X8912Y-50833D01*
X8857Y-50852D01*
X8790Y-50871D01*
X8716Y-50883D01*
X8635Y-50888D01*
X8610D01*
X8583Y-50885D01*
X8547Y-50880D01*
X8502Y-50874D01*
X8450Y-50863D01*
X8394Y-50849D01*
X8333Y-50830D01*
X8281Y-50387D01*
X8283D01*
X8286Y-50390D01*
X8294D01*
X8306Y-50392D01*
X8336Y-50401D01*
X8372Y-50409D01*
X8414Y-50417D01*
X8458Y-50423D01*
X8505Y-50428D01*
X8549Y-50431D01*
X8574D01*
X8605Y-50428D01*
X8638Y-50426D01*
X8680Y-50417D01*
X8721Y-50409D01*
X8760Y-50395D01*
X8799Y-50379D01*
X8804Y-50376D01*
X8815Y-50367D01*
X8832Y-50356D01*
X8854Y-50340D01*
X8879Y-50320D01*
X8904Y-50295D01*
X8929Y-50265D01*
X8954Y-50232D01*
X8957Y-50229D01*
X8962Y-50215D01*
X8968Y-50207D01*
X8973Y-50193D01*
X8979Y-50179D01*
X8987Y-50160D01*
X8998Y-50140D01*
X9009Y-50115D01*
X9020Y-50085D01*
X9031Y-50052D01*
X9045Y-50016D01*
X9062Y-49974D01*
X9078Y-49930D01*
X9095Y-49880D01*
Y-49877D01*
X9098Y-49872D01*
X9101Y-49863D01*
X9106Y-49852D01*
X9112Y-49836D01*
X9120Y-49816D01*
X9128Y-49791D01*
X9139Y-49766D01*
X8087Y-46985D01*
X8588D01*
X9167Y-48595D01*
Y-48597D01*
X9173Y-48608D01*
X9178Y-48625D01*
X9187Y-48647D01*
X9198Y-48675D01*
X9209Y-48708D01*
X9220Y-48747D01*
X9236Y-48788D01*
X9250Y-48836D01*
X9267Y-48885D01*
X9283Y-48938D01*
X9300Y-48994D01*
X9336Y-49113D01*
X9369Y-49237D01*
Y-49235D01*
X9372Y-49223D01*
X9378Y-49207D01*
X9383Y-49182D01*
X9391Y-49154D01*
X9403Y-49118D01*
X9414Y-49079D01*
X9425Y-49038D01*
X9438Y-48991D01*
X9455Y-48941D01*
X9488Y-48836D01*
X9524Y-48722D01*
X9566Y-48606D01*
X10161Y-46985D01*
X10630D01*
X9574Y-49811D01*
D02*
G37*
G36*
X-42009D02*
X-42011Y-49816D01*
X-42017Y-49830D01*
X-42025Y-49855D01*
X-42036Y-49885D01*
X-42050Y-49921D01*
X-42067Y-49963D01*
X-42086Y-50010D01*
X-42106Y-50060D01*
X-42147Y-50165D01*
X-42191Y-50268D01*
X-42214Y-50318D01*
X-42233Y-50362D01*
X-42252Y-50403D01*
X-42272Y-50439D01*
Y-50442D01*
X-42277Y-50450D01*
X-42286Y-50462D01*
X-42294Y-50478D01*
X-42305Y-50495D01*
X-42319Y-50517D01*
X-42355Y-50567D01*
X-42397Y-50622D01*
X-42446Y-50678D01*
X-42502Y-50733D01*
X-42529Y-50755D01*
X-42560Y-50777D01*
X-42563D01*
X-42568Y-50783D01*
X-42577Y-50788D01*
X-42588Y-50794D01*
X-42604Y-50802D01*
X-42624Y-50813D01*
X-42646Y-50822D01*
X-42671Y-50833D01*
X-42726Y-50852D01*
X-42793Y-50871D01*
X-42867Y-50883D01*
X-42948Y-50888D01*
X-42973D01*
X-43000Y-50885D01*
X-43036Y-50880D01*
X-43081Y-50874D01*
X-43133Y-50863D01*
X-43189Y-50849D01*
X-43250Y-50830D01*
X-43302Y-50387D01*
X-43299D01*
X-43297Y-50390D01*
X-43288D01*
X-43277Y-50392D01*
X-43247Y-50401D01*
X-43211Y-50409D01*
X-43169Y-50417D01*
X-43125Y-50423D01*
X-43078Y-50428D01*
X-43034Y-50431D01*
X-43009D01*
X-42978Y-50428D01*
X-42945Y-50426D01*
X-42903Y-50417D01*
X-42862Y-50409D01*
X-42823Y-50395D01*
X-42784Y-50379D01*
X-42779Y-50376D01*
X-42768Y-50367D01*
X-42751Y-50356D01*
X-42729Y-50340D01*
X-42704Y-50320D01*
X-42679Y-50295D01*
X-42654Y-50265D01*
X-42629Y-50232D01*
X-42626Y-50229D01*
X-42621Y-50215D01*
X-42615Y-50207D01*
X-42610Y-50193D01*
X-42604Y-50179D01*
X-42596Y-50160D01*
X-42585Y-50140D01*
X-42574Y-50115D01*
X-42563Y-50085D01*
X-42552Y-50052D01*
X-42538Y-50016D01*
X-42521Y-49974D01*
X-42505Y-49930D01*
X-42488Y-49880D01*
Y-49877D01*
X-42485Y-49872D01*
X-42482Y-49863D01*
X-42477Y-49852D01*
X-42471Y-49836D01*
X-42463Y-49816D01*
X-42455Y-49791D01*
X-42444Y-49766D01*
X-43496Y-46985D01*
X-42995D01*
X-42416Y-48595D01*
Y-48597D01*
X-42410Y-48608D01*
X-42405Y-48625D01*
X-42397Y-48647D01*
X-42385Y-48675D01*
X-42374Y-48708D01*
X-42363Y-48747D01*
X-42347Y-48788D01*
X-42333Y-48836D01*
X-42316Y-48885D01*
X-42300Y-48938D01*
X-42283Y-48994D01*
X-42247Y-49113D01*
X-42214Y-49237D01*
Y-49235D01*
X-42211Y-49223D01*
X-42205Y-49207D01*
X-42200Y-49182D01*
X-42191Y-49154D01*
X-42180Y-49118D01*
X-42169Y-49079D01*
X-42158Y-49038D01*
X-42144Y-48991D01*
X-42128Y-48941D01*
X-42095Y-48836D01*
X-42059Y-48722D01*
X-42017Y-48606D01*
X-41421Y-46985D01*
X-40953D01*
X-42009Y-49811D01*
D02*
G37*
G36*
X-31436Y-49764D02*
X-31959D01*
X-33444Y-45930D01*
X-32893D01*
X-31898Y-48717D01*
X-31895Y-48719D01*
X-31893Y-48730D01*
X-31887Y-48750D01*
X-31879Y-48775D01*
X-31868Y-48802D01*
X-31857Y-48838D01*
X-31843Y-48877D01*
X-31826Y-48921D01*
X-31812Y-48968D01*
X-31796Y-49018D01*
X-31762Y-49124D01*
X-31726Y-49235D01*
X-31696Y-49345D01*
Y-49343D01*
X-31693Y-49331D01*
X-31688Y-49315D01*
X-31679Y-49293D01*
X-31671Y-49262D01*
X-31663Y-49229D01*
X-31649Y-49190D01*
X-31638Y-49149D01*
X-31621Y-49104D01*
X-31607Y-49054D01*
X-31588Y-49002D01*
X-31571Y-48949D01*
X-31532Y-48833D01*
X-31488Y-48717D01*
X-30452Y-45930D01*
X-29934D01*
X-31436Y-49764D01*
D02*
G37*
G36*
X-16126Y-48542D02*
Y-48548D01*
Y-48564D01*
Y-48589D01*
X-16129Y-48622D01*
Y-48661D01*
X-16131Y-48708D01*
X-16137Y-48761D01*
X-16140Y-48816D01*
X-16148Y-48874D01*
X-16153Y-48935D01*
X-16176Y-49060D01*
X-16190Y-49121D01*
X-16206Y-49179D01*
X-16223Y-49235D01*
X-16245Y-49287D01*
Y-49290D01*
X-16251Y-49298D01*
X-16256Y-49312D01*
X-16267Y-49331D01*
X-16278Y-49354D01*
X-16295Y-49378D01*
X-16314Y-49406D01*
X-16334Y-49437D01*
X-16359Y-49467D01*
X-16386Y-49500D01*
X-16417Y-49534D01*
X-16450Y-49567D01*
X-16486Y-49600D01*
X-16525Y-49631D01*
X-16566Y-49661D01*
X-16613Y-49689D01*
X-16616Y-49692D01*
X-16624Y-49694D01*
X-16638Y-49703D01*
X-16658Y-49711D01*
X-16683Y-49722D01*
X-16710Y-49733D01*
X-16744Y-49744D01*
X-16782Y-49758D01*
X-16824Y-49772D01*
X-16868Y-49783D01*
X-16918Y-49794D01*
X-16968Y-49805D01*
X-17023Y-49813D01*
X-17082Y-49822D01*
X-17140Y-49825D01*
X-17203Y-49827D01*
X-17225D01*
X-17250Y-49825D01*
X-17286Y-49822D01*
X-17328Y-49819D01*
X-17378Y-49811D01*
X-17433Y-49802D01*
X-17491Y-49791D01*
X-17552Y-49775D01*
X-17616Y-49758D01*
X-17680Y-49733D01*
X-17743Y-49705D01*
X-17807Y-49672D01*
X-17868Y-49633D01*
X-17926Y-49589D01*
X-17979Y-49539D01*
X-17982Y-49536D01*
X-17990Y-49525D01*
X-18004Y-49509D01*
X-18021Y-49484D01*
X-18040Y-49453D01*
X-18062Y-49417D01*
X-18087Y-49373D01*
X-18109Y-49323D01*
X-18134Y-49265D01*
X-18159Y-49201D01*
X-18178Y-49129D01*
X-18198Y-49052D01*
X-18214Y-48968D01*
X-18225Y-48877D01*
X-18234Y-48780D01*
Y-48678D01*
X-17777Y-48614D01*
Y-48619D01*
Y-48633D01*
X-17774Y-48656D01*
X-17771Y-48686D01*
X-17768Y-48722D01*
X-17763Y-48761D01*
X-17757Y-48805D01*
X-17749Y-48855D01*
X-17730Y-48955D01*
X-17702Y-49054D01*
X-17683Y-49099D01*
X-17663Y-49143D01*
X-17638Y-49182D01*
X-17613Y-49215D01*
X-17610Y-49218D01*
X-17608Y-49221D01*
X-17597Y-49229D01*
X-17586Y-49240D01*
X-17572Y-49251D01*
X-17552Y-49265D01*
X-17533Y-49281D01*
X-17508Y-49295D01*
X-17480Y-49309D01*
X-17450Y-49326D01*
X-17417Y-49340D01*
X-17381Y-49351D01*
X-17339Y-49362D01*
X-17298Y-49367D01*
X-17253Y-49373D01*
X-17206Y-49376D01*
X-17187D01*
X-17173Y-49373D01*
X-17156D01*
X-17137Y-49370D01*
X-17093Y-49365D01*
X-17043Y-49354D01*
X-16987Y-49340D01*
X-16929Y-49318D01*
X-16876Y-49290D01*
X-16874D01*
X-16871Y-49284D01*
X-16854Y-49273D01*
X-16829Y-49254D01*
X-16802Y-49226D01*
X-16769Y-49193D01*
X-16738Y-49151D01*
X-16707Y-49104D01*
X-16685Y-49052D01*
Y-49049D01*
X-16683Y-49043D01*
X-16680Y-49035D01*
X-16677Y-49024D01*
X-16674Y-49007D01*
X-16669Y-48988D01*
X-16663Y-48963D01*
X-16658Y-48935D01*
X-16655Y-48905D01*
X-16649Y-48869D01*
X-16644Y-48830D01*
X-16641Y-48786D01*
X-16638Y-48739D01*
X-16635Y-48689D01*
X-16633Y-48633D01*
Y-48572D01*
Y-45930D01*
X-16126D01*
Y-48542D01*
D02*
G37*
G36*
X12294Y-46927D02*
X12330Y-46930D01*
X12369Y-46933D01*
X12411Y-46935D01*
X12502Y-46946D01*
X12599Y-46960D01*
X12693Y-46982D01*
X12740Y-46996D01*
X12782Y-47010D01*
X12785D01*
X12793Y-47013D01*
X12804Y-47019D01*
X12818Y-47024D01*
X12837Y-47032D01*
X12857Y-47043D01*
X12907Y-47068D01*
X12959Y-47099D01*
X13015Y-47135D01*
X13064Y-47174D01*
X13109Y-47221D01*
Y-47223D01*
X13114Y-47226D01*
X13120Y-47234D01*
X13125Y-47243D01*
X13145Y-47271D01*
X13167Y-47309D01*
X13192Y-47356D01*
X13214Y-47409D01*
X13236Y-47473D01*
X13256Y-47542D01*
Y-47548D01*
X13258Y-47556D01*
Y-47564D01*
X13261Y-47578D01*
X13264Y-47597D01*
X13267Y-47617D01*
X13269Y-47642D01*
Y-47669D01*
X13272Y-47700D01*
X13275Y-47736D01*
X13278Y-47775D01*
Y-47819D01*
X13281Y-47866D01*
Y-47919D01*
Y-47974D01*
Y-48600D01*
Y-48603D01*
Y-48608D01*
Y-48617D01*
Y-48628D01*
Y-48645D01*
Y-48661D01*
Y-48705D01*
Y-48758D01*
X13283Y-48816D01*
Y-48883D01*
Y-48949D01*
X13286Y-49090D01*
X13289Y-49160D01*
X13292Y-49229D01*
X13294Y-49290D01*
X13300Y-49345D01*
X13303Y-49392D01*
X13305Y-49415D01*
X13308Y-49431D01*
Y-49434D01*
X13311Y-49439D01*
Y-49448D01*
X13314Y-49462D01*
X13319Y-49475D01*
X13322Y-49495D01*
X13336Y-49539D01*
X13352Y-49589D01*
X13372Y-49644D01*
X13400Y-49703D01*
X13430Y-49764D01*
X12940D01*
Y-49761D01*
X12937Y-49758D01*
X12932Y-49750D01*
X12929Y-49739D01*
X12920Y-49725D01*
X12915Y-49705D01*
X12898Y-49667D01*
X12882Y-49614D01*
X12865Y-49556D01*
X12854Y-49492D01*
X12843Y-49420D01*
X12840Y-49423D01*
X12832Y-49431D01*
X12818Y-49442D01*
X12799Y-49456D01*
X12774Y-49475D01*
X12746Y-49495D01*
X12715Y-49520D01*
X12682Y-49545D01*
X12643Y-49570D01*
X12605Y-49595D01*
X12519Y-49647D01*
X12430Y-49697D01*
X12383Y-49716D01*
X12339Y-49736D01*
X12336D01*
X12328Y-49739D01*
X12314Y-49744D01*
X12297Y-49750D01*
X12275Y-49755D01*
X12247Y-49764D01*
X12217Y-49772D01*
X12184Y-49780D01*
X12148Y-49788D01*
X12106Y-49797D01*
X12017Y-49811D01*
X11923Y-49822D01*
X11821Y-49825D01*
X11801D01*
X11776Y-49822D01*
X11746D01*
X11707Y-49819D01*
X11663Y-49813D01*
X11613Y-49805D01*
X11560Y-49797D01*
X11505Y-49786D01*
X11450Y-49769D01*
X11389Y-49752D01*
X11330Y-49730D01*
X11275Y-49705D01*
X11217Y-49675D01*
X11167Y-49642D01*
X11117Y-49603D01*
X11114Y-49600D01*
X11106Y-49592D01*
X11095Y-49581D01*
X11078Y-49561D01*
X11062Y-49539D01*
X11040Y-49514D01*
X11017Y-49484D01*
X10995Y-49448D01*
X10973Y-49409D01*
X10951Y-49365D01*
X10929Y-49318D01*
X10912Y-49268D01*
X10896Y-49212D01*
X10885Y-49157D01*
X10876Y-49096D01*
X10873Y-49032D01*
Y-49029D01*
Y-49024D01*
Y-49013D01*
X10876Y-48996D01*
Y-48980D01*
X10879Y-48957D01*
X10885Y-48908D01*
X10896Y-48852D01*
X10912Y-48788D01*
X10934Y-48725D01*
X10965Y-48661D01*
Y-48658D01*
X10970Y-48653D01*
X10973Y-48645D01*
X10981Y-48633D01*
X11001Y-48603D01*
X11028Y-48564D01*
X11065Y-48520D01*
X11106Y-48476D01*
X11153Y-48431D01*
X11206Y-48390D01*
X11208D01*
X11214Y-48384D01*
X11222Y-48379D01*
X11233Y-48373D01*
X11247Y-48365D01*
X11264Y-48354D01*
X11305Y-48331D01*
X11355Y-48307D01*
X11413Y-48282D01*
X11477Y-48257D01*
X11547Y-48235D01*
X11549D01*
X11552Y-48232D01*
X11560D01*
X11571Y-48229D01*
X11588Y-48226D01*
X11605Y-48221D01*
X11627Y-48218D01*
X11652Y-48212D01*
X11679Y-48207D01*
X11710Y-48201D01*
X11743Y-48196D01*
X11782Y-48190D01*
X11823Y-48185D01*
X11868Y-48176D01*
X11915Y-48171D01*
X11965Y-48165D01*
X11970D01*
X11979Y-48162D01*
X11990D01*
X12020Y-48157D01*
X12059Y-48154D01*
X12106Y-48146D01*
X12159Y-48138D01*
X12220Y-48129D01*
X12283Y-48118D01*
X12350Y-48107D01*
X12419Y-48096D01*
X12558Y-48068D01*
X12627Y-48052D01*
X12690Y-48035D01*
X12749Y-48018D01*
X12804Y-48002D01*
Y-47996D01*
Y-47985D01*
Y-47971D01*
X12807Y-47952D01*
Y-47910D01*
Y-47894D01*
Y-47880D01*
Y-47877D01*
Y-47866D01*
Y-47852D01*
X12804Y-47833D01*
Y-47811D01*
X12799Y-47783D01*
X12790Y-47722D01*
X12774Y-47656D01*
X12749Y-47586D01*
X12735Y-47556D01*
X12715Y-47525D01*
X12696Y-47500D01*
X12671Y-47475D01*
X12668Y-47473D01*
X12663Y-47467D01*
X12652Y-47462D01*
X12638Y-47451D01*
X12618Y-47440D01*
X12596Y-47426D01*
X12569Y-47409D01*
X12538Y-47395D01*
X12502Y-47381D01*
X12461Y-47365D01*
X12419Y-47351D01*
X12369Y-47340D01*
X12316Y-47329D01*
X12261Y-47320D01*
X12200Y-47318D01*
X12137Y-47315D01*
X12106D01*
X12081Y-47318D01*
X12053D01*
X12023Y-47320D01*
X11987Y-47326D01*
X11951Y-47329D01*
X11871Y-47343D01*
X11790Y-47365D01*
X11713Y-47395D01*
X11677Y-47412D01*
X11646Y-47434D01*
X11643D01*
X11641Y-47440D01*
X11632Y-47448D01*
X11621Y-47456D01*
X11607Y-47470D01*
X11594Y-47487D01*
X11577Y-47506D01*
X11558Y-47528D01*
X11538Y-47556D01*
X11519Y-47586D01*
X11499Y-47620D01*
X11483Y-47656D01*
X11463Y-47697D01*
X11444Y-47741D01*
X11427Y-47791D01*
X11413Y-47844D01*
X10954Y-47780D01*
Y-47777D01*
X10956Y-47766D01*
X10959Y-47752D01*
X10965Y-47730D01*
X10973Y-47705D01*
X10981Y-47678D01*
X10990Y-47644D01*
X11004Y-47611D01*
X11031Y-47534D01*
X11067Y-47456D01*
X11109Y-47376D01*
X11159Y-47304D01*
X11162Y-47301D01*
X11164Y-47295D01*
X11173Y-47287D01*
X11186Y-47273D01*
X11200Y-47259D01*
X11220Y-47240D01*
X11239Y-47221D01*
X11264Y-47201D01*
X11292Y-47179D01*
X11325Y-47154D01*
X11358Y-47132D01*
X11394Y-47110D01*
X11436Y-47085D01*
X11477Y-47063D01*
X11524Y-47043D01*
X11574Y-47024D01*
X11577D01*
X11585Y-47019D01*
X11602Y-47016D01*
X11621Y-47007D01*
X11649Y-47002D01*
X11679Y-46993D01*
X11716Y-46982D01*
X11754Y-46974D01*
X11799Y-46966D01*
X11848Y-46955D01*
X11901Y-46946D01*
X11956Y-46941D01*
X12015Y-46933D01*
X12076Y-46930D01*
X12206Y-46924D01*
X12264D01*
X12294Y-46927D01*
D02*
G37*
G36*
X5846Y-47306D02*
X5849Y-47301D01*
X5860Y-47290D01*
X5879Y-47271D01*
X5904Y-47246D01*
X5937Y-47218D01*
X5976Y-47185D01*
X6023Y-47151D01*
X6073Y-47115D01*
X6131Y-47079D01*
X6195Y-47046D01*
X6261Y-47013D01*
X6336Y-46985D01*
X6414Y-46960D01*
X6497Y-46941D01*
X6585Y-46930D01*
X6677Y-46924D01*
X6707D01*
X6729Y-46927D01*
X6754D01*
X6785Y-46930D01*
X6821Y-46935D01*
X6860Y-46938D01*
X6943Y-46955D01*
X7031Y-46977D01*
X7123Y-47005D01*
X7167Y-47024D01*
X7211Y-47046D01*
X7214D01*
X7222Y-47052D01*
X7234Y-47060D01*
X7250Y-47068D01*
X7267Y-47082D01*
X7289Y-47096D01*
X7339Y-47135D01*
X7391Y-47182D01*
X7447Y-47240D01*
X7497Y-47306D01*
X7519Y-47345D01*
X7538Y-47384D01*
Y-47387D01*
X7544Y-47395D01*
X7547Y-47406D01*
X7555Y-47423D01*
X7560Y-47445D01*
X7569Y-47473D01*
X7580Y-47506D01*
X7588Y-47542D01*
X7597Y-47583D01*
X7608Y-47628D01*
X7616Y-47681D01*
X7621Y-47736D01*
X7630Y-47797D01*
X7632Y-47861D01*
X7638Y-47930D01*
Y-48005D01*
Y-49764D01*
X7167D01*
Y-48005D01*
Y-48002D01*
Y-47988D01*
Y-47971D01*
X7164Y-47946D01*
X7162Y-47919D01*
X7159Y-47886D01*
X7153Y-47847D01*
X7148Y-47808D01*
X7128Y-47725D01*
X7101Y-47639D01*
X7084Y-47600D01*
X7065Y-47561D01*
X7040Y-47525D01*
X7012Y-47492D01*
X7009Y-47489D01*
X7004Y-47484D01*
X6995Y-47478D01*
X6984Y-47467D01*
X6968Y-47453D01*
X6948Y-47440D01*
X6926Y-47426D01*
X6901Y-47409D01*
X6871Y-47395D01*
X6840Y-47381D01*
X6804Y-47368D01*
X6765Y-47354D01*
X6724Y-47343D01*
X6680Y-47337D01*
X6630Y-47332D01*
X6580Y-47329D01*
X6560D01*
X6544Y-47332D01*
X6525D01*
X6502Y-47334D01*
X6480Y-47337D01*
X6453Y-47343D01*
X6391Y-47356D01*
X6325Y-47376D01*
X6253Y-47403D01*
X6184Y-47440D01*
X6181D01*
X6176Y-47445D01*
X6167Y-47451D01*
X6153Y-47459D01*
X6123Y-47484D01*
X6084Y-47517D01*
X6040Y-47559D01*
X5998Y-47609D01*
X5957Y-47667D01*
X5923Y-47733D01*
Y-47736D01*
X5921Y-47741D01*
X5915Y-47752D01*
X5912Y-47766D01*
X5907Y-47786D01*
X5898Y-47808D01*
X5893Y-47836D01*
X5885Y-47866D01*
X5876Y-47902D01*
X5871Y-47941D01*
X5865Y-47982D01*
X5857Y-48027D01*
X5854Y-48077D01*
X5849Y-48129D01*
X5846Y-48185D01*
Y-48246D01*
Y-49764D01*
X5375D01*
Y-45930D01*
X5846D01*
Y-47306D01*
D02*
G37*
G36*
X3173Y-49764D02*
X2702D01*
Y-46985D01*
X3173D01*
Y-49764D01*
D02*
G37*
G36*
X-622D02*
X-1198D01*
X-1641Y-48603D01*
X-3251D01*
X-3669Y-49764D01*
X-4204D01*
X-2733Y-45930D01*
X-2190D01*
X-622Y-49764D01*
D02*
G37*
G36*
X-8940D02*
X-9411D01*
Y-45930D01*
X-8940D01*
Y-49764D01*
D02*
G37*
G36*
X-23128D02*
X-23599D01*
Y-45930D01*
X-23128D01*
Y-49764D01*
D02*
G37*
G36*
X-25306Y-46927D02*
X-25270Y-46930D01*
X-25231Y-46933D01*
X-25189Y-46935D01*
X-25098Y-46946D01*
X-25001Y-46960D01*
X-24907Y-46982D01*
X-24860Y-46996D01*
X-24818Y-47010D01*
X-24815D01*
X-24807Y-47013D01*
X-24796Y-47019D01*
X-24782Y-47024D01*
X-24763Y-47032D01*
X-24743Y-47043D01*
X-24693Y-47068D01*
X-24641Y-47099D01*
X-24585Y-47135D01*
X-24535Y-47174D01*
X-24491Y-47221D01*
Y-47223D01*
X-24486Y-47226D01*
X-24480Y-47234D01*
X-24475Y-47243D01*
X-24455Y-47271D01*
X-24433Y-47309D01*
X-24408Y-47356D01*
X-24386Y-47409D01*
X-24364Y-47473D01*
X-24344Y-47542D01*
Y-47548D01*
X-24342Y-47556D01*
Y-47564D01*
X-24339Y-47578D01*
X-24336Y-47597D01*
X-24333Y-47617D01*
X-24330Y-47642D01*
Y-47669D01*
X-24328Y-47700D01*
X-24325Y-47736D01*
X-24322Y-47775D01*
Y-47819D01*
X-24319Y-47866D01*
Y-47919D01*
Y-47974D01*
Y-48600D01*
Y-48603D01*
Y-48608D01*
Y-48617D01*
Y-48628D01*
Y-48645D01*
Y-48661D01*
Y-48705D01*
Y-48758D01*
X-24317Y-48816D01*
Y-48883D01*
Y-48949D01*
X-24314Y-49090D01*
X-24311Y-49160D01*
X-24308Y-49229D01*
X-24306Y-49290D01*
X-24300Y-49345D01*
X-24297Y-49392D01*
X-24295Y-49415D01*
X-24292Y-49431D01*
Y-49434D01*
X-24289Y-49439D01*
Y-49448D01*
X-24286Y-49462D01*
X-24281Y-49475D01*
X-24278Y-49495D01*
X-24264Y-49539D01*
X-24248Y-49589D01*
X-24228Y-49644D01*
X-24200Y-49703D01*
X-24170Y-49764D01*
X-24660D01*
Y-49761D01*
X-24663Y-49758D01*
X-24668Y-49750D01*
X-24671Y-49739D01*
X-24680Y-49725D01*
X-24685Y-49705D01*
X-24702Y-49667D01*
X-24718Y-49614D01*
X-24735Y-49556D01*
X-24746Y-49492D01*
X-24757Y-49420D01*
X-24760Y-49423D01*
X-24768Y-49431D01*
X-24782Y-49442D01*
X-24801Y-49456D01*
X-24826Y-49475D01*
X-24854Y-49495D01*
X-24884Y-49520D01*
X-24918Y-49545D01*
X-24957Y-49570D01*
X-24995Y-49595D01*
X-25081Y-49647D01*
X-25170Y-49697D01*
X-25217Y-49716D01*
X-25261Y-49736D01*
X-25264D01*
X-25272Y-49739D01*
X-25286Y-49744D01*
X-25303Y-49750D01*
X-25325Y-49755D01*
X-25353Y-49764D01*
X-25383Y-49772D01*
X-25416Y-49780D01*
X-25452Y-49788D01*
X-25494Y-49797D01*
X-25583Y-49811D01*
X-25677Y-49822D01*
X-25779Y-49825D01*
X-25799D01*
X-25824Y-49822D01*
X-25854D01*
X-25893Y-49819D01*
X-25937Y-49813D01*
X-25987Y-49805D01*
X-26040Y-49797D01*
X-26095Y-49786D01*
X-26150Y-49769D01*
X-26211Y-49752D01*
X-26270Y-49730D01*
X-26325Y-49705D01*
X-26383Y-49675D01*
X-26433Y-49642D01*
X-26483Y-49603D01*
X-26486Y-49600D01*
X-26494Y-49592D01*
X-26505Y-49581D01*
X-26522Y-49561D01*
X-26538Y-49539D01*
X-26560Y-49514D01*
X-26583Y-49484D01*
X-26605Y-49448D01*
X-26627Y-49409D01*
X-26649Y-49365D01*
X-26671Y-49318D01*
X-26688Y-49268D01*
X-26704Y-49212D01*
X-26715Y-49157D01*
X-26724Y-49096D01*
X-26727Y-49032D01*
Y-49029D01*
Y-49024D01*
Y-49013D01*
X-26724Y-48996D01*
Y-48980D01*
X-26721Y-48957D01*
X-26715Y-48908D01*
X-26704Y-48852D01*
X-26688Y-48788D01*
X-26666Y-48725D01*
X-26635Y-48661D01*
Y-48658D01*
X-26630Y-48653D01*
X-26627Y-48645D01*
X-26619Y-48633D01*
X-26599Y-48603D01*
X-26572Y-48564D01*
X-26535Y-48520D01*
X-26494Y-48476D01*
X-26447Y-48431D01*
X-26394Y-48390D01*
X-26391D01*
X-26386Y-48384D01*
X-26378Y-48379D01*
X-26366Y-48373D01*
X-26353Y-48365D01*
X-26336Y-48354D01*
X-26294Y-48331D01*
X-26245Y-48307D01*
X-26186Y-48282D01*
X-26123Y-48257D01*
X-26054Y-48235D01*
X-26051D01*
X-26048Y-48232D01*
X-26040D01*
X-26029Y-48229D01*
X-26012Y-48226D01*
X-25995Y-48221D01*
X-25973Y-48218D01*
X-25948Y-48212D01*
X-25921Y-48207D01*
X-25890Y-48201D01*
X-25857Y-48196D01*
X-25818Y-48190D01*
X-25776Y-48185D01*
X-25732Y-48176D01*
X-25685Y-48171D01*
X-25635Y-48165D01*
X-25630D01*
X-25621Y-48162D01*
X-25610D01*
X-25580Y-48157D01*
X-25541Y-48154D01*
X-25494Y-48146D01*
X-25441Y-48138D01*
X-25380Y-48129D01*
X-25317Y-48118D01*
X-25250Y-48107D01*
X-25181Y-48096D01*
X-25042Y-48068D01*
X-24973Y-48052D01*
X-24909Y-48035D01*
X-24851Y-48018D01*
X-24796Y-48002D01*
Y-47996D01*
Y-47985D01*
Y-47971D01*
X-24793Y-47952D01*
Y-47910D01*
Y-47894D01*
Y-47880D01*
Y-47877D01*
Y-47866D01*
Y-47852D01*
X-24796Y-47833D01*
Y-47811D01*
X-24801Y-47783D01*
X-24810Y-47722D01*
X-24826Y-47656D01*
X-24851Y-47586D01*
X-24865Y-47556D01*
X-24884Y-47525D01*
X-24904Y-47500D01*
X-24929Y-47475D01*
X-24932Y-47473D01*
X-24937Y-47467D01*
X-24948Y-47462D01*
X-24962Y-47451D01*
X-24982Y-47440D01*
X-25004Y-47426D01*
X-25031Y-47409D01*
X-25062Y-47395D01*
X-25098Y-47381D01*
X-25139Y-47365D01*
X-25181Y-47351D01*
X-25231Y-47340D01*
X-25283Y-47329D01*
X-25339Y-47320D01*
X-25400Y-47318D01*
X-25464Y-47315D01*
X-25494D01*
X-25519Y-47318D01*
X-25547D01*
X-25577Y-47320D01*
X-25613Y-47326D01*
X-25649Y-47329D01*
X-25729Y-47343D01*
X-25810Y-47365D01*
X-25887Y-47395D01*
X-25923Y-47412D01*
X-25954Y-47434D01*
X-25956D01*
X-25959Y-47440D01*
X-25968Y-47448D01*
X-25979Y-47456D01*
X-25993Y-47470D01*
X-26006Y-47487D01*
X-26023Y-47506D01*
X-26042Y-47528D01*
X-26062Y-47556D01*
X-26081Y-47586D01*
X-26101Y-47620D01*
X-26117Y-47656D01*
X-26137Y-47697D01*
X-26156Y-47741D01*
X-26173Y-47791D01*
X-26186Y-47844D01*
X-26646Y-47780D01*
Y-47777D01*
X-26643Y-47766D01*
X-26641Y-47752D01*
X-26635Y-47730D01*
X-26627Y-47705D01*
X-26619Y-47678D01*
X-26610Y-47644D01*
X-26596Y-47611D01*
X-26569Y-47534D01*
X-26533Y-47456D01*
X-26491Y-47376D01*
X-26441Y-47304D01*
X-26439Y-47301D01*
X-26436Y-47295D01*
X-26427Y-47287D01*
X-26414Y-47273D01*
X-26400Y-47259D01*
X-26380Y-47240D01*
X-26361Y-47221D01*
X-26336Y-47201D01*
X-26308Y-47179D01*
X-26275Y-47154D01*
X-26242Y-47132D01*
X-26206Y-47110D01*
X-26164Y-47085D01*
X-26123Y-47063D01*
X-26076Y-47043D01*
X-26026Y-47024D01*
X-26023D01*
X-26015Y-47019D01*
X-25998Y-47016D01*
X-25979Y-47007D01*
X-25951Y-47002D01*
X-25921Y-46993D01*
X-25885Y-46982D01*
X-25846Y-46974D01*
X-25801Y-46966D01*
X-25752Y-46955D01*
X-25699Y-46946D01*
X-25644Y-46941D01*
X-25585Y-46933D01*
X-25524Y-46930D01*
X-25394Y-46924D01*
X-25336D01*
X-25306Y-46927D01*
D02*
G37*
G36*
X-29067Y-49764D02*
X-29538D01*
Y-46985D01*
X-29067D01*
Y-49764D01*
D02*
G37*
G36*
X-59152Y-45933D02*
X-59113D01*
X-59069Y-45935D01*
X-58975Y-45938D01*
X-58878Y-45946D01*
X-58784Y-45955D01*
X-58740Y-45963D01*
X-58701Y-45969D01*
X-58698D01*
X-58687Y-45971D01*
X-58673Y-45974D01*
X-58654Y-45977D01*
X-58629Y-45983D01*
X-58601Y-45991D01*
X-58570Y-45999D01*
X-58534Y-46007D01*
X-58460Y-46032D01*
X-58382Y-46066D01*
X-58302Y-46102D01*
X-58227Y-46149D01*
X-58224Y-46151D01*
X-58219Y-46154D01*
X-58208Y-46163D01*
X-58197Y-46174D01*
X-58180Y-46185D01*
X-58161Y-46201D01*
X-58138Y-46221D01*
X-58116Y-46243D01*
X-58094Y-46268D01*
X-58069Y-46295D01*
X-58017Y-46359D01*
X-57967Y-46434D01*
X-57920Y-46517D01*
X-57917Y-46520D01*
X-57914Y-46528D01*
X-57908Y-46542D01*
X-57900Y-46559D01*
X-57892Y-46581D01*
X-57884Y-46608D01*
X-57872Y-46639D01*
X-57861Y-46672D01*
X-57850Y-46708D01*
X-57839Y-46750D01*
X-57831Y-46791D01*
X-57823Y-46838D01*
X-57809Y-46935D01*
X-57803Y-47041D01*
Y-47046D01*
Y-47063D01*
X-57806Y-47088D01*
X-57809Y-47121D01*
X-57811Y-47165D01*
X-57820Y-47212D01*
X-57828Y-47268D01*
X-57842Y-47326D01*
X-57859Y-47390D01*
X-57881Y-47456D01*
X-57906Y-47525D01*
X-57936Y-47595D01*
X-57972Y-47664D01*
X-58014Y-47733D01*
X-58061Y-47802D01*
X-58116Y-47866D01*
X-58119Y-47869D01*
X-58130Y-47880D01*
X-58149Y-47897D01*
X-58177Y-47919D01*
X-58213Y-47944D01*
X-58258Y-47974D01*
X-58310Y-48005D01*
X-58374Y-48035D01*
X-58446Y-48066D01*
X-58526Y-48096D01*
X-58620Y-48127D01*
X-58720Y-48151D01*
X-58834Y-48174D01*
X-58895Y-48182D01*
X-58958Y-48190D01*
X-59025Y-48196D01*
X-59094Y-48201D01*
X-59166Y-48204D01*
X-60221D01*
Y-49764D01*
X-60728D01*
Y-45930D01*
X-59191D01*
X-59152Y-45933D01*
D02*
G37*
G36*
X4447Y-46985D02*
X4915D01*
Y-47351D01*
X4447D01*
Y-48977D01*
Y-48980D01*
Y-48985D01*
Y-48996D01*
Y-49010D01*
Y-49043D01*
X4450Y-49085D01*
X4453Y-49126D01*
X4455Y-49171D01*
X4461Y-49207D01*
X4466Y-49221D01*
X4469Y-49235D01*
Y-49237D01*
X4475Y-49243D01*
X4480Y-49254D01*
X4488Y-49268D01*
X4513Y-49298D01*
X4530Y-49312D01*
X4549Y-49326D01*
X4552D01*
X4561Y-49331D01*
X4572Y-49337D01*
X4591Y-49343D01*
X4613Y-49348D01*
X4641Y-49354D01*
X4674Y-49356D01*
X4710Y-49359D01*
X4741D01*
X4766Y-49356D01*
X4793D01*
X4829Y-49351D01*
X4871Y-49348D01*
X4915Y-49343D01*
X4984Y-49758D01*
X4982D01*
X4976Y-49761D01*
X4965D01*
X4951Y-49764D01*
X4935Y-49766D01*
X4912Y-49772D01*
X4865Y-49777D01*
X4810Y-49786D01*
X4749Y-49794D01*
X4688Y-49797D01*
X4627Y-49799D01*
X4586D01*
X4563Y-49797D01*
X4538Y-49794D01*
X4483Y-49788D01*
X4419Y-49780D01*
X4353Y-49766D01*
X4289Y-49747D01*
X4231Y-49719D01*
X4228D01*
X4225Y-49716D01*
X4209Y-49705D01*
X4184Y-49686D01*
X4153Y-49664D01*
X4120Y-49633D01*
X4087Y-49597D01*
X4056Y-49556D01*
X4031Y-49509D01*
Y-49506D01*
X4029Y-49503D01*
X4026Y-49495D01*
X4023Y-49481D01*
X4018Y-49464D01*
X4015Y-49445D01*
X4009Y-49420D01*
X4004Y-49390D01*
X3998Y-49354D01*
X3993Y-49315D01*
X3990Y-49268D01*
X3984Y-49218D01*
X3982Y-49160D01*
X3979Y-49099D01*
X3976Y-49027D01*
Y-48952D01*
Y-47351D01*
X3627D01*
Y-46985D01*
X3976D01*
Y-46298D01*
X4447Y-46016D01*
Y-46985D01*
D02*
G37*
G36*
X-44158D02*
X-43690D01*
Y-47351D01*
X-44158D01*
Y-48977D01*
Y-48980D01*
Y-48985D01*
Y-48996D01*
Y-49010D01*
Y-49043D01*
X-44155Y-49085D01*
X-44153Y-49126D01*
X-44150Y-49171D01*
X-44144Y-49207D01*
X-44139Y-49221D01*
X-44136Y-49235D01*
Y-49237D01*
X-44131Y-49243D01*
X-44125Y-49254D01*
X-44117Y-49268D01*
X-44092Y-49298D01*
X-44075Y-49312D01*
X-44056Y-49326D01*
X-44053D01*
X-44045Y-49331D01*
X-44034Y-49337D01*
X-44014Y-49343D01*
X-43992Y-49348D01*
X-43964Y-49354D01*
X-43931Y-49356D01*
X-43895Y-49359D01*
X-43865D01*
X-43840Y-49356D01*
X-43812D01*
X-43776Y-49351D01*
X-43734Y-49348D01*
X-43690Y-49343D01*
X-43621Y-49758D01*
X-43624D01*
X-43629Y-49761D01*
X-43640D01*
X-43654Y-49764D01*
X-43671Y-49766D01*
X-43693Y-49772D01*
X-43740Y-49777D01*
X-43795Y-49786D01*
X-43856Y-49794D01*
X-43917Y-49797D01*
X-43978Y-49799D01*
X-44020D01*
X-44042Y-49797D01*
X-44067Y-49794D01*
X-44122Y-49788D01*
X-44186Y-49780D01*
X-44252Y-49766D01*
X-44316Y-49747D01*
X-44374Y-49719D01*
X-44377D01*
X-44380Y-49716D01*
X-44396Y-49705D01*
X-44421Y-49686D01*
X-44452Y-49664D01*
X-44485Y-49633D01*
X-44518Y-49597D01*
X-44549Y-49556D01*
X-44574Y-49509D01*
Y-49506D01*
X-44576Y-49503D01*
X-44579Y-49495D01*
X-44582Y-49481D01*
X-44588Y-49464D01*
X-44590Y-49445D01*
X-44596Y-49420D01*
X-44601Y-49390D01*
X-44607Y-49354D01*
X-44613Y-49315D01*
X-44615Y-49268D01*
X-44621Y-49218D01*
X-44624Y-49160D01*
X-44626Y-49099D01*
X-44629Y-49027D01*
Y-48952D01*
Y-47351D01*
X-44978D01*
Y-46985D01*
X-44629D01*
Y-46298D01*
X-44158Y-46016D01*
Y-46985D01*
D02*
G37*
G36*
X-11187Y-46927D02*
X-11148Y-46930D01*
X-11098Y-46935D01*
X-11046Y-46944D01*
X-10985Y-46955D01*
X-10918Y-46971D01*
X-10846Y-46991D01*
X-10774Y-47016D01*
X-10697Y-47046D01*
X-10622Y-47085D01*
X-10544Y-47126D01*
X-10472Y-47179D01*
X-10400Y-47237D01*
X-10331Y-47304D01*
X-10328Y-47309D01*
X-10314Y-47320D01*
X-10298Y-47343D01*
X-10276Y-47373D01*
X-10248Y-47412D01*
X-10217Y-47459D01*
X-10187Y-47514D01*
X-10154Y-47578D01*
X-10120Y-47650D01*
X-10087Y-47730D01*
X-10059Y-47819D01*
X-10032Y-47913D01*
X-10010Y-48016D01*
X-9990Y-48127D01*
X-9979Y-48246D01*
X-9976Y-48370D01*
Y-48373D01*
Y-48379D01*
Y-48387D01*
Y-48401D01*
Y-48420D01*
Y-48439D01*
X-9979Y-48464D01*
Y-48495D01*
X-12051D01*
Y-48500D01*
X-12048Y-48514D01*
Y-48539D01*
X-12043Y-48570D01*
X-12037Y-48608D01*
X-12032Y-48653D01*
X-12021Y-48700D01*
X-12010Y-48752D01*
X-11996Y-48811D01*
X-11976Y-48866D01*
X-11957Y-48924D01*
X-11932Y-48982D01*
X-11904Y-49041D01*
X-11871Y-49096D01*
X-11835Y-49149D01*
X-11794Y-49196D01*
X-11791Y-49198D01*
X-11783Y-49207D01*
X-11769Y-49218D01*
X-11752Y-49235D01*
X-11730Y-49251D01*
X-11702Y-49270D01*
X-11669Y-49293D01*
X-11633Y-49315D01*
X-11594Y-49340D01*
X-11550Y-49359D01*
X-11503Y-49381D01*
X-11450Y-49398D01*
X-11395Y-49415D01*
X-11337Y-49426D01*
X-11276Y-49434D01*
X-11212Y-49437D01*
X-11187D01*
X-11168Y-49434D01*
X-11145Y-49431D01*
X-11120Y-49428D01*
X-11090Y-49426D01*
X-11060Y-49420D01*
X-10990Y-49403D01*
X-10915Y-49378D01*
X-10877Y-49365D01*
X-10841Y-49345D01*
X-10805Y-49326D01*
X-10769Y-49301D01*
X-10766Y-49298D01*
X-10760Y-49295D01*
X-10752Y-49287D01*
X-10738Y-49276D01*
X-10722Y-49259D01*
X-10705Y-49243D01*
X-10685Y-49221D01*
X-10663Y-49196D01*
X-10641Y-49165D01*
X-10616Y-49135D01*
X-10594Y-49099D01*
X-10569Y-49060D01*
X-10544Y-49016D01*
X-10522Y-48968D01*
X-10500Y-48919D01*
X-10478Y-48863D01*
X-9993Y-48927D01*
Y-48932D01*
X-9999Y-48946D01*
X-10007Y-48968D01*
X-10015Y-48996D01*
X-10029Y-49032D01*
X-10046Y-49074D01*
X-10065Y-49121D01*
X-10090Y-49171D01*
X-10118Y-49221D01*
X-10148Y-49276D01*
X-10184Y-49331D01*
X-10223Y-49387D01*
X-10265Y-49439D01*
X-10312Y-49492D01*
X-10364Y-49542D01*
X-10420Y-49589D01*
X-10422Y-49592D01*
X-10434Y-49600D01*
X-10450Y-49611D01*
X-10475Y-49625D01*
X-10505Y-49644D01*
X-10544Y-49664D01*
X-10586Y-49686D01*
X-10636Y-49705D01*
X-10691Y-49727D01*
X-10749Y-49750D01*
X-10816Y-49769D01*
X-10885Y-49788D01*
X-10960Y-49802D01*
X-11040Y-49813D01*
X-11126Y-49822D01*
X-11215Y-49825D01*
X-11242D01*
X-11256Y-49822D01*
X-11273D01*
X-11314Y-49819D01*
X-11367Y-49813D01*
X-11425Y-49805D01*
X-11492Y-49794D01*
X-11564Y-49777D01*
X-11638Y-49758D01*
X-11719Y-49733D01*
X-11799Y-49703D01*
X-11879Y-49667D01*
X-11960Y-49625D01*
X-12037Y-49575D01*
X-12112Y-49517D01*
X-12181Y-49450D01*
X-12184Y-49445D01*
X-12195Y-49434D01*
X-12215Y-49412D01*
X-12237Y-49381D01*
X-12264Y-49343D01*
X-12292Y-49295D01*
X-12325Y-49243D01*
X-12359Y-49179D01*
X-12392Y-49107D01*
X-12422Y-49029D01*
X-12453Y-48944D01*
X-12481Y-48849D01*
X-12503Y-48747D01*
X-12519Y-48639D01*
X-12533Y-48523D01*
X-12536Y-48398D01*
Y-48395D01*
Y-48390D01*
Y-48381D01*
Y-48368D01*
X-12533Y-48351D01*
Y-48331D01*
Y-48309D01*
X-12530Y-48282D01*
X-12525Y-48223D01*
X-12517Y-48157D01*
X-12505Y-48082D01*
X-12492Y-47999D01*
X-12472Y-47916D01*
X-12447Y-47827D01*
X-12420Y-47736D01*
X-12383Y-47644D01*
X-12342Y-47556D01*
X-12295Y-47470D01*
X-12240Y-47387D01*
X-12176Y-47312D01*
X-12170Y-47306D01*
X-12159Y-47295D01*
X-12140Y-47276D01*
X-12109Y-47251D01*
X-12073Y-47221D01*
X-12032Y-47190D01*
X-11982Y-47154D01*
X-11924Y-47118D01*
X-11860Y-47082D01*
X-11788Y-47046D01*
X-11713Y-47013D01*
X-11630Y-46985D01*
X-11539Y-46960D01*
X-11445Y-46941D01*
X-11345Y-46930D01*
X-11240Y-46924D01*
X-11215D01*
X-11187Y-46927D01*
D02*
G37*
G36*
X-14178D02*
X-14140Y-46930D01*
X-14090Y-46935D01*
X-14035Y-46944D01*
X-13971Y-46955D01*
X-13902Y-46971D01*
X-13829Y-46991D01*
X-13752Y-47016D01*
X-13674Y-47046D01*
X-13597Y-47082D01*
X-13519Y-47126D01*
X-13442Y-47176D01*
X-13367Y-47234D01*
X-13298Y-47301D01*
X-13292Y-47306D01*
X-13281Y-47318D01*
X-13264Y-47340D01*
X-13239Y-47370D01*
X-13212Y-47409D01*
X-13181Y-47453D01*
X-13148Y-47509D01*
X-13115Y-47570D01*
X-13082Y-47642D01*
X-13048Y-47719D01*
X-13018Y-47802D01*
X-12990Y-47897D01*
X-12965Y-47996D01*
X-12949Y-48101D01*
X-12935Y-48215D01*
X-12932Y-48337D01*
Y-48340D01*
Y-48342D01*
Y-48351D01*
Y-48359D01*
Y-48390D01*
X-12935Y-48426D01*
X-12937Y-48470D01*
X-12940Y-48523D01*
X-12946Y-48581D01*
X-12951Y-48642D01*
X-12960Y-48708D01*
X-12971Y-48777D01*
X-12985Y-48847D01*
X-13001Y-48919D01*
X-13021Y-48988D01*
X-13040Y-49054D01*
X-13068Y-49118D01*
X-13095Y-49179D01*
X-13098Y-49182D01*
X-13104Y-49193D01*
X-13112Y-49209D01*
X-13126Y-49229D01*
X-13142Y-49257D01*
X-13162Y-49284D01*
X-13187Y-49318D01*
X-13215Y-49354D01*
X-13245Y-49392D01*
X-13281Y-49431D01*
X-13320Y-49470D01*
X-13361Y-49509D01*
X-13406Y-49547D01*
X-13455Y-49586D01*
X-13508Y-49622D01*
X-13564Y-49656D01*
X-13566Y-49658D01*
X-13577Y-49664D01*
X-13594Y-49672D01*
X-13616Y-49680D01*
X-13647Y-49694D01*
X-13680Y-49708D01*
X-13719Y-49725D01*
X-13760Y-49739D01*
X-13810Y-49755D01*
X-13860Y-49772D01*
X-13915Y-49786D01*
X-13973Y-49797D01*
X-14037Y-49808D01*
X-14101Y-49816D01*
X-14165Y-49822D01*
X-14234Y-49825D01*
X-14259D01*
X-14273Y-49822D01*
X-14289D01*
X-14331Y-49819D01*
X-14381Y-49813D01*
X-14436Y-49805D01*
X-14500Y-49794D01*
X-14569Y-49777D01*
X-14644Y-49758D01*
X-14719Y-49733D01*
X-14799Y-49703D01*
X-14876Y-49667D01*
X-14954Y-49625D01*
X-15032Y-49575D01*
X-15107Y-49520D01*
X-15176Y-49453D01*
X-15179Y-49448D01*
X-15192Y-49437D01*
X-15209Y-49415D01*
X-15231Y-49384D01*
X-15259Y-49345D01*
X-15289Y-49298D01*
X-15320Y-49243D01*
X-15353Y-49179D01*
X-15386Y-49107D01*
X-15419Y-49027D01*
X-15450Y-48938D01*
X-15478Y-48841D01*
X-15500Y-48736D01*
X-15516Y-48625D01*
X-15530Y-48503D01*
X-15533Y-48376D01*
Y-48373D01*
Y-48368D01*
Y-48356D01*
Y-48342D01*
X-15530Y-48323D01*
Y-48301D01*
X-15528Y-48276D01*
Y-48248D01*
X-15525Y-48218D01*
X-15519Y-48185D01*
X-15511Y-48113D01*
X-15497Y-48032D01*
X-15480Y-47944D01*
X-15458Y-47852D01*
X-15428Y-47758D01*
X-15394Y-47664D01*
X-15353Y-47570D01*
X-15303Y-47478D01*
X-15248Y-47390D01*
X-15181Y-47309D01*
X-15107Y-47234D01*
X-15101Y-47232D01*
X-15090Y-47221D01*
X-15070Y-47207D01*
X-15043Y-47185D01*
X-15007Y-47163D01*
X-14965Y-47138D01*
X-14918Y-47107D01*
X-14863Y-47079D01*
X-14802Y-47052D01*
X-14735Y-47021D01*
X-14663Y-46996D01*
X-14586Y-46971D01*
X-14505Y-46952D01*
X-14420Y-46938D01*
X-14328Y-46927D01*
X-14234Y-46924D01*
X-14195D01*
X-14178Y-46927D01*
D02*
G37*
G36*
X-37884D02*
X-37845Y-46930D01*
X-37795Y-46935D01*
X-37740Y-46944D01*
X-37676Y-46955D01*
X-37607Y-46971D01*
X-37535Y-46991D01*
X-37458Y-47016D01*
X-37380Y-47046D01*
X-37303Y-47082D01*
X-37225Y-47126D01*
X-37147Y-47176D01*
X-37073Y-47234D01*
X-37003Y-47301D01*
X-36998Y-47306D01*
X-36987Y-47318D01*
X-36970Y-47340D01*
X-36945Y-47370D01*
X-36917Y-47409D01*
X-36887Y-47453D01*
X-36854Y-47509D01*
X-36821Y-47570D01*
X-36787Y-47642D01*
X-36754Y-47719D01*
X-36724Y-47802D01*
X-36696Y-47897D01*
X-36671Y-47996D01*
X-36654Y-48101D01*
X-36640Y-48215D01*
X-36638Y-48337D01*
Y-48340D01*
Y-48342D01*
Y-48351D01*
Y-48359D01*
Y-48390D01*
X-36640Y-48426D01*
X-36643Y-48470D01*
X-36646Y-48523D01*
X-36652Y-48581D01*
X-36657Y-48642D01*
X-36665Y-48708D01*
X-36676Y-48777D01*
X-36690Y-48847D01*
X-36707Y-48919D01*
X-36726Y-48988D01*
X-36746Y-49054D01*
X-36773Y-49118D01*
X-36801Y-49179D01*
X-36804Y-49182D01*
X-36809Y-49193D01*
X-36818Y-49209D01*
X-36832Y-49229D01*
X-36848Y-49257D01*
X-36868Y-49284D01*
X-36893Y-49318D01*
X-36920Y-49354D01*
X-36951Y-49392D01*
X-36987Y-49431D01*
X-37025Y-49470D01*
X-37067Y-49509D01*
X-37111Y-49547D01*
X-37161Y-49586D01*
X-37214Y-49622D01*
X-37269Y-49656D01*
X-37272Y-49658D01*
X-37283Y-49664D01*
X-37300Y-49672D01*
X-37322Y-49680D01*
X-37352Y-49694D01*
X-37386Y-49708D01*
X-37424Y-49725D01*
X-37466Y-49739D01*
X-37516Y-49755D01*
X-37566Y-49772D01*
X-37621Y-49786D01*
X-37679Y-49797D01*
X-37743Y-49808D01*
X-37807Y-49816D01*
X-37870Y-49822D01*
X-37940Y-49825D01*
X-37964D01*
X-37978Y-49822D01*
X-37995D01*
X-38037Y-49819D01*
X-38086Y-49813D01*
X-38142Y-49805D01*
X-38206Y-49794D01*
X-38275Y-49777D01*
X-38350Y-49758D01*
X-38424Y-49733D01*
X-38505Y-49703D01*
X-38582Y-49667D01*
X-38660Y-49625D01*
X-38737Y-49575D01*
X-38812Y-49520D01*
X-38881Y-49453D01*
X-38884Y-49448D01*
X-38898Y-49437D01*
X-38915Y-49415D01*
X-38937Y-49384D01*
X-38965Y-49345D01*
X-38995Y-49298D01*
X-39025Y-49243D01*
X-39059Y-49179D01*
X-39092Y-49107D01*
X-39125Y-49027D01*
X-39156Y-48938D01*
X-39183Y-48841D01*
X-39206Y-48736D01*
X-39222Y-48625D01*
X-39236Y-48503D01*
X-39239Y-48376D01*
Y-48373D01*
Y-48368D01*
Y-48356D01*
Y-48342D01*
X-39236Y-48323D01*
Y-48301D01*
X-39233Y-48276D01*
Y-48248D01*
X-39230Y-48218D01*
X-39225Y-48185D01*
X-39217Y-48113D01*
X-39203Y-48032D01*
X-39186Y-47944D01*
X-39164Y-47852D01*
X-39133Y-47758D01*
X-39100Y-47664D01*
X-39059Y-47570D01*
X-39009Y-47478D01*
X-38953Y-47390D01*
X-38887Y-47309D01*
X-38812Y-47234D01*
X-38807Y-47232D01*
X-38796Y-47221D01*
X-38776Y-47207D01*
X-38748Y-47185D01*
X-38712Y-47163D01*
X-38671Y-47138D01*
X-38624Y-47107D01*
X-38568Y-47079D01*
X-38507Y-47052D01*
X-38441Y-47021D01*
X-38369Y-46996D01*
X-38291Y-46971D01*
X-38211Y-46952D01*
X-38125Y-46938D01*
X-38034Y-46927D01*
X-37940Y-46924D01*
X-37901D01*
X-37884Y-46927D01*
D02*
G37*
G36*
X-48285D02*
X-48247Y-46930D01*
X-48197Y-46935D01*
X-48144Y-46944D01*
X-48083Y-46955D01*
X-48017Y-46971D01*
X-47945Y-46991D01*
X-47873Y-47016D01*
X-47795Y-47046D01*
X-47720Y-47085D01*
X-47643Y-47126D01*
X-47571Y-47179D01*
X-47499Y-47237D01*
X-47430Y-47304D01*
X-47427Y-47309D01*
X-47413Y-47320D01*
X-47396Y-47343D01*
X-47374Y-47373D01*
X-47346Y-47412D01*
X-47316Y-47459D01*
X-47286Y-47514D01*
X-47252Y-47578D01*
X-47219Y-47650D01*
X-47186Y-47730D01*
X-47158Y-47819D01*
X-47130Y-47913D01*
X-47108Y-48016D01*
X-47089Y-48127D01*
X-47078Y-48246D01*
X-47075Y-48370D01*
Y-48373D01*
Y-48379D01*
Y-48387D01*
Y-48401D01*
Y-48420D01*
Y-48439D01*
X-47078Y-48464D01*
Y-48495D01*
X-49150D01*
Y-48500D01*
X-49147Y-48514D01*
Y-48539D01*
X-49141Y-48570D01*
X-49136Y-48608D01*
X-49130Y-48653D01*
X-49119Y-48700D01*
X-49108Y-48752D01*
X-49094Y-48811D01*
X-49075Y-48866D01*
X-49056Y-48924D01*
X-49031Y-48982D01*
X-49003Y-49041D01*
X-48970Y-49096D01*
X-48934Y-49149D01*
X-48892Y-49196D01*
X-48889Y-49198D01*
X-48881Y-49207D01*
X-48867Y-49218D01*
X-48851Y-49235D01*
X-48828Y-49251D01*
X-48801Y-49270D01*
X-48768Y-49293D01*
X-48731Y-49315D01*
X-48693Y-49340D01*
X-48648Y-49359D01*
X-48601Y-49381D01*
X-48549Y-49398D01*
X-48493Y-49415D01*
X-48435Y-49426D01*
X-48374Y-49434D01*
X-48310Y-49437D01*
X-48285D01*
X-48266Y-49434D01*
X-48244Y-49431D01*
X-48219Y-49428D01*
X-48189Y-49426D01*
X-48158Y-49420D01*
X-48089Y-49403D01*
X-48014Y-49378D01*
X-47975Y-49365D01*
X-47939Y-49345D01*
X-47903Y-49326D01*
X-47867Y-49301D01*
X-47864Y-49298D01*
X-47859Y-49295D01*
X-47851Y-49287D01*
X-47837Y-49276D01*
X-47820Y-49259D01*
X-47804Y-49243D01*
X-47784Y-49221D01*
X-47762Y-49196D01*
X-47740Y-49165D01*
X-47715Y-49135D01*
X-47693Y-49099D01*
X-47668Y-49060D01*
X-47643Y-49016D01*
X-47621Y-48968D01*
X-47599Y-48919D01*
X-47576Y-48863D01*
X-47092Y-48927D01*
Y-48932D01*
X-47097Y-48946D01*
X-47106Y-48968D01*
X-47114Y-48996D01*
X-47128Y-49032D01*
X-47144Y-49074D01*
X-47164Y-49121D01*
X-47189Y-49171D01*
X-47216Y-49221D01*
X-47247Y-49276D01*
X-47283Y-49331D01*
X-47322Y-49387D01*
X-47363Y-49439D01*
X-47410Y-49492D01*
X-47463Y-49542D01*
X-47518Y-49589D01*
X-47521Y-49592D01*
X-47532Y-49600D01*
X-47549Y-49611D01*
X-47574Y-49625D01*
X-47604Y-49644D01*
X-47643Y-49664D01*
X-47684Y-49686D01*
X-47734Y-49705D01*
X-47790Y-49727D01*
X-47848Y-49750D01*
X-47914Y-49769D01*
X-47984Y-49788D01*
X-48058Y-49802D01*
X-48139Y-49813D01*
X-48225Y-49822D01*
X-48313Y-49825D01*
X-48341D01*
X-48355Y-49822D01*
X-48371D01*
X-48413Y-49819D01*
X-48466Y-49813D01*
X-48524Y-49805D01*
X-48590Y-49794D01*
X-48662Y-49777D01*
X-48737Y-49758D01*
X-48817Y-49733D01*
X-48898Y-49703D01*
X-48978Y-49667D01*
X-49058Y-49625D01*
X-49136Y-49575D01*
X-49211Y-49517D01*
X-49280Y-49450D01*
X-49283Y-49445D01*
X-49294Y-49434D01*
X-49313Y-49412D01*
X-49335Y-49381D01*
X-49363Y-49343D01*
X-49391Y-49295D01*
X-49424Y-49243D01*
X-49457Y-49179D01*
X-49490Y-49107D01*
X-49521Y-49029D01*
X-49551Y-48944D01*
X-49579Y-48849D01*
X-49601Y-48747D01*
X-49618Y-48639D01*
X-49632Y-48523D01*
X-49635Y-48398D01*
Y-48395D01*
Y-48390D01*
Y-48381D01*
Y-48368D01*
X-49632Y-48351D01*
Y-48331D01*
Y-48309D01*
X-49629Y-48282D01*
X-49623Y-48223D01*
X-49615Y-48157D01*
X-49604Y-48082D01*
X-49590Y-47999D01*
X-49571Y-47916D01*
X-49546Y-47827D01*
X-49518Y-47736D01*
X-49482Y-47644D01*
X-49441Y-47556D01*
X-49393Y-47470D01*
X-49338Y-47387D01*
X-49274Y-47312D01*
X-49269Y-47306D01*
X-49258Y-47295D01*
X-49238Y-47276D01*
X-49208Y-47251D01*
X-49172Y-47221D01*
X-49130Y-47190D01*
X-49081Y-47154D01*
X-49022Y-47118D01*
X-48959Y-47082D01*
X-48887Y-47046D01*
X-48812Y-47013D01*
X-48729Y-46985D01*
X-48637Y-46960D01*
X-48543Y-46941D01*
X-48443Y-46930D01*
X-48338Y-46924D01*
X-48313D01*
X-48285Y-46927D01*
D02*
G37*
G36*
X-54255D02*
X-54216Y-46930D01*
X-54166Y-46935D01*
X-54111Y-46944D01*
X-54047Y-46955D01*
X-53978Y-46971D01*
X-53906Y-46991D01*
X-53828Y-47016D01*
X-53751Y-47046D01*
X-53673Y-47082D01*
X-53596Y-47126D01*
X-53518Y-47176D01*
X-53443Y-47234D01*
X-53374Y-47301D01*
X-53369Y-47306D01*
X-53357Y-47318D01*
X-53341Y-47340D01*
X-53316Y-47370D01*
X-53288Y-47409D01*
X-53258Y-47453D01*
X-53224Y-47509D01*
X-53191Y-47570D01*
X-53158Y-47642D01*
X-53125Y-47719D01*
X-53094Y-47802D01*
X-53066Y-47897D01*
X-53042Y-47996D01*
X-53025Y-48101D01*
X-53011Y-48215D01*
X-53008Y-48337D01*
Y-48340D01*
Y-48342D01*
Y-48351D01*
Y-48359D01*
Y-48390D01*
X-53011Y-48426D01*
X-53014Y-48470D01*
X-53017Y-48523D01*
X-53022Y-48581D01*
X-53028Y-48642D01*
X-53036Y-48708D01*
X-53047Y-48777D01*
X-53061Y-48847D01*
X-53078Y-48919D01*
X-53097Y-48988D01*
X-53116Y-49054D01*
X-53144Y-49118D01*
X-53172Y-49179D01*
X-53175Y-49182D01*
X-53180Y-49193D01*
X-53188Y-49209D01*
X-53202Y-49229D01*
X-53219Y-49257D01*
X-53238Y-49284D01*
X-53263Y-49318D01*
X-53291Y-49354D01*
X-53321Y-49392D01*
X-53357Y-49431D01*
X-53396Y-49470D01*
X-53438Y-49509D01*
X-53482Y-49547D01*
X-53532Y-49586D01*
X-53584Y-49622D01*
X-53640Y-49656D01*
X-53643Y-49658D01*
X-53654Y-49664D01*
X-53670Y-49672D01*
X-53693Y-49680D01*
X-53723Y-49694D01*
X-53756Y-49708D01*
X-53795Y-49725D01*
X-53837Y-49739D01*
X-53886Y-49755D01*
X-53936Y-49772D01*
X-53992Y-49786D01*
X-54050Y-49797D01*
X-54114Y-49808D01*
X-54177Y-49816D01*
X-54241Y-49822D01*
X-54310Y-49825D01*
X-54335D01*
X-54349Y-49822D01*
X-54366D01*
X-54407Y-49819D01*
X-54457Y-49813D01*
X-54513Y-49805D01*
X-54576Y-49794D01*
X-54645Y-49777D01*
X-54720Y-49758D01*
X-54795Y-49733D01*
X-54875Y-49703D01*
X-54953Y-49667D01*
X-55031Y-49625D01*
X-55108Y-49575D01*
X-55183Y-49520D01*
X-55252Y-49453D01*
X-55255Y-49448D01*
X-55269Y-49437D01*
X-55285Y-49415D01*
X-55308Y-49384D01*
X-55335Y-49345D01*
X-55366Y-49298D01*
X-55396Y-49243D01*
X-55429Y-49179D01*
X-55463Y-49107D01*
X-55496Y-49027D01*
X-55526Y-48938D01*
X-55554Y-48841D01*
X-55576Y-48736D01*
X-55593Y-48625D01*
X-55607Y-48503D01*
X-55609Y-48376D01*
Y-48373D01*
Y-48368D01*
Y-48356D01*
Y-48342D01*
X-55607Y-48323D01*
Y-48301D01*
X-55604Y-48276D01*
Y-48248D01*
X-55601Y-48218D01*
X-55595Y-48185D01*
X-55587Y-48113D01*
X-55573Y-48032D01*
X-55557Y-47944D01*
X-55535Y-47852D01*
X-55504Y-47758D01*
X-55471Y-47664D01*
X-55429Y-47570D01*
X-55379Y-47478D01*
X-55324Y-47390D01*
X-55258Y-47309D01*
X-55183Y-47234D01*
X-55177Y-47232D01*
X-55166Y-47221D01*
X-55147Y-47207D01*
X-55119Y-47185D01*
X-55083Y-47163D01*
X-55041Y-47138D01*
X-54994Y-47107D01*
X-54939Y-47079D01*
X-54878Y-47052D01*
X-54812Y-47021D01*
X-54740Y-46996D01*
X-54662Y-46971D01*
X-54582Y-46952D01*
X-54496Y-46938D01*
X-54404Y-46927D01*
X-54310Y-46924D01*
X-54272D01*
X-54255Y-46927D01*
D02*
G37*
G36*
X-6179Y-50891D02*
X-6589D01*
Y-45866D01*
X-6179D01*
Y-50891D01*
D02*
G37*
G36*
X-20367D02*
X-20777D01*
Y-45866D01*
X-20367D01*
Y-50891D01*
D02*
G37*
%LPC*%
G36*
X-36425Y-213478D02*
X-36452D01*
X-36480Y-213484D01*
X-36524Y-213489D01*
X-36578Y-213495D01*
X-36638Y-213506D01*
X-36704Y-213527D01*
X-36775Y-213549D01*
X-36856Y-213577D01*
X-36938Y-213615D01*
X-37026Y-213658D01*
X-37113Y-213713D01*
X-37206Y-213779D01*
X-37293Y-213850D01*
X-37381Y-213937D01*
X-37468Y-214035D01*
X-37473Y-214041D01*
X-37490Y-214063D01*
X-37512Y-214095D01*
X-37539Y-214139D01*
X-37572Y-214194D01*
X-37610Y-214265D01*
X-37654Y-214347D01*
X-37692Y-214445D01*
X-37736Y-214548D01*
X-37779Y-214669D01*
X-37817Y-214800D01*
X-37850Y-214947D01*
X-37878Y-215100D01*
X-37899Y-215269D01*
X-37916Y-215449D01*
X-37921Y-215640D01*
Y-215646D01*
Y-215651D01*
Y-215668D01*
Y-215684D01*
X-37916Y-215739D01*
Y-215815D01*
X-37910Y-215903D01*
X-37899Y-216001D01*
X-37883Y-216115D01*
X-37867Y-216230D01*
X-37845Y-216356D01*
X-37817Y-216487D01*
X-37785Y-216618D01*
X-37741Y-216743D01*
X-37692Y-216869D01*
X-37637Y-216989D01*
X-37572Y-217104D01*
X-37495Y-217202D01*
X-37490Y-217208D01*
X-37473Y-217224D01*
X-37452Y-217246D01*
X-37419Y-217279D01*
X-37375Y-217317D01*
X-37326Y-217360D01*
X-37271Y-217404D01*
X-37206Y-217453D01*
X-37135Y-217502D01*
X-37059Y-217546D01*
X-36971Y-217590D01*
X-36878Y-217628D01*
X-36786Y-217655D01*
X-36682Y-217683D01*
X-36573Y-217699D01*
X-36463Y-217704D01*
X-36436D01*
X-36403Y-217699D01*
X-36360Y-217693D01*
X-36305Y-217688D01*
X-36245Y-217677D01*
X-36174Y-217661D01*
X-36098Y-217639D01*
X-36021Y-217612D01*
X-35934Y-217579D01*
X-35846Y-217535D01*
X-35759Y-217486D01*
X-35666Y-217426D01*
X-35579Y-217355D01*
X-35491Y-217279D01*
X-35410Y-217186D01*
X-35404Y-217180D01*
X-35388Y-217158D01*
X-35366Y-217131D01*
X-35339Y-217087D01*
X-35306Y-217033D01*
X-35268Y-216962D01*
X-35230Y-216880D01*
X-35186Y-216787D01*
X-35148Y-216678D01*
X-35109Y-216558D01*
X-35071Y-216427D01*
X-35038Y-216279D01*
X-35006Y-216121D01*
X-34984Y-215946D01*
X-34973Y-215761D01*
X-34967Y-215564D01*
Y-215559D01*
Y-215553D01*
Y-215537D01*
Y-215520D01*
Y-215466D01*
X-34973Y-215395D01*
X-34978Y-215307D01*
X-34989Y-215209D01*
X-35006Y-215094D01*
X-35022Y-214980D01*
X-35044Y-214854D01*
X-35071Y-214723D01*
X-35109Y-214592D01*
X-35148Y-214467D01*
X-35197Y-214341D01*
X-35257Y-214221D01*
X-35322Y-214106D01*
X-35399Y-214002D01*
X-35404Y-213997D01*
X-35421Y-213981D01*
X-35442Y-213953D01*
X-35475Y-213921D01*
X-35519Y-213882D01*
X-35568Y-213839D01*
X-35623Y-213790D01*
X-35688Y-213740D01*
X-35759Y-213691D01*
X-35841Y-213642D01*
X-35923Y-213598D01*
X-36016Y-213560D01*
X-36108Y-213527D01*
X-36212Y-213500D01*
X-36316Y-213484D01*
X-36425Y-213478D01*
D02*
G37*
G36*
X52922Y-215602D02*
X52917D01*
X52900Y-215613D01*
X52868Y-215624D01*
X52829Y-215635D01*
X52775Y-215657D01*
X52709Y-215673D01*
X52633Y-215701D01*
X52540Y-215722D01*
X52442Y-215750D01*
X52327Y-215782D01*
X52201Y-215810D01*
X52070Y-215837D01*
X51918Y-215870D01*
X51759Y-215897D01*
X51590Y-215930D01*
X51404Y-215957D01*
X51399D01*
X51377Y-215963D01*
X51350D01*
X51311Y-215973D01*
X51262Y-215979D01*
X51213Y-215990D01*
X51088Y-216012D01*
X50957Y-216039D01*
X50820Y-216072D01*
X50700Y-216105D01*
X50645Y-216121D01*
X50596Y-216143D01*
X50585Y-216148D01*
X50558Y-216159D01*
X50514Y-216186D01*
X50465Y-216219D01*
X50405Y-216258D01*
X50345Y-216312D01*
X50285Y-216372D01*
X50230Y-216443D01*
X50225Y-216454D01*
X50209Y-216476D01*
X50192Y-216519D01*
X50170Y-216569D01*
X50143Y-216634D01*
X50127Y-216711D01*
X50110Y-216792D01*
X50105Y-216880D01*
Y-216885D01*
Y-216896D01*
Y-216918D01*
X50110Y-216940D01*
X50116Y-216973D01*
X50121Y-217011D01*
X50138Y-217098D01*
X50170Y-217191D01*
X50225Y-217295D01*
X50252Y-217350D01*
X50291Y-217399D01*
X50334Y-217448D01*
X50383Y-217497D01*
X50389D01*
X50394Y-217508D01*
X50411Y-217519D01*
X50438Y-217535D01*
X50465Y-217551D01*
X50498Y-217573D01*
X50542Y-217595D01*
X50591Y-217617D01*
X50645Y-217644D01*
X50705Y-217666D01*
X50771Y-217688D01*
X50847Y-217704D01*
X50924Y-217721D01*
X51011Y-217732D01*
X51104Y-217737D01*
X51202Y-217743D01*
X51257D01*
X51295Y-217737D01*
X51339D01*
X51393Y-217732D01*
X51459Y-217721D01*
X51525Y-217715D01*
X51672Y-217688D01*
X51836Y-217644D01*
X51999Y-217590D01*
X52158Y-217513D01*
X52163Y-217508D01*
X52174Y-217502D01*
X52196Y-217491D01*
X52223Y-217470D01*
X52262Y-217448D01*
X52300Y-217415D01*
X52393Y-217344D01*
X52491Y-217251D01*
X52589Y-217142D01*
X52688Y-217016D01*
X52769Y-216869D01*
Y-216863D01*
X52775Y-216853D01*
X52786Y-216836D01*
X52791Y-216809D01*
X52808Y-216776D01*
X52819Y-216738D01*
X52829Y-216689D01*
X52846Y-216634D01*
X52862Y-216574D01*
X52873Y-216509D01*
X52890Y-216432D01*
X52900Y-216350D01*
X52906Y-216258D01*
X52917Y-216159D01*
X52922Y-216055D01*
Y-215946D01*
Y-215602D01*
D02*
G37*
G36*
X29471D02*
X29466D01*
X29450Y-215613D01*
X29417Y-215624D01*
X29379Y-215635D01*
X29324Y-215657D01*
X29259Y-215673D01*
X29182Y-215701D01*
X29089Y-215722D01*
X28991Y-215750D01*
X28876Y-215782D01*
X28751Y-215810D01*
X28620Y-215837D01*
X28467Y-215870D01*
X28309Y-215897D01*
X28139Y-215930D01*
X27954Y-215957D01*
X27948D01*
X27926Y-215963D01*
X27899D01*
X27861Y-215973D01*
X27812Y-215979D01*
X27763Y-215990D01*
X27637Y-216012D01*
X27506Y-216039D01*
X27369Y-216072D01*
X27249Y-216105D01*
X27195Y-216121D01*
X27146Y-216143D01*
X27135Y-216148D01*
X27107Y-216159D01*
X27064Y-216186D01*
X27014Y-216219D01*
X26954Y-216258D01*
X26894Y-216312D01*
X26834Y-216372D01*
X26780Y-216443D01*
X26774Y-216454D01*
X26758Y-216476D01*
X26741Y-216519D01*
X26720Y-216569D01*
X26692Y-216634D01*
X26676Y-216711D01*
X26660Y-216792D01*
X26654Y-216880D01*
Y-216885D01*
Y-216896D01*
Y-216918D01*
X26660Y-216940D01*
X26665Y-216973D01*
X26671Y-217011D01*
X26687Y-217098D01*
X26720Y-217191D01*
X26774Y-217295D01*
X26802Y-217350D01*
X26840Y-217399D01*
X26884Y-217448D01*
X26933Y-217497D01*
X26938D01*
X26944Y-217508D01*
X26960Y-217519D01*
X26987Y-217535D01*
X27014Y-217551D01*
X27047Y-217573D01*
X27091Y-217595D01*
X27140Y-217617D01*
X27195Y-217644D01*
X27255Y-217666D01*
X27320Y-217688D01*
X27397Y-217704D01*
X27473Y-217721D01*
X27560Y-217732D01*
X27653Y-217737D01*
X27752Y-217743D01*
X27806D01*
X27845Y-217737D01*
X27888D01*
X27943Y-217732D01*
X28008Y-217721D01*
X28074Y-217715D01*
X28221Y-217688D01*
X28385Y-217644D01*
X28549Y-217590D01*
X28707Y-217513D01*
X28713Y-217508D01*
X28723Y-217502D01*
X28745Y-217491D01*
X28773Y-217470D01*
X28811Y-217448D01*
X28849Y-217415D01*
X28942Y-217344D01*
X29040Y-217251D01*
X29138Y-217142D01*
X29237Y-217016D01*
X29319Y-216869D01*
Y-216863D01*
X29324Y-216853D01*
X29335Y-216836D01*
X29340Y-216809D01*
X29357Y-216776D01*
X29368Y-216738D01*
X29379Y-216689D01*
X29395Y-216634D01*
X29412Y-216574D01*
X29422Y-216509D01*
X29439Y-216432D01*
X29450Y-216350D01*
X29455Y-216258D01*
X29466Y-216159D01*
X29471Y-216055D01*
Y-215946D01*
Y-215602D01*
D02*
G37*
G36*
X6785D02*
X6780D01*
X6763Y-215613D01*
X6731Y-215624D01*
X6692Y-215635D01*
X6638Y-215657D01*
X6572Y-215673D01*
X6496Y-215701D01*
X6403Y-215722D01*
X6305Y-215750D01*
X6190Y-215782D01*
X6064Y-215810D01*
X5934Y-215837D01*
X5781Y-215870D01*
X5622Y-215897D01*
X5453Y-215930D01*
X5267Y-215957D01*
X5262D01*
X5240Y-215963D01*
X5213D01*
X5175Y-215973D01*
X5125Y-215979D01*
X5076Y-215990D01*
X4951Y-216012D01*
X4820Y-216039D01*
X4683Y-216072D01*
X4563Y-216105D01*
X4508Y-216121D01*
X4459Y-216143D01*
X4448Y-216148D01*
X4421Y-216159D01*
X4377Y-216186D01*
X4328Y-216219D01*
X4268Y-216258D01*
X4208Y-216312D01*
X4148Y-216372D01*
X4093Y-216443D01*
X4088Y-216454D01*
X4072Y-216476D01*
X4055Y-216519D01*
X4033Y-216569D01*
X4006Y-216634D01*
X3990Y-216711D01*
X3973Y-216792D01*
X3968Y-216880D01*
Y-216885D01*
Y-216896D01*
Y-216918D01*
X3973Y-216940D01*
X3979Y-216973D01*
X3984Y-217011D01*
X4001Y-217098D01*
X4033Y-217191D01*
X4088Y-217295D01*
X4115Y-217350D01*
X4154Y-217399D01*
X4197Y-217448D01*
X4246Y-217497D01*
X4252D01*
X4257Y-217508D01*
X4274Y-217519D01*
X4301Y-217535D01*
X4328Y-217551D01*
X4361Y-217573D01*
X4405Y-217595D01*
X4454Y-217617D01*
X4508Y-217644D01*
X4569Y-217666D01*
X4634Y-217688D01*
X4710Y-217704D01*
X4787Y-217721D01*
X4874Y-217732D01*
X4967Y-217737D01*
X5065Y-217743D01*
X5120D01*
X5158Y-217737D01*
X5202D01*
X5256Y-217732D01*
X5322Y-217721D01*
X5387Y-217715D01*
X5535Y-217688D01*
X5699Y-217644D01*
X5863Y-217590D01*
X6021Y-217513D01*
X6026Y-217508D01*
X6037Y-217502D01*
X6059Y-217491D01*
X6086Y-217470D01*
X6125Y-217448D01*
X6163Y-217415D01*
X6256Y-217344D01*
X6354Y-217251D01*
X6452Y-217142D01*
X6550Y-217016D01*
X6632Y-216869D01*
Y-216863D01*
X6638Y-216853D01*
X6649Y-216836D01*
X6654Y-216809D01*
X6671Y-216776D01*
X6681Y-216738D01*
X6692Y-216689D01*
X6709Y-216634D01*
X6725Y-216574D01*
X6736Y-216509D01*
X6752Y-216432D01*
X6763Y-216350D01*
X6769Y-216258D01*
X6780Y-216159D01*
X6785Y-216055D01*
Y-215946D01*
Y-215602D01*
D02*
G37*
G36*
X-9813Y-211682D02*
X-11468D01*
Y-213970D01*
X-9731D01*
X-9677Y-213964D01*
X-9546D01*
X-9469Y-213959D01*
X-9316Y-213948D01*
X-9158Y-213931D01*
X-9082Y-213921D01*
X-9010Y-213910D01*
X-8945Y-213899D01*
X-8885Y-213882D01*
X-8879D01*
X-8869Y-213877D01*
X-8847Y-213872D01*
X-8819Y-213861D01*
X-8792Y-213850D01*
X-8754Y-213833D01*
X-8672Y-213795D01*
X-8579Y-213746D01*
X-8481Y-213680D01*
X-8394Y-213604D01*
X-8312Y-213511D01*
Y-213506D01*
X-8301Y-213500D01*
X-8295Y-213484D01*
X-8279Y-213462D01*
X-8268Y-213435D01*
X-8252Y-213407D01*
X-8213Y-213326D01*
X-8175Y-213233D01*
X-8148Y-213118D01*
X-8126Y-212987D01*
X-8115Y-212845D01*
Y-212840D01*
Y-212829D01*
Y-212807D01*
Y-212779D01*
X-8121Y-212747D01*
X-8126Y-212708D01*
X-8137Y-212621D01*
X-8159Y-212517D01*
X-8191Y-212408D01*
X-8241Y-212294D01*
X-8301Y-212184D01*
Y-212179D01*
X-8312Y-212173D01*
X-8333Y-212135D01*
X-8377Y-212086D01*
X-8432Y-212026D01*
X-8503Y-211960D01*
X-8596Y-211895D01*
X-8694Y-211840D01*
X-8814Y-211791D01*
X-8819D01*
X-8830Y-211786D01*
X-8852Y-211780D01*
X-8879Y-211775D01*
X-8918Y-211764D01*
X-8961Y-211758D01*
X-9016Y-211748D01*
X-9082Y-211737D01*
X-9158Y-211726D01*
X-9240Y-211715D01*
X-9333Y-211709D01*
X-9436Y-211698D01*
X-9551Y-211693D01*
X-9677Y-211687D01*
X-9813Y-211682D01*
D02*
G37*
G36*
X-9595Y-214860D02*
X-11468D01*
Y-217459D01*
X-9426D01*
X-9322Y-217453D01*
X-9207D01*
X-9098Y-217442D01*
X-8994Y-217437D01*
X-8945Y-217431D01*
X-8907Y-217426D01*
X-8901D01*
X-8890Y-217420D01*
X-8874D01*
X-8847Y-217415D01*
X-8787Y-217399D01*
X-8705Y-217377D01*
X-8617Y-217350D01*
X-8519Y-217317D01*
X-8426Y-217273D01*
X-8333Y-217224D01*
X-8328D01*
X-8323Y-217218D01*
X-8295Y-217197D01*
X-8252Y-217164D01*
X-8197Y-217115D01*
X-8137Y-217055D01*
X-8071Y-216984D01*
X-8011Y-216902D01*
X-7951Y-216804D01*
Y-216798D01*
X-7946Y-216792D01*
X-7935Y-216776D01*
X-7930Y-216754D01*
X-7902Y-216694D01*
X-7875Y-216618D01*
X-7848Y-216525D01*
X-7820Y-216416D01*
X-7804Y-216290D01*
X-7798Y-216159D01*
Y-216154D01*
Y-216143D01*
Y-216115D01*
X-7804Y-216088D01*
Y-216050D01*
X-7809Y-216012D01*
X-7826Y-215908D01*
X-7853Y-215793D01*
X-7891Y-215673D01*
X-7946Y-215548D01*
X-8017Y-215428D01*
Y-215422D01*
X-8028Y-215411D01*
X-8039Y-215400D01*
X-8055Y-215378D01*
X-8104Y-215324D01*
X-8175Y-215258D01*
X-8263Y-215182D01*
X-8366Y-215111D01*
X-8486Y-215045D01*
X-8623Y-214991D01*
X-8628D01*
X-8639Y-214985D01*
X-8661Y-214980D01*
X-8694Y-214969D01*
X-8732Y-214958D01*
X-8781Y-214947D01*
X-8836Y-214936D01*
X-8901Y-214925D01*
X-8978Y-214914D01*
X-9060Y-214903D01*
X-9153Y-214893D01*
X-9251Y-214882D01*
X-9354Y-214871D01*
X-9469Y-214865D01*
X-9595Y-214860D01*
D02*
G37*
G36*
X-23529Y-215602D02*
X-23534D01*
X-23550Y-215613D01*
X-23583Y-215624D01*
X-23621Y-215635D01*
X-23676Y-215657D01*
X-23742Y-215673D01*
X-23818Y-215701D01*
X-23911Y-215722D01*
X-24009Y-215750D01*
X-24124Y-215782D01*
X-24249Y-215810D01*
X-24380Y-215837D01*
X-24533Y-215870D01*
X-24692Y-215897D01*
X-24861Y-215930D01*
X-25047Y-215957D01*
X-25052D01*
X-25074Y-215963D01*
X-25101D01*
X-25139Y-215973D01*
X-25188Y-215979D01*
X-25238Y-215990D01*
X-25363Y-216012D01*
X-25494Y-216039D01*
X-25631Y-216072D01*
X-25751Y-216105D01*
X-25806Y-216121D01*
X-25855Y-216143D01*
X-25866Y-216148D01*
X-25893Y-216159D01*
X-25936Y-216186D01*
X-25986Y-216219D01*
X-26046Y-216258D01*
X-26106Y-216312D01*
X-26166Y-216372D01*
X-26221Y-216443D01*
X-26226Y-216454D01*
X-26242Y-216476D01*
X-26259Y-216519D01*
X-26281Y-216569D01*
X-26308Y-216634D01*
X-26324Y-216711D01*
X-26341Y-216792D01*
X-26346Y-216880D01*
Y-216885D01*
Y-216896D01*
Y-216918D01*
X-26341Y-216940D01*
X-26335Y-216973D01*
X-26330Y-217011D01*
X-26313Y-217098D01*
X-26281Y-217191D01*
X-26226Y-217295D01*
X-26199Y-217350D01*
X-26160Y-217399D01*
X-26117Y-217448D01*
X-26068Y-217497D01*
X-26062D01*
X-26057Y-217508D01*
X-26040Y-217519D01*
X-26013Y-217535D01*
X-25986Y-217551D01*
X-25953Y-217573D01*
X-25909Y-217595D01*
X-25860Y-217617D01*
X-25806Y-217644D01*
X-25745Y-217666D01*
X-25680Y-217688D01*
X-25604Y-217704D01*
X-25527Y-217721D01*
X-25440Y-217732D01*
X-25347Y-217737D01*
X-25249Y-217743D01*
X-25194D01*
X-25156Y-217737D01*
X-25112D01*
X-25058Y-217732D01*
X-24992Y-217721D01*
X-24926Y-217715D01*
X-24779Y-217688D01*
X-24615Y-217644D01*
X-24451Y-217590D01*
X-24293Y-217513D01*
X-24288Y-217508D01*
X-24277Y-217502D01*
X-24255Y-217491D01*
X-24228Y-217470D01*
X-24189Y-217448D01*
X-24151Y-217415D01*
X-24058Y-217344D01*
X-23960Y-217251D01*
X-23862Y-217142D01*
X-23764Y-217016D01*
X-23682Y-216869D01*
Y-216863D01*
X-23676Y-216853D01*
X-23665Y-216836D01*
X-23660Y-216809D01*
X-23643Y-216776D01*
X-23632Y-216738D01*
X-23621Y-216689D01*
X-23605Y-216634D01*
X-23589Y-216574D01*
X-23578Y-216509D01*
X-23561Y-216432D01*
X-23550Y-216350D01*
X-23545Y-216258D01*
X-23534Y-216159D01*
X-23529Y-216055D01*
Y-215946D01*
Y-215602D01*
D02*
G37*
G36*
X-45434Y-211584D02*
Y-211595D01*
X-45440Y-211616D01*
X-45451Y-211655D01*
X-45461Y-211709D01*
X-45478Y-211775D01*
X-45494Y-211851D01*
X-45516Y-211939D01*
X-45538Y-212037D01*
X-45571Y-212146D01*
X-45598Y-212261D01*
X-45631Y-212375D01*
X-45669Y-212501D01*
X-45751Y-212763D01*
X-45844Y-213031D01*
X-46674Y-215247D01*
X-44107D01*
X-44899Y-213156D01*
Y-213151D01*
X-44905Y-213145D01*
X-44916Y-213112D01*
X-44932Y-213063D01*
X-44959Y-212998D01*
X-44987Y-212916D01*
X-45025Y-212823D01*
X-45057Y-212714D01*
X-45101Y-212599D01*
X-45145Y-212479D01*
X-45189Y-212354D01*
X-45276Y-212091D01*
X-45363Y-211829D01*
X-45401Y-211704D01*
X-45434Y-211584D01*
D02*
G37*
G36*
X-3256Y-213517D02*
X-3316D01*
X-3359Y-213522D01*
X-3419Y-213527D01*
X-3480Y-213538D01*
X-3551Y-213555D01*
X-3627Y-213571D01*
X-3714Y-213593D01*
X-3796Y-213620D01*
X-3889Y-213658D01*
X-3976Y-213697D01*
X-4069Y-213746D01*
X-4162Y-213806D01*
X-4249Y-213872D01*
X-4331Y-213948D01*
X-4337Y-213953D01*
X-4348Y-213970D01*
X-4369Y-213992D01*
X-4402Y-214024D01*
X-4435Y-214068D01*
X-4473Y-214123D01*
X-4512Y-214183D01*
X-4555Y-214248D01*
X-4599Y-214325D01*
X-4642Y-214412D01*
X-4681Y-214505D01*
X-4719Y-214609D01*
X-4752Y-214712D01*
X-4779Y-214832D01*
X-4801Y-214952D01*
X-4812Y-215084D01*
X-1749D01*
Y-215078D01*
X-1754Y-215051D01*
Y-215018D01*
X-1765Y-214969D01*
X-1771Y-214914D01*
X-1787Y-214849D01*
X-1798Y-214772D01*
X-1820Y-214696D01*
X-1863Y-214527D01*
X-1924Y-214357D01*
X-2005Y-214194D01*
X-2055Y-214117D01*
X-2104Y-214052D01*
X-2109Y-214046D01*
X-2125Y-214030D01*
X-2147Y-214002D01*
X-2186Y-213970D01*
X-2229Y-213926D01*
X-2278Y-213882D01*
X-2344Y-213833D01*
X-2415Y-213784D01*
X-2491Y-213735D01*
X-2579Y-213686D01*
X-2671Y-213642D01*
X-2775Y-213598D01*
X-2884Y-213566D01*
X-3005Y-213538D01*
X-3125Y-213522D01*
X-3256Y-213517D01*
D02*
G37*
G36*
X766Y-47315D02*
X752D01*
X735Y-47318D01*
X713D01*
X688Y-47323D01*
X655Y-47329D01*
X622Y-47337D01*
X583Y-47348D01*
X541Y-47362D01*
X500Y-47379D01*
X458Y-47398D01*
X414Y-47423D01*
X369Y-47453D01*
X325Y-47487D01*
X284Y-47528D01*
X242Y-47572D01*
X239Y-47575D01*
X234Y-47583D01*
X223Y-47600D01*
X209Y-47620D01*
X195Y-47647D01*
X176Y-47683D01*
X159Y-47722D01*
X140Y-47769D01*
X120Y-47822D01*
X101Y-47880D01*
X81Y-47946D01*
X68Y-48021D01*
X54Y-48099D01*
X43Y-48185D01*
X37Y-48279D01*
X34Y-48379D01*
Y-48381D01*
Y-48384D01*
Y-48392D01*
Y-48401D01*
X37Y-48428D01*
Y-48464D01*
X43Y-48509D01*
X45Y-48561D01*
X54Y-48617D01*
X62Y-48678D01*
X73Y-48741D01*
X90Y-48805D01*
X106Y-48872D01*
X129Y-48938D01*
X154Y-49002D01*
X184Y-49063D01*
X220Y-49121D01*
X259Y-49174D01*
X261Y-49176D01*
X270Y-49185D01*
X281Y-49198D01*
X298Y-49215D01*
X320Y-49235D01*
X345Y-49257D01*
X375Y-49281D01*
X408Y-49304D01*
X447Y-49329D01*
X486Y-49354D01*
X530Y-49376D01*
X577Y-49395D01*
X627Y-49412D01*
X677Y-49426D01*
X732Y-49434D01*
X788Y-49437D01*
X802D01*
X818Y-49434D01*
X840D01*
X865Y-49428D01*
X896Y-49423D01*
X932Y-49415D01*
X968Y-49406D01*
X1009Y-49392D01*
X1051Y-49376D01*
X1095Y-49356D01*
X1140Y-49331D01*
X1184Y-49304D01*
X1228Y-49270D01*
X1270Y-49232D01*
X1311Y-49187D01*
X1314Y-49185D01*
X1320Y-49176D01*
X1331Y-49160D01*
X1345Y-49140D01*
X1361Y-49113D01*
X1381Y-49079D01*
X1400Y-49041D01*
X1419Y-48996D01*
X1439Y-48946D01*
X1458Y-48888D01*
X1477Y-48825D01*
X1494Y-48755D01*
X1508Y-48680D01*
X1519Y-48600D01*
X1525Y-48511D01*
X1527Y-48417D01*
Y-48414D01*
Y-48412D01*
Y-48403D01*
Y-48392D01*
Y-48362D01*
X1525Y-48323D01*
X1522Y-48276D01*
X1516Y-48223D01*
X1508Y-48165D01*
X1500Y-48099D01*
X1489Y-48032D01*
X1475Y-47963D01*
X1455Y-47894D01*
X1433Y-47824D01*
X1408Y-47758D01*
X1378Y-47694D01*
X1345Y-47636D01*
X1306Y-47583D01*
X1303Y-47581D01*
X1295Y-47572D01*
X1284Y-47559D01*
X1267Y-47542D01*
X1245Y-47520D01*
X1220Y-47498D01*
X1190Y-47475D01*
X1156Y-47448D01*
X1120Y-47423D01*
X1079Y-47401D01*
X1034Y-47376D01*
X984Y-47356D01*
X935Y-47340D01*
X882Y-47326D01*
X824Y-47318D01*
X766Y-47315D01*
D02*
G37*
G36*
X-51272Y-47293D02*
X-51285D01*
X-51299Y-47295D01*
X-51321Y-47298D01*
X-51349Y-47301D01*
X-51380Y-47306D01*
X-51413Y-47318D01*
X-51449Y-47329D01*
X-51490Y-47343D01*
X-51532Y-47362D01*
X-51576Y-47384D01*
X-51621Y-47412D01*
X-51668Y-47445D01*
X-51712Y-47481D01*
X-51756Y-47525D01*
X-51801Y-47575D01*
X-51803Y-47578D01*
X-51812Y-47589D01*
X-51823Y-47606D01*
X-51837Y-47628D01*
X-51853Y-47656D01*
X-51873Y-47692D01*
X-51895Y-47733D01*
X-51914Y-47783D01*
X-51936Y-47836D01*
X-51959Y-47897D01*
X-51978Y-47963D01*
X-51995Y-48038D01*
X-52008Y-48115D01*
X-52020Y-48201D01*
X-52028Y-48293D01*
X-52031Y-48390D01*
Y-48392D01*
Y-48395D01*
Y-48403D01*
Y-48412D01*
X-52028Y-48439D01*
Y-48478D01*
X-52025Y-48523D01*
X-52020Y-48572D01*
X-52011Y-48631D01*
X-52003Y-48689D01*
X-51992Y-48752D01*
X-51978Y-48819D01*
X-51961Y-48885D01*
X-51939Y-48949D01*
X-51914Y-49013D01*
X-51886Y-49074D01*
X-51853Y-49132D01*
X-51815Y-49182D01*
X-51812Y-49185D01*
X-51803Y-49193D01*
X-51792Y-49204D01*
X-51776Y-49221D01*
X-51753Y-49240D01*
X-51729Y-49262D01*
X-51701Y-49284D01*
X-51668Y-49309D01*
X-51632Y-49334D01*
X-51593Y-49356D01*
X-51549Y-49378D01*
X-51502Y-49398D01*
X-51454Y-49412D01*
X-51402Y-49426D01*
X-51346Y-49434D01*
X-51291Y-49437D01*
X-51277D01*
X-51261Y-49434D01*
X-51238Y-49431D01*
X-51211Y-49428D01*
X-51180Y-49423D01*
X-51144Y-49415D01*
X-51105Y-49403D01*
X-51067Y-49390D01*
X-51022Y-49373D01*
X-50978Y-49351D01*
X-50934Y-49326D01*
X-50886Y-49295D01*
X-50842Y-49259D01*
X-50798Y-49221D01*
X-50756Y-49174D01*
X-50754Y-49171D01*
X-50745Y-49160D01*
X-50734Y-49146D01*
X-50720Y-49124D01*
X-50704Y-49096D01*
X-50684Y-49060D01*
X-50665Y-49018D01*
X-50643Y-48971D01*
X-50623Y-48916D01*
X-50604Y-48855D01*
X-50585Y-48788D01*
X-50568Y-48714D01*
X-50551Y-48633D01*
X-50540Y-48545D01*
X-50535Y-48450D01*
X-50532Y-48351D01*
Y-48348D01*
Y-48345D01*
Y-48337D01*
Y-48329D01*
Y-48301D01*
X-50535Y-48265D01*
X-50538Y-48221D01*
X-50543Y-48171D01*
X-50551Y-48113D01*
X-50560Y-48054D01*
X-50571Y-47991D01*
X-50585Y-47924D01*
X-50604Y-47858D01*
X-50623Y-47794D01*
X-50648Y-47730D01*
X-50679Y-47669D01*
X-50712Y-47611D01*
X-50751Y-47559D01*
X-50754Y-47556D01*
X-50762Y-47548D01*
X-50773Y-47534D01*
X-50790Y-47517D01*
X-50812Y-47498D01*
X-50837Y-47475D01*
X-50864Y-47451D01*
X-50898Y-47426D01*
X-50934Y-47401D01*
X-50975Y-47376D01*
X-51017Y-47354D01*
X-51064Y-47334D01*
X-51111Y-47318D01*
X-51164Y-47304D01*
X-51216Y-47295D01*
X-51272Y-47293D01*
D02*
G37*
G36*
X12804Y-48370D02*
X12801D01*
X12793Y-48376D01*
X12776Y-48381D01*
X12757Y-48387D01*
X12729Y-48398D01*
X12696Y-48406D01*
X12657Y-48420D01*
X12610Y-48431D01*
X12560Y-48445D01*
X12502Y-48462D01*
X12438Y-48476D01*
X12372Y-48489D01*
X12294Y-48506D01*
X12214Y-48520D01*
X12128Y-48536D01*
X12034Y-48550D01*
X12031D01*
X12020Y-48553D01*
X12006D01*
X11987Y-48559D01*
X11962Y-48561D01*
X11937Y-48567D01*
X11873Y-48578D01*
X11807Y-48592D01*
X11738Y-48608D01*
X11677Y-48625D01*
X11649Y-48633D01*
X11624Y-48645D01*
X11619Y-48647D01*
X11605Y-48653D01*
X11582Y-48667D01*
X11558Y-48683D01*
X11527Y-48703D01*
X11497Y-48730D01*
X11466Y-48761D01*
X11439Y-48797D01*
X11436Y-48802D01*
X11427Y-48813D01*
X11419Y-48836D01*
X11408Y-48860D01*
X11394Y-48894D01*
X11386Y-48932D01*
X11377Y-48974D01*
X11375Y-49018D01*
Y-49021D01*
Y-49027D01*
Y-49038D01*
X11377Y-49049D01*
X11380Y-49066D01*
X11383Y-49085D01*
X11391Y-49129D01*
X11408Y-49176D01*
X11436Y-49229D01*
X11450Y-49257D01*
X11469Y-49281D01*
X11491Y-49306D01*
X11516Y-49331D01*
X11519D01*
X11522Y-49337D01*
X11530Y-49343D01*
X11544Y-49351D01*
X11558Y-49359D01*
X11574Y-49370D01*
X11596Y-49381D01*
X11621Y-49392D01*
X11649Y-49406D01*
X11679Y-49417D01*
X11713Y-49428D01*
X11751Y-49437D01*
X11790Y-49445D01*
X11835Y-49450D01*
X11882Y-49453D01*
X11931Y-49456D01*
X11959D01*
X11979Y-49453D01*
X12001D01*
X12028Y-49450D01*
X12062Y-49445D01*
X12095Y-49442D01*
X12170Y-49428D01*
X12253Y-49406D01*
X12336Y-49378D01*
X12416Y-49340D01*
X12419Y-49337D01*
X12425Y-49334D01*
X12436Y-49329D01*
X12449Y-49318D01*
X12469Y-49306D01*
X12488Y-49290D01*
X12535Y-49254D01*
X12585Y-49207D01*
X12635Y-49151D01*
X12685Y-49088D01*
X12727Y-49013D01*
Y-49010D01*
X12729Y-49005D01*
X12735Y-48996D01*
X12738Y-48982D01*
X12746Y-48966D01*
X12751Y-48946D01*
X12757Y-48921D01*
X12765Y-48894D01*
X12774Y-48863D01*
X12779Y-48830D01*
X12787Y-48791D01*
X12793Y-48750D01*
X12796Y-48703D01*
X12801Y-48653D01*
X12804Y-48600D01*
Y-48545D01*
Y-48370D01*
D02*
G37*
G36*
X-2475Y-46332D02*
Y-46337D01*
X-2478Y-46348D01*
X-2484Y-46367D01*
X-2489Y-46395D01*
X-2497Y-46428D01*
X-2506Y-46467D01*
X-2517Y-46512D01*
X-2528Y-46561D01*
X-2544Y-46617D01*
X-2558Y-46675D01*
X-2575Y-46733D01*
X-2594Y-46797D01*
X-2636Y-46930D01*
X-2683Y-47066D01*
X-3104Y-48190D01*
X-1802D01*
X-2204Y-47129D01*
Y-47126D01*
X-2207Y-47124D01*
X-2212Y-47107D01*
X-2220Y-47082D01*
X-2234Y-47049D01*
X-2248Y-47007D01*
X-2268Y-46960D01*
X-2284Y-46905D01*
X-2306Y-46847D01*
X-2328Y-46786D01*
X-2351Y-46722D01*
X-2395Y-46589D01*
X-2439Y-46456D01*
X-2459Y-46392D01*
X-2475Y-46332D01*
D02*
G37*
G36*
X-24796Y-48370D02*
X-24799D01*
X-24807Y-48376D01*
X-24824Y-48381D01*
X-24843Y-48387D01*
X-24871Y-48398D01*
X-24904Y-48406D01*
X-24943Y-48420D01*
X-24990Y-48431D01*
X-25040Y-48445D01*
X-25098Y-48462D01*
X-25161Y-48476D01*
X-25228Y-48489D01*
X-25306Y-48506D01*
X-25386Y-48520D01*
X-25472Y-48536D01*
X-25566Y-48550D01*
X-25569D01*
X-25580Y-48553D01*
X-25594D01*
X-25613Y-48559D01*
X-25638Y-48561D01*
X-25663Y-48567D01*
X-25727Y-48578D01*
X-25793Y-48592D01*
X-25862Y-48608D01*
X-25923Y-48625D01*
X-25951Y-48633D01*
X-25976Y-48645D01*
X-25982Y-48647D01*
X-25995Y-48653D01*
X-26017Y-48667D01*
X-26042Y-48683D01*
X-26073Y-48703D01*
X-26103Y-48730D01*
X-26134Y-48761D01*
X-26162Y-48797D01*
X-26164Y-48802D01*
X-26173Y-48813D01*
X-26181Y-48836D01*
X-26192Y-48860D01*
X-26206Y-48894D01*
X-26214Y-48932D01*
X-26223Y-48974D01*
X-26225Y-49018D01*
Y-49021D01*
Y-49027D01*
Y-49038D01*
X-26223Y-49049D01*
X-26220Y-49066D01*
X-26217Y-49085D01*
X-26209Y-49129D01*
X-26192Y-49176D01*
X-26164Y-49229D01*
X-26150Y-49257D01*
X-26131Y-49281D01*
X-26109Y-49306D01*
X-26084Y-49331D01*
X-26081D01*
X-26078Y-49337D01*
X-26070Y-49343D01*
X-26056Y-49351D01*
X-26042Y-49359D01*
X-26026Y-49370D01*
X-26004Y-49381D01*
X-25979Y-49392D01*
X-25951Y-49406D01*
X-25921Y-49417D01*
X-25887Y-49428D01*
X-25848Y-49437D01*
X-25810Y-49445D01*
X-25765Y-49450D01*
X-25718Y-49453D01*
X-25668Y-49456D01*
X-25641D01*
X-25621Y-49453D01*
X-25599D01*
X-25572Y-49450D01*
X-25538Y-49445D01*
X-25505Y-49442D01*
X-25430Y-49428D01*
X-25347Y-49406D01*
X-25264Y-49378D01*
X-25184Y-49340D01*
X-25181Y-49337D01*
X-25175Y-49334D01*
X-25164Y-49329D01*
X-25150Y-49318D01*
X-25131Y-49306D01*
X-25112Y-49290D01*
X-25065Y-49254D01*
X-25015Y-49207D01*
X-24965Y-49151D01*
X-24915Y-49088D01*
X-24873Y-49013D01*
Y-49010D01*
X-24871Y-49005D01*
X-24865Y-48996D01*
X-24862Y-48982D01*
X-24854Y-48966D01*
X-24848Y-48946D01*
X-24843Y-48921D01*
X-24835Y-48894D01*
X-24826Y-48863D01*
X-24821Y-48830D01*
X-24813Y-48791D01*
X-24807Y-48750D01*
X-24804Y-48703D01*
X-24799Y-48653D01*
X-24796Y-48600D01*
Y-48545D01*
Y-48370D01*
D02*
G37*
G36*
X-59180Y-46381D02*
X-60221D01*
Y-47752D01*
X-59185D01*
X-59152Y-47750D01*
X-59113Y-47747D01*
X-59066Y-47741D01*
X-59017Y-47736D01*
X-58961Y-47730D01*
X-58847Y-47708D01*
X-58789Y-47694D01*
X-58731Y-47675D01*
X-58676Y-47656D01*
X-58623Y-47631D01*
X-58576Y-47603D01*
X-58534Y-47570D01*
X-58532Y-47567D01*
X-58526Y-47561D01*
X-58515Y-47550D01*
X-58501Y-47537D01*
X-58487Y-47517D01*
X-58468Y-47495D01*
X-58449Y-47467D01*
X-58429Y-47437D01*
X-58410Y-47401D01*
X-58393Y-47365D01*
X-58374Y-47320D01*
X-58360Y-47276D01*
X-58346Y-47226D01*
X-58335Y-47171D01*
X-58329Y-47115D01*
X-58327Y-47054D01*
Y-47052D01*
Y-47043D01*
Y-47032D01*
X-58329Y-47013D01*
Y-46993D01*
X-58332Y-46969D01*
X-58338Y-46941D01*
X-58341Y-46913D01*
X-58357Y-46850D01*
X-58379Y-46780D01*
X-58407Y-46711D01*
X-58426Y-46678D01*
X-58449Y-46644D01*
Y-46642D01*
X-58454Y-46636D01*
X-58463Y-46628D01*
X-58471Y-46617D01*
X-58499Y-46586D01*
X-58534Y-46550D01*
X-58582Y-46514D01*
X-58634Y-46475D01*
X-58698Y-46442D01*
X-58770Y-46417D01*
X-58773D01*
X-58776Y-46415D01*
X-58784D01*
X-58795Y-46412D01*
X-58809Y-46409D01*
X-58828Y-46406D01*
X-58850Y-46404D01*
X-58878Y-46398D01*
X-58908Y-46395D01*
X-58942Y-46392D01*
X-58981Y-46390D01*
X-59025Y-46387D01*
X-59072Y-46384D01*
X-59124D01*
X-59180Y-46381D01*
D02*
G37*
G36*
X-11237Y-47312D02*
X-11267D01*
X-11289Y-47315D01*
X-11320Y-47318D01*
X-11350Y-47323D01*
X-11386Y-47332D01*
X-11425Y-47340D01*
X-11469Y-47351D01*
X-11511Y-47365D01*
X-11558Y-47384D01*
X-11602Y-47403D01*
X-11649Y-47428D01*
X-11697Y-47459D01*
X-11741Y-47492D01*
X-11783Y-47531D01*
X-11785Y-47534D01*
X-11791Y-47542D01*
X-11802Y-47553D01*
X-11818Y-47570D01*
X-11835Y-47592D01*
X-11855Y-47620D01*
X-11874Y-47650D01*
X-11896Y-47683D01*
X-11918Y-47722D01*
X-11940Y-47766D01*
X-11960Y-47813D01*
X-11979Y-47866D01*
X-11996Y-47919D01*
X-12010Y-47980D01*
X-12021Y-48041D01*
X-12026Y-48107D01*
X-10472D01*
Y-48104D01*
X-10475Y-48090D01*
Y-48074D01*
X-10481Y-48049D01*
X-10483Y-48021D01*
X-10492Y-47988D01*
X-10497Y-47949D01*
X-10508Y-47910D01*
X-10530Y-47824D01*
X-10561Y-47739D01*
X-10602Y-47656D01*
X-10627Y-47617D01*
X-10652Y-47583D01*
X-10655Y-47581D01*
X-10663Y-47572D01*
X-10674Y-47559D01*
X-10694Y-47542D01*
X-10716Y-47520D01*
X-10741Y-47498D01*
X-10774Y-47473D01*
X-10810Y-47448D01*
X-10849Y-47423D01*
X-10893Y-47398D01*
X-10940Y-47376D01*
X-10993Y-47354D01*
X-11048Y-47337D01*
X-11109Y-47323D01*
X-11170Y-47315D01*
X-11237Y-47312D01*
D02*
G37*
G36*
X-14234Y-47315D02*
X-14251D01*
X-14267Y-47318D01*
X-14292D01*
X-14322Y-47323D01*
X-14358Y-47329D01*
X-14397Y-47337D01*
X-14439Y-47348D01*
X-14483Y-47362D01*
X-14530Y-47379D01*
X-14580Y-47401D01*
X-14630Y-47426D01*
X-14677Y-47456D01*
X-14727Y-47492D01*
X-14774Y-47534D01*
X-14818Y-47581D01*
X-14821Y-47583D01*
X-14829Y-47592D01*
X-14841Y-47609D01*
X-14854Y-47631D01*
X-14871Y-47658D01*
X-14890Y-47692D01*
X-14912Y-47733D01*
X-14932Y-47777D01*
X-14954Y-47833D01*
X-14976Y-47891D01*
X-14996Y-47955D01*
X-15012Y-48027D01*
X-15026Y-48104D01*
X-15037Y-48190D01*
X-15045Y-48279D01*
X-15048Y-48376D01*
Y-48379D01*
Y-48381D01*
Y-48390D01*
Y-48398D01*
X-15045Y-48426D01*
Y-48462D01*
X-15040Y-48506D01*
X-15037Y-48559D01*
X-15029Y-48614D01*
X-15021Y-48675D01*
X-15007Y-48739D01*
X-14993Y-48805D01*
X-14974Y-48872D01*
X-14951Y-48935D01*
X-14924Y-49002D01*
X-14893Y-49063D01*
X-14860Y-49121D01*
X-14818Y-49174D01*
X-14816Y-49176D01*
X-14807Y-49185D01*
X-14793Y-49198D01*
X-14777Y-49215D01*
X-14755Y-49235D01*
X-14727Y-49257D01*
X-14694Y-49281D01*
X-14658Y-49304D01*
X-14619Y-49329D01*
X-14575Y-49354D01*
X-14525Y-49376D01*
X-14475Y-49395D01*
X-14420Y-49412D01*
X-14358Y-49426D01*
X-14298Y-49434D01*
X-14234Y-49437D01*
X-14217D01*
X-14201Y-49434D01*
X-14176Y-49431D01*
X-14145Y-49428D01*
X-14109Y-49423D01*
X-14071Y-49415D01*
X-14029Y-49403D01*
X-13985Y-49390D01*
X-13938Y-49373D01*
X-13888Y-49351D01*
X-13838Y-49323D01*
X-13791Y-49293D01*
X-13741Y-49259D01*
X-13694Y-49218D01*
X-13649Y-49171D01*
X-13647Y-49168D01*
X-13638Y-49157D01*
X-13627Y-49143D01*
X-13613Y-49121D01*
X-13594Y-49093D01*
X-13575Y-49057D01*
X-13555Y-49016D01*
X-13533Y-48968D01*
X-13511Y-48916D01*
X-13491Y-48855D01*
X-13469Y-48788D01*
X-13453Y-48717D01*
X-13439Y-48636D01*
X-13428Y-48550D01*
X-13419Y-48459D01*
X-13417Y-48359D01*
Y-48356D01*
Y-48354D01*
Y-48337D01*
X-13419Y-48309D01*
Y-48276D01*
X-13425Y-48232D01*
X-13428Y-48182D01*
X-13436Y-48129D01*
X-13447Y-48068D01*
X-13458Y-48007D01*
X-13475Y-47944D01*
X-13494Y-47880D01*
X-13517Y-47813D01*
X-13544Y-47752D01*
X-13575Y-47692D01*
X-13611Y-47633D01*
X-13652Y-47581D01*
X-13655Y-47578D01*
X-13663Y-47570D01*
X-13677Y-47556D01*
X-13694Y-47539D01*
X-13716Y-47520D01*
X-13744Y-47498D01*
X-13777Y-47473D01*
X-13813Y-47448D01*
X-13852Y-47423D01*
X-13896Y-47398D01*
X-13943Y-47376D01*
X-13996Y-47356D01*
X-14051Y-47340D01*
X-14109Y-47326D01*
X-14170Y-47318D01*
X-14234Y-47315D01*
D02*
G37*
G36*
X-37940D02*
X-37956D01*
X-37973Y-47318D01*
X-37998D01*
X-38028Y-47323D01*
X-38064Y-47329D01*
X-38103Y-47337D01*
X-38144Y-47348D01*
X-38189Y-47362D01*
X-38236Y-47379D01*
X-38286Y-47401D01*
X-38336Y-47426D01*
X-38383Y-47456D01*
X-38433Y-47492D01*
X-38480Y-47534D01*
X-38524Y-47581D01*
X-38527Y-47583D01*
X-38535Y-47592D01*
X-38546Y-47609D01*
X-38560Y-47631D01*
X-38577Y-47658D01*
X-38596Y-47692D01*
X-38618Y-47733D01*
X-38638Y-47777D01*
X-38660Y-47833D01*
X-38682Y-47891D01*
X-38701Y-47955D01*
X-38718Y-48027D01*
X-38732Y-48104D01*
X-38743Y-48190D01*
X-38751Y-48279D01*
X-38754Y-48376D01*
Y-48379D01*
Y-48381D01*
Y-48390D01*
Y-48398D01*
X-38751Y-48426D01*
Y-48462D01*
X-38746Y-48506D01*
X-38743Y-48559D01*
X-38735Y-48614D01*
X-38726Y-48675D01*
X-38712Y-48739D01*
X-38699Y-48805D01*
X-38679Y-48872D01*
X-38657Y-48935D01*
X-38629Y-49002D01*
X-38599Y-49063D01*
X-38566Y-49121D01*
X-38524Y-49174D01*
X-38521Y-49176D01*
X-38513Y-49185D01*
X-38499Y-49198D01*
X-38482Y-49215D01*
X-38460Y-49235D01*
X-38433Y-49257D01*
X-38399Y-49281D01*
X-38363Y-49304D01*
X-38325Y-49329D01*
X-38280Y-49354D01*
X-38230Y-49376D01*
X-38181Y-49395D01*
X-38125Y-49412D01*
X-38064Y-49426D01*
X-38003Y-49434D01*
X-37940Y-49437D01*
X-37923D01*
X-37906Y-49434D01*
X-37881Y-49431D01*
X-37851Y-49428D01*
X-37815Y-49423D01*
X-37776Y-49415D01*
X-37735Y-49403D01*
X-37690Y-49390D01*
X-37643Y-49373D01*
X-37593Y-49351D01*
X-37543Y-49323D01*
X-37496Y-49293D01*
X-37446Y-49259D01*
X-37399Y-49218D01*
X-37355Y-49171D01*
X-37352Y-49168D01*
X-37344Y-49157D01*
X-37333Y-49143D01*
X-37319Y-49121D01*
X-37300Y-49093D01*
X-37280Y-49057D01*
X-37261Y-49016D01*
X-37239Y-48968D01*
X-37217Y-48916D01*
X-37197Y-48855D01*
X-37175Y-48788D01*
X-37158Y-48717D01*
X-37145Y-48636D01*
X-37133Y-48550D01*
X-37125Y-48459D01*
X-37122Y-48359D01*
Y-48356D01*
Y-48354D01*
Y-48337D01*
X-37125Y-48309D01*
Y-48276D01*
X-37131Y-48232D01*
X-37133Y-48182D01*
X-37142Y-48129D01*
X-37153Y-48068D01*
X-37164Y-48007D01*
X-37181Y-47944D01*
X-37200Y-47880D01*
X-37222Y-47813D01*
X-37250Y-47752D01*
X-37280Y-47692D01*
X-37316Y-47633D01*
X-37358Y-47581D01*
X-37361Y-47578D01*
X-37369Y-47570D01*
X-37383Y-47556D01*
X-37399Y-47539D01*
X-37422Y-47520D01*
X-37449Y-47498D01*
X-37483Y-47473D01*
X-37519Y-47448D01*
X-37557Y-47423D01*
X-37602Y-47398D01*
X-37649Y-47376D01*
X-37701Y-47356D01*
X-37757Y-47340D01*
X-37815Y-47326D01*
X-37876Y-47318D01*
X-37940Y-47315D01*
D02*
G37*
G36*
X-48335Y-47312D02*
X-48366D01*
X-48388Y-47315D01*
X-48419Y-47318D01*
X-48449Y-47323D01*
X-48485Y-47332D01*
X-48524Y-47340D01*
X-48568Y-47351D01*
X-48610Y-47365D01*
X-48657Y-47384D01*
X-48701Y-47403D01*
X-48748Y-47428D01*
X-48795Y-47459D01*
X-48840Y-47492D01*
X-48881Y-47531D01*
X-48884Y-47534D01*
X-48889Y-47542D01*
X-48900Y-47553D01*
X-48917Y-47570D01*
X-48934Y-47592D01*
X-48953Y-47620D01*
X-48972Y-47650D01*
X-48995Y-47683D01*
X-49017Y-47722D01*
X-49039Y-47766D01*
X-49058Y-47813D01*
X-49078Y-47866D01*
X-49094Y-47919D01*
X-49108Y-47980D01*
X-49119Y-48041D01*
X-49125Y-48107D01*
X-47571D01*
Y-48104D01*
X-47574Y-48090D01*
Y-48074D01*
X-47579Y-48049D01*
X-47582Y-48021D01*
X-47590Y-47988D01*
X-47596Y-47949D01*
X-47607Y-47910D01*
X-47629Y-47824D01*
X-47660Y-47739D01*
X-47701Y-47656D01*
X-47726Y-47617D01*
X-47751Y-47583D01*
X-47754Y-47581D01*
X-47762Y-47572D01*
X-47773Y-47559D01*
X-47793Y-47542D01*
X-47815Y-47520D01*
X-47839Y-47498D01*
X-47873Y-47473D01*
X-47909Y-47448D01*
X-47948Y-47423D01*
X-47992Y-47398D01*
X-48039Y-47376D01*
X-48092Y-47354D01*
X-48147Y-47337D01*
X-48208Y-47323D01*
X-48269Y-47315D01*
X-48335Y-47312D01*
D02*
G37*
G36*
X-54310Y-47315D02*
X-54327D01*
X-54343Y-47318D01*
X-54368D01*
X-54399Y-47323D01*
X-54435Y-47329D01*
X-54474Y-47337D01*
X-54515Y-47348D01*
X-54560Y-47362D01*
X-54607Y-47379D01*
X-54656Y-47401D01*
X-54706Y-47426D01*
X-54754Y-47456D01*
X-54803Y-47492D01*
X-54850Y-47534D01*
X-54895Y-47581D01*
X-54897Y-47583D01*
X-54906Y-47592D01*
X-54917Y-47609D01*
X-54931Y-47631D01*
X-54947Y-47658D01*
X-54967Y-47692D01*
X-54989Y-47733D01*
X-55008Y-47777D01*
X-55031Y-47833D01*
X-55053Y-47891D01*
X-55072Y-47955D01*
X-55089Y-48027D01*
X-55102Y-48104D01*
X-55114Y-48190D01*
X-55122Y-48279D01*
X-55125Y-48376D01*
Y-48379D01*
Y-48381D01*
Y-48390D01*
Y-48398D01*
X-55122Y-48426D01*
Y-48462D01*
X-55116Y-48506D01*
X-55114Y-48559D01*
X-55105Y-48614D01*
X-55097Y-48675D01*
X-55083Y-48739D01*
X-55069Y-48805D01*
X-55050Y-48872D01*
X-55028Y-48935D01*
X-55000Y-49002D01*
X-54970Y-49063D01*
X-54936Y-49121D01*
X-54895Y-49174D01*
X-54892Y-49176D01*
X-54884Y-49185D01*
X-54870Y-49198D01*
X-54853Y-49215D01*
X-54831Y-49235D01*
X-54803Y-49257D01*
X-54770Y-49281D01*
X-54734Y-49304D01*
X-54695Y-49329D01*
X-54651Y-49354D01*
X-54601Y-49376D01*
X-54551Y-49395D01*
X-54496Y-49412D01*
X-54435Y-49426D01*
X-54374Y-49434D01*
X-54310Y-49437D01*
X-54294D01*
X-54277Y-49434D01*
X-54252Y-49431D01*
X-54222Y-49428D01*
X-54186Y-49423D01*
X-54147Y-49415D01*
X-54105Y-49403D01*
X-54061Y-49390D01*
X-54014Y-49373D01*
X-53964Y-49351D01*
X-53914Y-49323D01*
X-53867Y-49293D01*
X-53817Y-49259D01*
X-53770Y-49218D01*
X-53726Y-49171D01*
X-53723Y-49168D01*
X-53715Y-49157D01*
X-53704Y-49143D01*
X-53690Y-49121D01*
X-53670Y-49093D01*
X-53651Y-49057D01*
X-53632Y-49016D01*
X-53610Y-48968D01*
X-53587Y-48916D01*
X-53568Y-48855D01*
X-53546Y-48788D01*
X-53529Y-48717D01*
X-53515Y-48636D01*
X-53504Y-48550D01*
X-53496Y-48459D01*
X-53493Y-48359D01*
Y-48356D01*
Y-48354D01*
Y-48337D01*
X-53496Y-48309D01*
Y-48276D01*
X-53501Y-48232D01*
X-53504Y-48182D01*
X-53513Y-48129D01*
X-53524Y-48068D01*
X-53535Y-48007D01*
X-53551Y-47944D01*
X-53571Y-47880D01*
X-53593Y-47813D01*
X-53620Y-47752D01*
X-53651Y-47692D01*
X-53687Y-47633D01*
X-53729Y-47581D01*
X-53731Y-47578D01*
X-53740Y-47570D01*
X-53754Y-47556D01*
X-53770Y-47539D01*
X-53792Y-47520D01*
X-53820Y-47498D01*
X-53853Y-47473D01*
X-53889Y-47448D01*
X-53928Y-47423D01*
X-53972Y-47398D01*
X-54019Y-47376D01*
X-54072Y-47356D01*
X-54127Y-47340D01*
X-54186Y-47326D01*
X-54247Y-47318D01*
X-54310Y-47315D01*
D02*
G37*
%LPD*%
D10*
X177289Y-236127D02*
G03*
X295276Y0I-177289J236127D01*
G01*
X-295276D02*
G03*
X-177289Y-236127I295276J0D01*
G01*
X-295276Y0D02*
X295276D01*
X-177196Y-236220D02*
X0Y-236221D01*
X177196Y-236221D01*
D11*
X274000Y-74000D02*
Y-6000D01*
X226000D02*
X274000D01*
X226000Y-74000D02*
Y-6000D01*
Y-74000D02*
X274000D01*
X-204000D02*
Y-6000D01*
Y-74000D02*
X-156000D01*
Y-6000D01*
X-204000D02*
X-156000D01*
X221500Y-74000D02*
Y-6000D01*
X173500D02*
X221500D01*
X173500Y-74000D02*
Y-6000D01*
Y-74000D02*
X221500D01*
D12*
X250000Y-55000D02*
Y-25000D01*
X-180000Y-55000D02*
Y-25000D01*
X197500Y-55000D02*
Y-25000D01*
D13*
X240000Y-35000D02*
X250000Y-25000D01*
X240000Y-35000D02*
X260000D01*
X250000Y-25000D02*
X260000Y-35000D01*
X-180000Y-55000D02*
X-170000Y-45000D01*
X-190000D02*
X-170000D01*
X-190000D02*
X-180000Y-55000D01*
X187500Y-35000D02*
X197500Y-25000D01*
X187500Y-35000D02*
X207500D01*
X197500Y-25000D02*
X207500Y-35000D01*
D14*
X140000Y-105000D02*
X212000D01*
X140000Y-115000D02*
Y-105000D01*
Y-115000D02*
X149000D01*
X147500D02*
X220000D01*
X211000Y-105000D02*
X220000D01*
Y-115000D02*
Y-105000D01*
X140000Y-165000D02*
X212000D01*
X140000Y-175000D02*
Y-165000D01*
Y-175000D02*
X149000D01*
X147500D02*
X220000D01*
X211000Y-165000D02*
X220000D01*
Y-175000D02*
Y-165000D01*
X-220000Y-105000D02*
X-148000D01*
X-220000Y-115000D02*
Y-105000D01*
Y-115000D02*
X-211000D01*
X-212500D02*
X-140000D01*
X-149000Y-105000D02*
X-140000D01*
Y-115000D02*
Y-105000D01*
X-220000Y-165000D02*
X-148000D01*
X-220000Y-175000D02*
Y-165000D01*
Y-175000D02*
X-211000D01*
X-212500D02*
X-140000D01*
X-149000Y-165000D02*
X-140000D01*
Y-175000D02*
Y-165000D01*
X-135000Y-45000D02*
X-125000D01*
Y-15000D01*
X-135000Y-45000D02*
Y-15000D01*
X-125000D01*
X-115000Y-95000D02*
Y-85000D01*
Y-95000D02*
X-63000D01*
X-64000D02*
X-55000D01*
Y-85000D01*
X-64000D02*
X-55000D01*
X-115000D02*
X-64000D01*
X-30000Y-95000D02*
Y-85000D01*
Y-95000D02*
X22000D01*
X21000D02*
X30000D01*
Y-85000D01*
X21000D02*
X30000D01*
X-30000D02*
X21000D01*
X50000Y-95000D02*
Y-85000D01*
Y-95000D02*
X102000D01*
X101000D02*
X110000D01*
Y-85000D01*
X101000D02*
X110000D01*
X50000D02*
X101000D01*
X-265550Y-46300D02*
Y-12400D01*
Y-46300D02*
X-223400D01*
X-265500Y-12400D02*
X-258900D01*
X-265550Y-7350D02*
Y-3000D01*
Y-8350D02*
Y-7350D01*
X-265500Y-8400D02*
X-258850D01*
X-258800Y-12400D02*
Y-8400D01*
X-265550Y-3000D02*
X-223400D01*
Y-46300D02*
Y-3000D01*
X125000Y-45000D02*
X135000D01*
Y-15000D01*
X125000Y-45000D02*
Y-15000D01*
X135000D01*
X-75000Y-45000D02*
X-65000D01*
Y-15000D01*
X-75000Y-45000D02*
Y-15000D01*
X-65000D01*
X-105000Y-45000D02*
X-95000D01*
Y-15000D01*
X-105000Y-45000D02*
Y-15000D01*
X-95000D01*
X95000Y-45000D02*
X105000D01*
Y-15000D01*
X95000Y-45000D02*
Y-15000D01*
X105000D01*
X65000Y-45000D02*
X75000D01*
Y-15000D01*
X65000Y-45000D02*
Y-15000D01*
X75000D01*
X228801Y-61843D02*
X229087Y-62129D01*
X229373Y-61843D01*
X229087Y-61557D01*
X228801Y-61843D01*
X230801D02*
X234800D01*
X230801Y-61557D02*
X234800D01*
X230801Y-62700D02*
Y-61557D01*
X234800Y-62700D02*
Y-60701D01*
X230801Y-58758D02*
X234800D01*
X230801Y-58472D02*
X234800D01*
X231658D02*
X231086Y-57901D01*
X230801Y-57044D01*
Y-56473D01*
X231086Y-55616D01*
X231658Y-55330D01*
X234800D01*
X230801Y-56473D02*
X231086Y-55901D01*
X231658Y-55616D01*
X234800D01*
X230801Y-59615D02*
Y-58472D01*
X234800Y-59615D02*
Y-57615D01*
Y-56473D02*
Y-54473D01*
X229658Y-51131D02*
X234800D01*
X232229Y-53702D02*
Y-48560D01*
X264601Y-62643D02*
X264887Y-62929D01*
X265173Y-62643D01*
X264887Y-62357D01*
X264601Y-62643D01*
X266601D02*
X270600D01*
X266601Y-62357D02*
X270600D01*
X266601Y-63500D02*
Y-62357D01*
X270600Y-63500D02*
Y-61501D01*
X266601Y-59558D02*
X270600D01*
X266601Y-59272D02*
X270600D01*
X267458D02*
X266886Y-58701D01*
X266601Y-57844D01*
Y-57273D01*
X266886Y-56416D01*
X267458Y-56130D01*
X270600D01*
X266601Y-57273D02*
X266886Y-56701D01*
X267458Y-56416D01*
X270600D01*
X266601Y-60415D02*
Y-59272D01*
X270600Y-60415D02*
Y-58415D01*
Y-57273D02*
Y-55273D01*
X268029Y-54502D02*
Y-49360D01*
X230801Y-34686D02*
X231086Y-35543D01*
X231658Y-36114D01*
X232515Y-36400D01*
X233086D01*
X233943Y-36114D01*
X234514Y-35543D01*
X234800Y-34686D01*
Y-34115D01*
X234514Y-33258D01*
X233943Y-32686D01*
X233086Y-32401D01*
X232515D01*
X231658Y-32686D01*
X231086Y-33258D01*
X230801Y-34115D01*
Y-34686D01*
X231086Y-35257D01*
X231658Y-35829D01*
X232515Y-36114D01*
X233086D01*
X233943Y-35829D01*
X234514Y-35257D01*
X234800Y-34686D01*
Y-34115D02*
X234514Y-33544D01*
X233943Y-32972D01*
X233086Y-32686D01*
X232515D01*
X231658Y-32972D01*
X231086Y-33544D01*
X230801Y-34115D01*
Y-30658D02*
X233943D01*
X234514Y-30373D01*
X234800Y-29516D01*
Y-28945D01*
X234514Y-28087D01*
X233943Y-27516D01*
X230801Y-30373D02*
X233943D01*
X234514Y-30087D01*
X234800Y-29516D01*
X230801Y-27516D02*
X234800D01*
X230801Y-27231D02*
X234800D01*
X230801Y-31515D02*
Y-30373D01*
Y-28373D02*
Y-27231D01*
X234800Y-27516D02*
Y-26374D01*
Y-23888D02*
X234514Y-24174D01*
X233657Y-24460D01*
X228801D01*
Y-24745D01*
X233657D01*
X234514Y-24460D01*
X234800Y-23888D01*
Y-23317D01*
X234514Y-22746D01*
X233943Y-22460D01*
X230801Y-25602D02*
Y-23317D01*
X229658Y-18918D02*
X234800D01*
X232229Y-21489D02*
Y-16347D01*
X266601Y-35086D02*
X266886Y-35943D01*
X267458Y-36514D01*
X268315Y-36800D01*
X268886D01*
X269743Y-36514D01*
X270314Y-35943D01*
X270600Y-35086D01*
Y-34515D01*
X270314Y-33658D01*
X269743Y-33086D01*
X268886Y-32801D01*
X268315D01*
X267458Y-33086D01*
X266886Y-33658D01*
X266601Y-34515D01*
Y-35086D01*
X266886Y-35657D01*
X267458Y-36229D01*
X268315Y-36514D01*
X268886D01*
X269743Y-36229D01*
X270314Y-35657D01*
X270600Y-35086D01*
Y-34515D02*
X270314Y-33944D01*
X269743Y-33372D01*
X268886Y-33086D01*
X268315D01*
X267458Y-33372D01*
X266886Y-33944D01*
X266601Y-34515D01*
Y-31058D02*
X269743D01*
X270314Y-30773D01*
X270600Y-29916D01*
Y-29344D01*
X270314Y-28488D01*
X269743Y-27916D01*
X266601Y-30773D02*
X269743D01*
X270314Y-30487D01*
X270600Y-29916D01*
X266601Y-27916D02*
X270600D01*
X266601Y-27631D02*
X270600D01*
X266601Y-31915D02*
Y-30773D01*
Y-28773D02*
Y-27631D01*
X270600Y-27916D02*
Y-26774D01*
Y-24288D02*
X270314Y-24574D01*
X269457Y-24860D01*
X264601D01*
Y-25145D01*
X269457D01*
X270314Y-24860D01*
X270600Y-24288D01*
Y-23717D01*
X270314Y-23146D01*
X269743Y-22860D01*
X266601Y-26002D02*
Y-23717D01*
X268029Y-21889D02*
Y-16747D01*
X-158801Y-18157D02*
X-159087Y-17871D01*
X-159373Y-18157D01*
X-159087Y-18443D01*
X-158801Y-18157D01*
X-160801D02*
X-164800D01*
X-160801Y-18443D02*
X-164800D01*
X-160801Y-17300D02*
Y-18443D01*
X-164800Y-17300D02*
Y-19299D01*
X-160801Y-21242D02*
X-164800D01*
X-160801Y-21528D02*
X-164800D01*
X-161658D02*
X-161086Y-22099D01*
X-160801Y-22956D01*
Y-23527D01*
X-161086Y-24384D01*
X-161658Y-24670D01*
X-164800D01*
X-160801Y-23527D02*
X-161086Y-24099D01*
X-161658Y-24384D01*
X-164800D01*
X-160801Y-20385D02*
Y-21528D01*
X-164800Y-20385D02*
Y-22385D01*
Y-23527D02*
Y-25527D01*
X-159658Y-28869D02*
X-164800D01*
X-162229Y-26298D02*
Y-31440D01*
X-194601Y-17357D02*
X-194887Y-17071D01*
X-195173Y-17357D01*
X-194887Y-17643D01*
X-194601Y-17357D01*
X-196601D02*
X-200600D01*
X-196601Y-17643D02*
X-200600D01*
X-196601Y-16500D02*
Y-17643D01*
X-200600Y-16500D02*
Y-18500D01*
X-196601Y-20442D02*
X-200600D01*
X-196601Y-20728D02*
X-200600D01*
X-197458D02*
X-196887Y-21299D01*
X-196601Y-22156D01*
Y-22727D01*
X-196887Y-23584D01*
X-197458Y-23870D01*
X-200600D01*
X-196601Y-22727D02*
X-196887Y-23299D01*
X-197458Y-23584D01*
X-200600D01*
X-196601Y-19585D02*
Y-20728D01*
X-200600Y-19585D02*
Y-21585D01*
Y-22727D02*
Y-24727D01*
X-198029Y-25498D02*
Y-30640D01*
X-160801Y-45314D02*
X-161086Y-44457D01*
X-161658Y-43886D01*
X-162515Y-43600D01*
X-163086D01*
X-163943Y-43886D01*
X-164514Y-44457D01*
X-164800Y-45314D01*
Y-45885D01*
X-164514Y-46742D01*
X-163943Y-47313D01*
X-163086Y-47599D01*
X-162515D01*
X-161658Y-47313D01*
X-161086Y-46742D01*
X-160801Y-45885D01*
Y-45314D01*
X-161086Y-44743D01*
X-161658Y-44171D01*
X-162515Y-43886D01*
X-163086D01*
X-163943Y-44171D01*
X-164514Y-44743D01*
X-164800Y-45314D01*
Y-45885D02*
X-164514Y-46457D01*
X-163943Y-47028D01*
X-163086Y-47313D01*
X-162515D01*
X-161658Y-47028D01*
X-161086Y-46457D01*
X-160801Y-45885D01*
Y-49342D02*
X-163943D01*
X-164514Y-49627D01*
X-164800Y-50484D01*
Y-51056D01*
X-164514Y-51912D01*
X-163943Y-52484D01*
X-160801Y-49627D02*
X-163943D01*
X-164514Y-49913D01*
X-164800Y-50484D01*
X-160801Y-52484D02*
X-164800D01*
X-160801Y-52769D02*
X-164800D01*
X-160801Y-48485D02*
Y-49627D01*
Y-51627D02*
Y-52769D01*
X-164800Y-52484D02*
Y-53626D01*
Y-56112D02*
X-164514Y-55826D01*
X-163657Y-55540D01*
X-158801D01*
Y-55255D01*
X-163657D01*
X-164514Y-55540D01*
X-164800Y-56112D01*
Y-56683D01*
X-164514Y-57254D01*
X-163943Y-57540D01*
X-160801Y-54398D02*
Y-56683D01*
X-159658Y-61082D02*
X-164800D01*
X-162229Y-58511D02*
Y-63653D01*
X-196601Y-44914D02*
X-196887Y-44057D01*
X-197458Y-43486D01*
X-198315Y-43200D01*
X-198886D01*
X-199743Y-43486D01*
X-200314Y-44057D01*
X-200600Y-44914D01*
Y-45485D01*
X-200314Y-46342D01*
X-199743Y-46913D01*
X-198886Y-47199D01*
X-198315D01*
X-197458Y-46913D01*
X-196887Y-46342D01*
X-196601Y-45485D01*
Y-44914D01*
X-196887Y-44343D01*
X-197458Y-43771D01*
X-198315Y-43486D01*
X-198886D01*
X-199743Y-43771D01*
X-200314Y-44343D01*
X-200600Y-44914D01*
Y-45485D02*
X-200314Y-46057D01*
X-199743Y-46628D01*
X-198886Y-46913D01*
X-198315D01*
X-197458Y-46628D01*
X-196887Y-46057D01*
X-196601Y-45485D01*
Y-48942D02*
X-199743D01*
X-200314Y-49227D01*
X-200600Y-50084D01*
Y-50656D01*
X-200314Y-51512D01*
X-199743Y-52084D01*
X-196601Y-49227D02*
X-199743D01*
X-200314Y-49513D01*
X-200600Y-50084D01*
X-196601Y-52084D02*
X-200600D01*
X-196601Y-52369D02*
X-200600D01*
X-196601Y-48085D02*
Y-49227D01*
Y-51227D02*
Y-52369D01*
X-200600Y-52084D02*
Y-53226D01*
Y-55712D02*
X-200314Y-55426D01*
X-199457Y-55140D01*
X-194601D01*
Y-54855D01*
X-199457D01*
X-200314Y-55140D01*
X-200600Y-55712D01*
Y-56283D01*
X-200314Y-56854D01*
X-199743Y-57140D01*
X-196601Y-53998D02*
Y-56283D01*
X-198029Y-58111D02*
Y-63253D01*
X176301Y-61843D02*
X176587Y-62129D01*
X176873Y-61843D01*
X176587Y-61557D01*
X176301Y-61843D01*
X178301D02*
X182300D01*
X178301Y-61557D02*
X182300D01*
X178301Y-62700D02*
Y-61557D01*
X182300Y-62700D02*
Y-60701D01*
X178301Y-58758D02*
X182300D01*
X178301Y-58472D02*
X182300D01*
X179158D02*
X178586Y-57901D01*
X178301Y-57044D01*
Y-56473D01*
X178586Y-55616D01*
X179158Y-55330D01*
X182300D01*
X178301Y-56473D02*
X178586Y-55901D01*
X179158Y-55616D01*
X182300D01*
X178301Y-59615D02*
Y-58472D01*
X182300Y-59615D02*
Y-57615D01*
Y-56473D02*
Y-54473D01*
X177158Y-51131D02*
X182300D01*
X179729Y-53702D02*
Y-48560D01*
X212101Y-62643D02*
X212387Y-62929D01*
X212673Y-62643D01*
X212387Y-62357D01*
X212101Y-62643D01*
X214101D02*
X218100D01*
X214101Y-62357D02*
X218100D01*
X214101Y-63500D02*
Y-62357D01*
X218100Y-63500D02*
Y-61501D01*
X214101Y-59558D02*
X218100D01*
X214101Y-59272D02*
X218100D01*
X214958D02*
X214387Y-58701D01*
X214101Y-57844D01*
Y-57273D01*
X214387Y-56416D01*
X214958Y-56130D01*
X218100D01*
X214101Y-57273D02*
X214387Y-56701D01*
X214958Y-56416D01*
X218100D01*
X214101Y-60415D02*
Y-59272D01*
X218100Y-60415D02*
Y-58415D01*
Y-57273D02*
Y-55273D01*
X215529Y-54502D02*
Y-49360D01*
X178301Y-34686D02*
X178586Y-35543D01*
X179158Y-36114D01*
X180015Y-36400D01*
X180586D01*
X181443Y-36114D01*
X182014Y-35543D01*
X182300Y-34686D01*
Y-34115D01*
X182014Y-33258D01*
X181443Y-32686D01*
X180586Y-32401D01*
X180015D01*
X179158Y-32686D01*
X178586Y-33258D01*
X178301Y-34115D01*
Y-34686D01*
X178586Y-35257D01*
X179158Y-35829D01*
X180015Y-36114D01*
X180586D01*
X181443Y-35829D01*
X182014Y-35257D01*
X182300Y-34686D01*
Y-34115D02*
X182014Y-33544D01*
X181443Y-32972D01*
X180586Y-32686D01*
X180015D01*
X179158Y-32972D01*
X178586Y-33544D01*
X178301Y-34115D01*
Y-30658D02*
X181443D01*
X182014Y-30373D01*
X182300Y-29516D01*
Y-28945D01*
X182014Y-28087D01*
X181443Y-27516D01*
X178301Y-30373D02*
X181443D01*
X182014Y-30087D01*
X182300Y-29516D01*
X178301Y-27516D02*
X182300D01*
X178301Y-27231D02*
X182300D01*
X178301Y-31515D02*
Y-30373D01*
Y-28373D02*
Y-27231D01*
X182300Y-27516D02*
Y-26374D01*
Y-23888D02*
X182014Y-24174D01*
X181157Y-24460D01*
X176301D01*
Y-24745D01*
X181157D01*
X182014Y-24460D01*
X182300Y-23888D01*
Y-23317D01*
X182014Y-22746D01*
X181443Y-22460D01*
X178301Y-25602D02*
Y-23317D01*
X177158Y-18918D02*
X182300D01*
X179729Y-21489D02*
Y-16347D01*
X214101Y-35086D02*
X214387Y-35943D01*
X214958Y-36514D01*
X215815Y-36800D01*
X216386D01*
X217243Y-36514D01*
X217814Y-35943D01*
X218100Y-35086D01*
Y-34515D01*
X217814Y-33658D01*
X217243Y-33086D01*
X216386Y-32801D01*
X215815D01*
X214958Y-33086D01*
X214387Y-33658D01*
X214101Y-34515D01*
Y-35086D01*
X214387Y-35657D01*
X214958Y-36229D01*
X215815Y-36514D01*
X216386D01*
X217243Y-36229D01*
X217814Y-35657D01*
X218100Y-35086D01*
Y-34515D02*
X217814Y-33944D01*
X217243Y-33372D01*
X216386Y-33086D01*
X215815D01*
X214958Y-33372D01*
X214387Y-33944D01*
X214101Y-34515D01*
Y-31058D02*
X217243D01*
X217814Y-30773D01*
X218100Y-29916D01*
Y-29344D01*
X217814Y-28488D01*
X217243Y-27916D01*
X214101Y-30773D02*
X217243D01*
X217814Y-30487D01*
X218100Y-29916D01*
X214101Y-27916D02*
X218100D01*
X214101Y-27631D02*
X218100D01*
X214101Y-31915D02*
Y-30773D01*
Y-28773D02*
Y-27631D01*
X218100Y-27916D02*
Y-26774D01*
Y-24288D02*
X217814Y-24574D01*
X216957Y-24860D01*
X212101D01*
Y-25145D01*
X216957D01*
X217814Y-24860D01*
X218100Y-24288D01*
Y-23717D01*
X217814Y-23146D01*
X217243Y-22860D01*
X214101Y-26002D02*
Y-23717D01*
X215529Y-21889D02*
Y-16747D01*
X-96349Y-155267D02*
X-95015D01*
X-95682D01*
Y-151264D01*
X-96349Y-151931D01*
X276802Y-33001D02*
Y-37999D01*
X277801Y-38999D01*
X279801D01*
X280800Y-37999D01*
Y-33001D01*
X282800Y-34001D02*
X283799Y-33001D01*
X285799D01*
X286798Y-34001D01*
Y-35000D01*
X285799Y-36000D01*
X284799D01*
X285799D01*
X286798Y-37000D01*
Y-37999D01*
X285799Y-38999D01*
X283799D01*
X282800Y-37999D01*
X-279998Y-25999D02*
Y-20001D01*
X-276999D01*
X-276000Y-21001D01*
Y-23000D01*
X-276999Y-24000D01*
X-279998D01*
X-274000Y-20001D02*
X-270002D01*
Y-21001D01*
X-274000Y-24999D01*
Y-25999D01*
X50603Y-103899D02*
Y-97901D01*
X52602Y-99900D01*
X54601Y-97901D01*
Y-103899D01*
X56601Y-97901D02*
Y-103899D01*
X59600D01*
X60599Y-102899D01*
Y-98901D01*
X59600Y-97901D01*
X56601D01*
X62599Y-98901D02*
X63598Y-97901D01*
X65598D01*
X66597Y-98901D01*
Y-99900D01*
X65598Y-100900D01*
X64598D01*
X65598D01*
X66597Y-101900D01*
Y-102899D01*
X65598Y-103899D01*
X63598D01*
X62599Y-102899D01*
X-29897Y-103499D02*
Y-97501D01*
X-27898Y-99500D01*
X-25899Y-97501D01*
Y-103499D01*
X-23899Y-97501D02*
Y-103499D01*
X-20900D01*
X-19901Y-102499D01*
Y-98501D01*
X-20900Y-97501D01*
X-23899D01*
X-13903Y-103499D02*
X-17901D01*
X-13903Y-99500D01*
Y-98501D01*
X-14902Y-97501D01*
X-16902D01*
X-17901Y-98501D01*
X-115798Y-103899D02*
Y-97901D01*
X-113798Y-99900D01*
X-111799Y-97901D01*
Y-103899D01*
X-109800Y-97901D02*
Y-103899D01*
X-106801D01*
X-105801Y-102899D01*
Y-98901D01*
X-106801Y-97901D01*
X-109800D01*
X-103802Y-103899D02*
X-101802D01*
X-102802D01*
Y-97901D01*
X-103802Y-98901D01*
X125500Y-11533D02*
Y-5535D01*
X128499D01*
X129499Y-6535D01*
Y-8534D01*
X128499Y-9534D01*
X125500D01*
X135497Y-5535D02*
X133497Y-6535D01*
X131498Y-8534D01*
Y-10533D01*
X132498Y-11533D01*
X134497D01*
X135497Y-10533D01*
Y-9534D01*
X134497Y-8534D01*
X131498D01*
X95500Y-11533D02*
Y-5535D01*
X98499D01*
X99499Y-6535D01*
Y-8534D01*
X98499Y-9534D01*
X95500D01*
X105497Y-5535D02*
X101498D01*
Y-8534D01*
X103497Y-7534D01*
X104497D01*
X105497Y-8534D01*
Y-10533D01*
X104497Y-11533D01*
X102498D01*
X101498Y-10533D01*
X65500Y-11533D02*
Y-5535D01*
X68499D01*
X69499Y-6535D01*
Y-8534D01*
X68499Y-9534D01*
X65500D01*
X74497Y-11533D02*
Y-5535D01*
X71498Y-8534D01*
X75497D01*
X-74500Y-11533D02*
Y-5535D01*
X-71501D01*
X-70501Y-6535D01*
Y-8534D01*
X-71501Y-9534D01*
X-74500D01*
X-68502Y-6535D02*
X-67502Y-5535D01*
X-65503D01*
X-64503Y-6535D01*
Y-7534D01*
X-65503Y-8534D01*
X-66503D01*
X-65503D01*
X-64503Y-9534D01*
Y-10533D01*
X-65503Y-11533D01*
X-67502D01*
X-68502Y-10533D01*
X-104500Y-11533D02*
Y-5535D01*
X-101501D01*
X-100501Y-6535D01*
Y-8534D01*
X-101501Y-9534D01*
X-104500D01*
X-94503Y-11533D02*
X-98502D01*
X-94503Y-7534D01*
Y-6535D01*
X-95503Y-5535D01*
X-97502D01*
X-98502Y-6535D01*
X-134500Y-11533D02*
Y-5535D01*
X-131501D01*
X-130501Y-6535D01*
Y-8534D01*
X-131501Y-9534D01*
X-134500D01*
X-128502Y-11533D02*
X-126503D01*
X-127502D01*
Y-5535D01*
X-128502Y-6535D01*
X10002Y-44899D02*
Y-38901D01*
X12001Y-40900D01*
X14000Y-38901D01*
Y-44899D01*
X16000Y-39901D02*
X16999Y-38901D01*
X18999D01*
X19998Y-39901D01*
Y-40900D01*
X18999Y-41900D01*
X17999D01*
X18999D01*
X19998Y-42900D01*
Y-43899D01*
X18999Y-44899D01*
X16999D01*
X16000Y-43899D01*
X-230099Y-139599D02*
Y-133601D01*
X-228099Y-135600D01*
X-226100Y-133601D01*
Y-139599D01*
X-224101D02*
X-222101D01*
X-223101D01*
Y-133601D01*
X-224101Y-134601D01*
X161202Y-34701D02*
Y-39699D01*
X162201Y-40699D01*
X164201D01*
X165200Y-39699D01*
Y-34701D01*
X171198Y-40699D02*
X167200D01*
X171198Y-36700D01*
Y-35701D01*
X170199Y-34701D01*
X168199D01*
X167200Y-35701D01*
X-214999Y-17901D02*
Y-22899D01*
X-213999Y-23899D01*
X-212000D01*
X-211000Y-22899D01*
Y-17901D01*
X-209001Y-23899D02*
X-207001D01*
X-208001D01*
Y-17901D01*
X-209001Y-18901D01*
X140500Y-96833D02*
Y-90835D01*
X142499Y-92834D01*
X144499Y-90835D01*
Y-96833D01*
X150497D02*
X146498D01*
X150497Y-92834D01*
Y-91835D01*
X149497Y-90835D01*
X147498D01*
X146498Y-91835D01*
X-253498Y-91601D02*
X-254498Y-90601D01*
X-256497D01*
X-257497Y-91601D01*
Y-95599D01*
X-256497Y-96599D01*
X-254498D01*
X-253498Y-95599D01*
X-248500Y-90601D02*
X-250499D01*
X-251499Y-91601D01*
Y-95599D01*
X-250499Y-96599D01*
X-248500D01*
X-247500Y-95599D01*
Y-91601D01*
X-248500Y-90601D01*
X-245501Y-96599D02*
Y-90601D01*
X-241502Y-96599D01*
Y-90601D01*
X-239503Y-96599D02*
X-237503D01*
X-238503D01*
Y-90601D01*
X-239503Y-91601D01*
X-128000Y-121133D02*
Y-117134D01*
X-126001Y-115135D01*
X-124001Y-117134D01*
Y-121133D01*
Y-118134D01*
X-128000D01*
X-122002Y-121133D02*
X-120003D01*
X-121002D01*
Y-115135D01*
X-122002Y-116135D01*
D15*
X-40500Y-25800D02*
X40500Y-25900D01*
X-40500Y-35700D02*
Y-25800D01*
Y-35700D02*
X40500D01*
Y-25900D01*
M02*
