G04*
G04 #@! TF.GenerationSoftware,Altium Limited,Altium Designer,21.2.0 (30)*
G04*
G04 Layer_Color=255*
%FSLAX25Y25*%
%MOIN*%
G70*
G04*
G04 #@! TF.SameCoordinates,915FADF9-C2CC-4250-813C-173C15824247*
G04*
G04*
G04 #@! TF.FilePolarity,Positive*
G04*
G01*
G75*
G04:AMPARAMS|DCode=31|XSize=75mil|YSize=60mil|CornerRadius=0mil|HoleSize=0mil|Usage=FLASHONLY|Rotation=90.000|XOffset=0mil|YOffset=0mil|HoleType=Round|Shape=Octagon|*
%AMOCTAGOND31*
4,1,8,0.01500,0.03750,-0.01500,0.03750,-0.03000,0.02250,-0.03000,-0.02250,-0.01500,-0.03750,0.01500,-0.03750,0.03000,-0.02250,0.03000,0.02250,0.01500,0.03750,0.0*
%
%ADD31OCTAGOND31*%

%ADD32C,0.06000*%
%ADD33C,0.10827*%
%ADD34C,0.05937*%
%ADD35R,0.05937X0.05937*%
G04:AMPARAMS|DCode=36|XSize=75mil|YSize=60mil|CornerRadius=0mil|HoleSize=0mil|Usage=FLASHONLY|Rotation=0.000|XOffset=0mil|YOffset=0mil|HoleType=Round|Shape=Octagon|*
%AMOCTAGOND36*
4,1,8,0.03750,-0.01500,0.03750,0.01500,0.02250,0.03000,-0.02250,0.03000,-0.03750,0.01500,-0.03750,-0.01500,-0.02250,-0.03000,0.02250,-0.03000,0.03750,-0.01500,0.0*
%
%ADD36OCTAGOND36*%

%ADD37C,0.12000*%
%ADD38P,0.12989X8X22.5*%
%ADD39C,0.26576*%
%ADD40R,0.22835X0.22835*%
D31*
X-80000Y-90000D02*
D03*
X-90000D02*
D03*
X-5000Y-30800D02*
D03*
X-15000D02*
D03*
X145000Y-110000D02*
D03*
X155000D02*
D03*
X165000D02*
D03*
X175000D02*
D03*
X185000D02*
D03*
X195000D02*
D03*
X205000D02*
D03*
X215000D02*
D03*
X145000Y-170000D02*
D03*
X155000D02*
D03*
X165000D02*
D03*
X175000D02*
D03*
X185000D02*
D03*
X195000D02*
D03*
X205000D02*
D03*
X215000D02*
D03*
X-215000Y-110000D02*
D03*
X-205000D02*
D03*
X-195000D02*
D03*
X-185000D02*
D03*
X-175000D02*
D03*
X-165000D02*
D03*
X-155000D02*
D03*
X-145000D02*
D03*
X-215000Y-170000D02*
D03*
X-205000D02*
D03*
X-195000D02*
D03*
X-185000D02*
D03*
X-175000D02*
D03*
X-165000D02*
D03*
X-155000D02*
D03*
X-145000D02*
D03*
X35000Y-30800D02*
D03*
X25000D02*
D03*
X15000D02*
D03*
X5000D02*
D03*
X-25000D02*
D03*
X-35000D02*
D03*
X-110000Y-90000D02*
D03*
X-100000D02*
D03*
X-70000D02*
D03*
X-60000D02*
D03*
X-25000D02*
D03*
X-15000D02*
D03*
X-5000D02*
D03*
X5000D02*
D03*
X15000D02*
D03*
X25000D02*
D03*
X55000D02*
D03*
X65000D02*
D03*
X75000D02*
D03*
X85000D02*
D03*
X95000D02*
D03*
X105000D02*
D03*
D32*
X270000Y-70000D02*
D03*
Y-10000D02*
D03*
X230000Y-70000D02*
D03*
Y-10000D02*
D03*
X-200000D02*
D03*
Y-70000D02*
D03*
X-160000Y-10000D02*
D03*
Y-70000D02*
D03*
X217500D02*
D03*
Y-10000D02*
D03*
X177500Y-70000D02*
D03*
Y-10000D02*
D03*
D33*
X114173Y-139000D02*
D03*
Y-229551D02*
D03*
X-114173Y-139000D02*
D03*
Y-229551D02*
D03*
D34*
X95000Y-134000D02*
D03*
Y-144000D02*
D03*
X85000Y-134000D02*
D03*
Y-144000D02*
D03*
X75000Y-134000D02*
D03*
Y-144000D02*
D03*
X65000Y-134000D02*
D03*
Y-144000D02*
D03*
X55000Y-134000D02*
D03*
Y-144000D02*
D03*
X45000Y-134000D02*
D03*
Y-144000D02*
D03*
X35000Y-134000D02*
D03*
Y-144000D02*
D03*
X25000Y-134000D02*
D03*
Y-144000D02*
D03*
X15000Y-134000D02*
D03*
Y-144000D02*
D03*
X5000Y-134000D02*
D03*
Y-144000D02*
D03*
X-5000Y-134000D02*
D03*
Y-144000D02*
D03*
X-15000Y-134000D02*
D03*
Y-144000D02*
D03*
X-25000Y-134000D02*
D03*
Y-144000D02*
D03*
X-35000Y-134000D02*
D03*
Y-144000D02*
D03*
X-45000Y-134000D02*
D03*
Y-144000D02*
D03*
X-55000Y-134000D02*
D03*
Y-144000D02*
D03*
X-65000Y-134000D02*
D03*
Y-144000D02*
D03*
X-75000Y-134000D02*
D03*
Y-144000D02*
D03*
X-85000Y-134000D02*
D03*
Y-144000D02*
D03*
X-95000Y-134000D02*
D03*
D35*
Y-144000D02*
D03*
D36*
X-130000Y-40000D02*
D03*
Y-30000D02*
D03*
Y-20000D02*
D03*
X130000Y-40000D02*
D03*
Y-30000D02*
D03*
Y-20000D02*
D03*
X-70000Y-40000D02*
D03*
Y-30000D02*
D03*
Y-20000D02*
D03*
X-100000Y-40000D02*
D03*
Y-30000D02*
D03*
Y-20000D02*
D03*
X100000Y-40000D02*
D03*
Y-30000D02*
D03*
Y-20000D02*
D03*
X70000Y-40000D02*
D03*
Y-30000D02*
D03*
Y-20000D02*
D03*
D37*
X-235550Y-23950D02*
D03*
D38*
X-255550D02*
D03*
D39*
X-231654Y-70000D02*
D03*
D40*
X-260000D02*
D03*
M02*
