G04*
G04 #@! TF.GenerationSoftware,Altium Limited,Altium Designer,21.2.0 (30)*
G04*
G04 Layer_Physical_Order=1*
G04 Layer_Color=255*
%FSLAX25Y25*%
%MOIN*%
G70*
G04*
G04 #@! TF.SameCoordinates,915FADF9-C2CC-4250-813C-173C15824247*
G04*
G04*
G04 #@! TF.FilePolarity,Positive*
G04*
G01*
G75*
%ADD10C,0.03937*%
%ADD12C,0.05000*%
%ADD14C,0.01000*%
%ADD27C,0.01575*%
%ADD28C,0.02362*%
%ADD29C,0.07874*%
%ADD30C,0.11811*%
G04:AMPARAMS|DCode=31|XSize=75mil|YSize=60mil|CornerRadius=0mil|HoleSize=0mil|Usage=FLASHONLY|Rotation=90.000|XOffset=0mil|YOffset=0mil|HoleType=Round|Shape=Octagon|*
%AMOCTAGOND31*
4,1,8,0.01500,0.03750,-0.01500,0.03750,-0.03000,0.02250,-0.03000,-0.02250,-0.01500,-0.03750,0.01500,-0.03750,0.03000,-0.02250,0.03000,0.02250,0.01500,0.03750,0.0*
%
%ADD31OCTAGOND31*%

%ADD32C,0.06000*%
%ADD33C,0.10827*%
%ADD34C,0.05937*%
%ADD35R,0.05937X0.05937*%
G04:AMPARAMS|DCode=36|XSize=75mil|YSize=60mil|CornerRadius=0mil|HoleSize=0mil|Usage=FLASHONLY|Rotation=0.000|XOffset=0mil|YOffset=0mil|HoleType=Round|Shape=Octagon|*
%AMOCTAGOND36*
4,1,8,0.03750,-0.01500,0.03750,0.01500,0.02250,0.03000,-0.02250,0.03000,-0.03750,0.01500,-0.03750,-0.01500,-0.02250,-0.03000,0.02250,-0.03000,0.03750,-0.01500,0.0*
%
%ADD36OCTAGOND36*%

%ADD37C,0.12000*%
%ADD38P,0.12989X8X22.5*%
%ADD39C,0.26576*%
%ADD40R,0.22835X0.22835*%
%ADD41C,0.05000*%
G36*
X293130Y-4338D02*
X293044Y-9593D01*
X292573Y-19176D01*
X291789Y-28739D01*
X290692Y-38270D01*
X289284Y-47761D01*
X287567Y-57201D01*
X285541Y-66579D01*
X283210Y-75886D01*
X280576Y-85112D01*
X277641Y-94246D01*
X274408Y-103280D01*
X270882Y-112203D01*
X267066Y-121006D01*
X262964Y-129679D01*
X258580Y-138214D01*
X253919Y-146600D01*
X248987Y-154830D01*
X243787Y-162894D01*
X238327Y-170783D01*
X232612Y-178489D01*
X226647Y-186004D01*
X220440Y-193321D01*
X213997Y-200430D01*
X207324Y-207324D01*
X200430Y-213997D01*
X193321Y-220440D01*
X186004Y-226647D01*
X178489Y-232612D01*
X176445Y-234128D01*
X123215Y-234128D01*
X121970Y-232767D01*
X121014Y-230978D01*
X121161Y-230240D01*
Y-228863D01*
X120893Y-227513D01*
X120366Y-226241D01*
X119601Y-225097D01*
X118628Y-224123D01*
X117483Y-223358D01*
X116212Y-222832D01*
X114862Y-222563D01*
X113485D01*
X112135Y-222832D01*
X110863Y-223358D01*
X109719Y-224123D01*
X108745Y-225097D01*
X107980Y-226241D01*
X107454Y-227513D01*
X107185Y-228863D01*
Y-230240D01*
X107332Y-230978D01*
X106377Y-232767D01*
X105132Y-234128D01*
X0Y-234128D01*
X-105132Y-234128D01*
X-106377Y-232767D01*
X-107332Y-230978D01*
X-107185Y-230240D01*
Y-228863D01*
X-107454Y-227513D01*
X-107980Y-226241D01*
X-108745Y-225097D01*
X-109719Y-224123D01*
X-110863Y-223358D01*
X-112135Y-222832D01*
X-113485Y-222563D01*
X-114862D01*
X-116212Y-222832D01*
X-117483Y-223358D01*
X-118628Y-224123D01*
X-119601Y-225097D01*
X-120366Y-226241D01*
X-120893Y-227513D01*
X-121161Y-228863D01*
Y-230240D01*
X-121014Y-230978D01*
X-121970Y-232767D01*
X-123215Y-234128D01*
X-176445Y-234128D01*
X-178489Y-232612D01*
X-186004Y-226647D01*
X-193321Y-220440D01*
X-200430Y-213997D01*
X-207324Y-207324D01*
X-213997Y-200430D01*
X-220440Y-193321D01*
X-226647Y-186004D01*
X-232612Y-178489D01*
X-238327Y-170783D01*
X-243787Y-162894D01*
X-248987Y-154830D01*
X-253919Y-146600D01*
X-258580Y-138214D01*
X-262964Y-129679D01*
X-267066Y-121006D01*
X-270882Y-112203D01*
X-274408Y-103280D01*
X-277641Y-94246D01*
X-280576Y-85112D01*
X-283210Y-75886D01*
X-285541Y-66579D01*
X-287567Y-57201D01*
X-289284Y-47761D01*
X-290692Y-38270D01*
X-291789Y-28739D01*
X-292573Y-19176D01*
X-293044Y-9593D01*
X-293130Y-4338D01*
X-290921Y-2093D01*
X290921D01*
X293130Y-4338D01*
D02*
G37*
%LPC*%
G36*
X271181Y-5570D02*
Y-8819D01*
X274429D01*
X274399Y-8666D01*
X274054Y-7833D01*
X273553Y-7084D01*
X272916Y-6447D01*
X272167Y-5946D01*
X271334Y-5601D01*
X271181Y-5570D01*
D02*
G37*
G36*
X218681D02*
Y-8819D01*
X221930D01*
X221899Y-8666D01*
X221554Y-7833D01*
X221054Y-7084D01*
X220416Y-6447D01*
X219667Y-5946D01*
X218834Y-5601D01*
X218681Y-5570D01*
D02*
G37*
G36*
X-198819Y-5570D02*
Y-8819D01*
X-195571D01*
X-195601Y-8666D01*
X-195946Y-7833D01*
X-196447Y-7084D01*
X-197084Y-6447D01*
X-197833Y-5946D01*
X-198666Y-5601D01*
X-198819Y-5570D01*
D02*
G37*
G36*
X-201181Y-5570D02*
X-201334Y-5601D01*
X-202167Y-5946D01*
X-202916Y-6447D01*
X-203554Y-7084D01*
X-204054Y-7833D01*
X-204399Y-8666D01*
X-204430Y-8819D01*
X-201181D01*
Y-5570D01*
D02*
G37*
G36*
X268819Y-5570D02*
X268666Y-5601D01*
X267833Y-5946D01*
X267084Y-6447D01*
X266446Y-7084D01*
X265946Y-7833D01*
X265601Y-8666D01*
X265570Y-8819D01*
X268819D01*
Y-5570D01*
D02*
G37*
G36*
X216319D02*
X216166Y-5601D01*
X215333Y-5946D01*
X214584Y-6447D01*
X213947Y-7084D01*
X213446Y-7833D01*
X213101Y-8666D01*
X213071Y-8819D01*
X216319D01*
Y-5570D01*
D02*
G37*
G36*
X274429Y-11181D02*
X271181D01*
Y-14430D01*
X271334Y-14399D01*
X272167Y-14054D01*
X272916Y-13554D01*
X273553Y-12916D01*
X274054Y-12167D01*
X274399Y-11334D01*
X274429Y-11181D01*
D02*
G37*
G36*
X221930D02*
X218681D01*
Y-14430D01*
X218834Y-14399D01*
X219667Y-14054D01*
X220416Y-13554D01*
X221054Y-12916D01*
X221554Y-12167D01*
X221899Y-11334D01*
X221930Y-11181D01*
D02*
G37*
G36*
X-201181D02*
X-204430D01*
X-204399Y-11334D01*
X-204054Y-12167D01*
X-203554Y-12916D01*
X-202916Y-13554D01*
X-202167Y-14054D01*
X-201334Y-14399D01*
X-201181Y-14430D01*
Y-11181D01*
D02*
G37*
G36*
X-195571D02*
X-198819D01*
Y-14430D01*
X-198666Y-14399D01*
X-197833Y-14054D01*
X-197084Y-13554D01*
X-196447Y-12916D01*
X-195946Y-12167D01*
X-195601Y-11334D01*
X-195571Y-11181D01*
D02*
G37*
G36*
X268819D02*
X265570D01*
X265601Y-11334D01*
X265946Y-12167D01*
X266446Y-12916D01*
X267084Y-13554D01*
X267833Y-14054D01*
X268666Y-14399D01*
X268819Y-14430D01*
Y-11181D01*
D02*
G37*
G36*
X216319D02*
X213071D01*
X213101Y-11334D01*
X213446Y-12167D01*
X213947Y-12916D01*
X214584Y-13554D01*
X215333Y-14054D01*
X216166Y-14399D01*
X216319Y-14430D01*
Y-11181D01*
D02*
G37*
G36*
X-159549Y-5425D02*
X-160451D01*
X-161334Y-5601D01*
X-162167Y-5946D01*
X-162916Y-6447D01*
X-163554Y-7084D01*
X-164054Y-7833D01*
X-164399Y-8666D01*
X-164575Y-9549D01*
Y-10451D01*
X-164399Y-11334D01*
X-164054Y-12167D01*
X-163554Y-12916D01*
X-162916Y-13554D01*
X-162167Y-14054D01*
X-161334Y-14399D01*
X-160451Y-14575D01*
X-159549D01*
X-158666Y-14399D01*
X-157833Y-14054D01*
X-157084Y-13554D01*
X-156447Y-12916D01*
X-155946Y-12167D01*
X-155601Y-11334D01*
X-155425Y-10451D01*
Y-9549D01*
X-155601Y-8666D01*
X-155946Y-7833D01*
X-156447Y-7084D01*
X-157084Y-6447D01*
X-157833Y-5946D01*
X-158666Y-5601D01*
X-159549Y-5425D01*
D02*
G37*
G36*
X177951D02*
X177049D01*
X176166Y-5601D01*
X175333Y-5946D01*
X174584Y-6447D01*
X173946Y-7084D01*
X173446Y-7833D01*
X173101Y-8666D01*
X172932Y-9513D01*
X166020Y-16426D01*
X134038D01*
X133037Y-15425D01*
X126963D01*
X125962Y-16426D01*
X104038D01*
X103037Y-15425D01*
X96963D01*
X95962Y-16426D01*
X74038D01*
X73037Y-15425D01*
X66963D01*
X65962Y-16426D01*
X-65962D01*
X-66963Y-15425D01*
X-73037D01*
X-74038Y-16426D01*
X-95962D01*
X-96963Y-15425D01*
X-103037D01*
X-104038Y-16426D01*
X-125962D01*
X-126963Y-15425D01*
X-133037D01*
X-135325Y-17713D01*
Y-22287D01*
X-134663Y-22949D01*
X-133317Y-25000D01*
X-134663Y-27051D01*
X-135325Y-27713D01*
Y-28819D01*
X-124675D01*
Y-27713D01*
X-125337Y-27051D01*
X-125621Y-26618D01*
X-124360Y-23574D01*
X-105640D01*
X-104379Y-26618D01*
X-104663Y-27051D01*
X-105325Y-27713D01*
Y-28819D01*
X-94675D01*
Y-27713D01*
X-95337Y-27051D01*
X-95621Y-26618D01*
X-94360Y-23574D01*
X-75640D01*
X-74379Y-26618D01*
X-74663Y-27051D01*
X-75325Y-27713D01*
Y-28819D01*
X-64675D01*
Y-27713D01*
X-65337Y-27051D01*
X-65621Y-26618D01*
X-64360Y-23574D01*
X-39840D01*
X-38536Y-26724D01*
X-39575Y-27763D01*
Y-33837D01*
X-37287Y-36125D01*
X-32713D01*
X-32051Y-35463D01*
X-30000Y-34117D01*
X-27949Y-35463D01*
X-27287Y-36125D01*
X-26181D01*
Y-30800D01*
X-23819D01*
Y-36125D01*
X-22713D01*
X-22051Y-35463D01*
X-20000Y-34117D01*
X-17949Y-35463D01*
X-17287Y-36125D01*
X-12713D01*
X-12051Y-35463D01*
X-10000Y-34117D01*
X-7949Y-35463D01*
X-7287Y-36125D01*
X-2713D01*
X-2051Y-35463D01*
X0Y-34117D01*
X2051Y-35463D01*
X2713Y-36125D01*
X7287D01*
X7949Y-35463D01*
X10000Y-34117D01*
X12051Y-35463D01*
X12713Y-36125D01*
X17287D01*
X17949Y-35463D01*
X20000Y-34117D01*
X22051Y-35463D01*
X22713Y-36125D01*
X27287D01*
X27949Y-35463D01*
X30000Y-34117D01*
X32051Y-35463D01*
X32713Y-36125D01*
X37287D01*
X39575Y-33837D01*
Y-27763D01*
X38536Y-26724D01*
X39840Y-23574D01*
X64360D01*
X65621Y-26618D01*
X65337Y-27051D01*
X64675Y-27713D01*
Y-28819D01*
X75325D01*
Y-27713D01*
X74663Y-27051D01*
X74379Y-26618D01*
X75640Y-23574D01*
X94360D01*
X95621Y-26618D01*
X95337Y-27051D01*
X94675Y-27713D01*
Y-28819D01*
X105325D01*
Y-27713D01*
X104663Y-27051D01*
X104379Y-26618D01*
X105640Y-23574D01*
X124360D01*
X125621Y-26618D01*
X125337Y-27051D01*
X124675Y-27713D01*
Y-28819D01*
X135325D01*
Y-27713D01*
X134663Y-27051D01*
X134379Y-26618D01*
X135640Y-23574D01*
X167500D01*
X168425Y-23452D01*
X169287Y-23095D01*
X170027Y-22527D01*
X177987Y-14568D01*
X178834Y-14399D01*
X179667Y-14054D01*
X180416Y-13554D01*
X181053Y-12916D01*
X181554Y-12167D01*
X181899Y-11334D01*
X182075Y-10451D01*
Y-9549D01*
X181899Y-8666D01*
X181554Y-7833D01*
X181053Y-7084D01*
X180416Y-6447D01*
X179667Y-5946D01*
X178834Y-5601D01*
X177951Y-5425D01*
D02*
G37*
G36*
X-234804Y-16375D02*
X-236296D01*
X-237759Y-16666D01*
X-239138Y-17237D01*
X-240379Y-18066D01*
X-241434Y-19121D01*
X-242263Y-20362D01*
X-242834Y-21741D01*
X-243125Y-23204D01*
Y-24696D01*
X-242834Y-26160D01*
X-242263Y-27538D01*
X-241434Y-28779D01*
X-240379Y-29834D01*
X-239138Y-30663D01*
X-237759Y-31234D01*
X-236296Y-31525D01*
X-234804D01*
X-233341Y-31234D01*
X-231962Y-30663D01*
X-230721Y-29834D01*
X-229666Y-28779D01*
X-228837Y-27538D01*
X-228266Y-26160D01*
X-227975Y-24696D01*
Y-23204D01*
X-228266Y-21741D01*
X-228837Y-20362D01*
X-229666Y-19121D01*
X-230721Y-18066D01*
X-231962Y-17237D01*
X-233341Y-16666D01*
X-234804Y-16375D01*
D02*
G37*
G36*
X-251763D02*
X-259337D01*
X-263125Y-20163D01*
Y-27737D01*
X-259337Y-31525D01*
X-251763D01*
X-247975Y-27737D01*
Y-20163D01*
X-251763Y-16375D01*
D02*
G37*
G36*
X135325Y-31181D02*
X124675D01*
Y-32287D01*
X125337Y-32949D01*
X126683Y-35000D01*
X125337Y-37051D01*
X124675Y-37713D01*
Y-42287D01*
X126963Y-44575D01*
X133037D01*
X135325Y-42287D01*
Y-37713D01*
X134663Y-37051D01*
X133317Y-35000D01*
X134663Y-32949D01*
X135325Y-32287D01*
Y-31181D01*
D02*
G37*
G36*
X105325D02*
X94675D01*
Y-32287D01*
X95337Y-32949D01*
X96683Y-35000D01*
X95337Y-37051D01*
X94675Y-37713D01*
Y-42287D01*
X96963Y-44575D01*
X103037D01*
X105325Y-42287D01*
Y-37713D01*
X104663Y-37051D01*
X103317Y-35000D01*
X104663Y-32949D01*
X105325Y-32287D01*
Y-31181D01*
D02*
G37*
G36*
X75325D02*
X64675D01*
Y-32287D01*
X65337Y-32949D01*
X66683Y-35000D01*
X65337Y-37051D01*
X64675Y-37713D01*
Y-42287D01*
X66963Y-44575D01*
X73037D01*
X75325Y-42287D01*
Y-37713D01*
X74663Y-37051D01*
X73317Y-35000D01*
X74663Y-32949D01*
X75325Y-32287D01*
Y-31181D01*
D02*
G37*
G36*
X-64675D02*
X-75325D01*
Y-32287D01*
X-74663Y-32949D01*
X-73317Y-35000D01*
X-74663Y-37051D01*
X-75325Y-37713D01*
Y-42287D01*
X-73037Y-44575D01*
X-66963D01*
X-64675Y-42287D01*
Y-37713D01*
X-65337Y-37051D01*
X-66683Y-35000D01*
X-65337Y-32949D01*
X-64675Y-32287D01*
Y-31181D01*
D02*
G37*
G36*
X-94675D02*
X-105325D01*
Y-32287D01*
X-104663Y-32949D01*
X-103317Y-35000D01*
X-104663Y-37051D01*
X-105325Y-37713D01*
Y-42287D01*
X-103037Y-44575D01*
X-96963D01*
X-94675Y-42287D01*
Y-37713D01*
X-95337Y-37051D01*
X-96683Y-35000D01*
X-95337Y-32949D01*
X-94675Y-32287D01*
Y-31181D01*
D02*
G37*
G36*
X-124675D02*
X-135325D01*
Y-32287D01*
X-134663Y-32949D01*
X-133317Y-35000D01*
X-134663Y-37051D01*
X-135325Y-37713D01*
Y-42287D01*
X-133037Y-44575D01*
X-126963D01*
X-124675Y-42287D01*
Y-37713D01*
X-125337Y-37051D01*
X-126683Y-35000D01*
X-125337Y-32949D01*
X-124675Y-32287D01*
Y-31181D01*
D02*
G37*
G36*
X230451Y-5425D02*
X229549D01*
X228666Y-5601D01*
X227833Y-5946D01*
X227084Y-6447D01*
X226447Y-7084D01*
X225946Y-7833D01*
X225601Y-8666D01*
X225425Y-9549D01*
Y-10451D01*
X225601Y-11334D01*
X225946Y-12167D01*
X226447Y-12916D01*
X227084Y-13554D01*
X227833Y-14054D01*
X228666Y-14399D01*
X229513Y-14568D01*
X235026Y-20080D01*
Y-57177D01*
X235023Y-57180D01*
X231876Y-58364D01*
X225106Y-51594D01*
X224255Y-50941D01*
X223264Y-50530D01*
X222200Y-50390D01*
X186200D01*
X185136Y-50530D01*
X184145Y-50941D01*
X183294Y-51594D01*
X174627Y-60260D01*
X173974Y-61112D01*
X173564Y-62103D01*
X173424Y-63166D01*
Y-67887D01*
X173101Y-68666D01*
X172925Y-69549D01*
Y-70451D01*
X172972Y-70685D01*
X171366Y-71945D01*
X170191Y-72359D01*
X152416Y-54584D01*
X151577Y-53895D01*
X150619Y-53383D01*
X149581Y-53068D01*
X148500Y-52961D01*
X-148500D01*
X-148500Y-52961D01*
X-149581Y-53068D01*
X-150619Y-53383D01*
X-151577Y-53895D01*
X-152416Y-54584D01*
X-152416Y-54584D01*
X-163916Y-66084D01*
X-164605Y-66923D01*
X-165117Y-67880D01*
X-165432Y-68919D01*
X-165539Y-70000D01*
X-165432Y-71080D01*
X-165117Y-72119D01*
X-164605Y-73077D01*
X-163916Y-73916D01*
X-163077Y-74605D01*
X-162119Y-75117D01*
X-161081Y-75432D01*
X-161469Y-78469D01*
X-161700Y-78520D01*
X-167200D01*
X-167919Y-78615D01*
X-168590Y-78893D01*
X-169166Y-79334D01*
X-186966Y-97135D01*
X-187407Y-97710D01*
X-187685Y-98381D01*
X-187780Y-99100D01*
Y-104774D01*
X-190414Y-106412D01*
X-192051Y-105337D01*
X-192713Y-104675D01*
X-197287D01*
X-197949Y-105337D01*
X-200000Y-106683D01*
X-202051Y-105337D01*
X-202713Y-104675D01*
X-207287D01*
X-207949Y-105337D01*
X-210000Y-106683D01*
X-212051Y-105337D01*
X-212713Y-104675D01*
X-213819D01*
Y-110000D01*
Y-115325D01*
X-212713D01*
X-212051Y-114663D01*
X-210000Y-113317D01*
X-207949Y-114663D01*
X-207287Y-115325D01*
X-202713D01*
X-202051Y-114663D01*
X-200000Y-113317D01*
X-197949Y-114663D01*
X-197287Y-115325D01*
X-192713D01*
X-192051Y-114663D01*
X-190000Y-113317D01*
X-187949Y-114663D01*
X-187287Y-115325D01*
X-182713D01*
X-182051Y-114663D01*
X-180000Y-113317D01*
X-177949Y-114663D01*
X-177287Y-115325D01*
X-172713D01*
X-172051Y-114663D01*
X-170000Y-113317D01*
X-167949Y-114663D01*
X-167287Y-115325D01*
X-166181D01*
Y-110000D01*
Y-104675D01*
X-167287D01*
X-167949Y-105337D01*
X-169586Y-106412D01*
X-172220Y-104774D01*
Y-101451D01*
X-163549Y-92780D01*
X-114575D01*
Y-93037D01*
X-112287Y-95325D01*
X-107713D01*
X-107051Y-94663D01*
X-105000Y-93317D01*
X-102949Y-94663D01*
X-102287Y-95325D01*
X-101181D01*
Y-90000D01*
X-98819D01*
Y-95325D01*
X-97713D01*
X-97051Y-94663D01*
X-95000Y-93317D01*
X-92949Y-94663D01*
X-92287Y-95325D01*
X-87713D01*
X-87051Y-94663D01*
X-85000Y-93317D01*
X-82949Y-94663D01*
X-82287Y-95325D01*
X-77713D01*
X-77051Y-94663D01*
X-75414Y-93588D01*
X-72780Y-95226D01*
Y-98549D01*
X-74751Y-100520D01*
X-117125D01*
X-117844Y-100615D01*
X-118515Y-100893D01*
X-119090Y-101335D01*
X-134626Y-116870D01*
X-139804D01*
X-141109Y-113721D01*
X-140425Y-113037D01*
Y-106963D01*
X-142713Y-104675D01*
X-147287D01*
X-147949Y-105337D01*
X-150000Y-106683D01*
X-152051Y-105337D01*
X-152713Y-104675D01*
X-157287D01*
X-157949Y-105337D01*
X-160000Y-106683D01*
X-162051Y-105337D01*
X-162713Y-104675D01*
X-163819D01*
Y-110000D01*
Y-115325D01*
X-162713D01*
X-162051Y-114663D01*
X-160184Y-113437D01*
X-157661Y-115052D01*
Y-115418D01*
X-157567Y-116138D01*
X-157289Y-116808D01*
X-156847Y-117384D01*
X-152615Y-121616D01*
X-152040Y-122057D01*
X-151369Y-122335D01*
X-150650Y-122430D01*
X-133475D01*
X-132756Y-122335D01*
X-132085Y-122057D01*
X-131509Y-121616D01*
X-115974Y-106080D01*
X-73600D01*
X-72881Y-105985D01*
X-72210Y-105707D01*
X-70579Y-108283D01*
X-81704Y-119408D01*
X-82083Y-119902D01*
X-82182Y-120140D01*
X-82321Y-120476D01*
X-82402Y-121093D01*
Y-125117D01*
X-85552Y-126421D01*
X-88221Y-123752D01*
X-88961Y-123185D01*
X-89823Y-122827D01*
X-90748Y-122706D01*
X-100994D01*
X-101919Y-122827D01*
X-102781Y-123185D01*
X-103521Y-123752D01*
X-105827Y-126059D01*
X-106395Y-126799D01*
X-106752Y-127661D01*
X-106874Y-128586D01*
Y-131962D01*
X-108845Y-133078D01*
X-110023Y-133368D01*
X-110863Y-132807D01*
X-112135Y-132280D01*
X-113485Y-132012D01*
X-114862D01*
X-116212Y-132280D01*
X-117483Y-132807D01*
X-118628Y-133572D01*
X-119601Y-134545D01*
X-120366Y-135690D01*
X-120893Y-136962D01*
X-121161Y-138312D01*
Y-139688D01*
X-120893Y-141038D01*
X-120366Y-142310D01*
X-119601Y-143455D01*
X-118628Y-144428D01*
X-117483Y-145193D01*
X-116212Y-145720D01*
X-114862Y-145988D01*
X-113485D01*
X-112135Y-145720D01*
X-110863Y-145193D01*
X-110023Y-144632D01*
X-108845Y-144922D01*
X-106874Y-146038D01*
Y-178100D01*
X-106752Y-179025D01*
X-106395Y-179887D01*
X-105827Y-180627D01*
X-88527Y-197927D01*
X-88527Y-197927D01*
X-87787Y-198495D01*
X-86925Y-198852D01*
X-86000Y-198974D01*
X204200D01*
X205125Y-198852D01*
X205987Y-198495D01*
X206727Y-197927D01*
X228627Y-176027D01*
X229195Y-175287D01*
X229552Y-174425D01*
X229674Y-173500D01*
X229674Y-173500D01*
Y-104680D01*
X241127Y-93227D01*
X241695Y-92487D01*
X242052Y-91625D01*
X242174Y-90700D01*
Y-18600D01*
X242174Y-18600D01*
X242052Y-17675D01*
X241695Y-16813D01*
X241127Y-16073D01*
X234568Y-9513D01*
X234399Y-8666D01*
X234054Y-7833D01*
X233554Y-7084D01*
X232916Y-6447D01*
X232167Y-5946D01*
X231334Y-5601D01*
X230451Y-5425D01*
D02*
G37*
G36*
X271181Y-65570D02*
Y-68819D01*
X274429D01*
X274399Y-68666D01*
X274054Y-67833D01*
X273553Y-67084D01*
X272916Y-66447D01*
X272167Y-65946D01*
X271334Y-65601D01*
X271181Y-65570D01*
D02*
G37*
G36*
X-198819Y-65570D02*
Y-68819D01*
X-195571D01*
X-195601Y-68666D01*
X-195946Y-67833D01*
X-196447Y-67084D01*
X-197084Y-66447D01*
X-197833Y-65946D01*
X-198666Y-65601D01*
X-198819Y-65570D01*
D02*
G37*
G36*
X-201181Y-65570D02*
X-201334Y-65601D01*
X-202167Y-65946D01*
X-202916Y-66447D01*
X-203554Y-67084D01*
X-204054Y-67833D01*
X-204399Y-68666D01*
X-204430Y-68819D01*
X-201181D01*
Y-65570D01*
D02*
G37*
G36*
X268819Y-65570D02*
X268666Y-65601D01*
X267833Y-65946D01*
X267084Y-66447D01*
X266446Y-67084D01*
X265946Y-67833D01*
X265601Y-68666D01*
X265570Y-68819D01*
X268819D01*
Y-65570D01*
D02*
G37*
G36*
X-261181Y-57008D02*
X-272992D01*
Y-68819D01*
X-261181D01*
Y-57008D01*
D02*
G37*
G36*
X274429Y-71181D02*
X271181D01*
Y-74430D01*
X271334Y-74399D01*
X272167Y-74054D01*
X272916Y-73554D01*
X273553Y-72916D01*
X274054Y-72167D01*
X274399Y-71334D01*
X274429Y-71181D01*
D02*
G37*
G36*
X-201181D02*
X-204430D01*
X-204399Y-71334D01*
X-204054Y-72167D01*
X-203554Y-72916D01*
X-202916Y-73554D01*
X-202167Y-74054D01*
X-201334Y-74399D01*
X-201181Y-74430D01*
Y-71181D01*
D02*
G37*
G36*
X-195571D02*
X-198819D01*
Y-74430D01*
X-198666Y-74399D01*
X-197833Y-74054D01*
X-197084Y-73554D01*
X-196447Y-72916D01*
X-195946Y-72167D01*
X-195601Y-71334D01*
X-195571Y-71181D01*
D02*
G37*
G36*
X268819D02*
X265570D01*
X265601Y-71334D01*
X265946Y-72167D01*
X266446Y-72916D01*
X267084Y-73554D01*
X267833Y-74054D01*
X268666Y-74399D01*
X268819Y-74430D01*
Y-71181D01*
D02*
G37*
G36*
X-261181Y-71181D02*
X-272992D01*
Y-82992D01*
X-261181D01*
Y-71181D01*
D02*
G37*
G36*
X-245500Y-52800D02*
Y-54483D01*
X-248650Y-57008D01*
X-258819D01*
Y-70000D01*
Y-82992D01*
X-248650D01*
X-247008Y-82992D01*
X-245500Y-85517D01*
Y-86900D01*
X-214000Y-86900D01*
X-214000Y-52800D01*
X-245500Y-52800D01*
D02*
G37*
G36*
X-216181Y-104675D02*
X-217287D01*
X-219575Y-106963D01*
Y-108819D01*
X-216181D01*
Y-104675D01*
D02*
G37*
G36*
Y-111181D02*
X-219575D01*
Y-113037D01*
X-217287Y-115325D01*
X-216181D01*
Y-111181D01*
D02*
G37*
G36*
X-142713Y-164675D02*
X-147287D01*
X-147949Y-165337D01*
X-150000Y-166683D01*
X-152051Y-165337D01*
X-152713Y-164675D01*
X-157287D01*
X-157949Y-165337D01*
X-160000Y-166683D01*
X-162051Y-165337D01*
X-162713Y-164675D01*
X-167287D01*
X-167949Y-165337D01*
X-170000Y-166683D01*
X-172051Y-165337D01*
X-172713Y-164675D01*
X-177287D01*
X-177949Y-165337D01*
X-180000Y-166683D01*
X-182051Y-165337D01*
X-182713Y-164675D01*
X-187287D01*
X-187949Y-165337D01*
X-190000Y-166683D01*
X-192051Y-165337D01*
X-192713Y-164675D01*
X-197287D01*
X-197949Y-165337D01*
X-200000Y-166683D01*
X-202051Y-165337D01*
X-202713Y-164675D01*
X-207287D01*
X-207949Y-165337D01*
X-210000Y-166683D01*
X-212051Y-165337D01*
X-212713Y-164675D01*
X-213819D01*
Y-170000D01*
Y-175325D01*
X-212713D01*
X-212051Y-174663D01*
X-210000Y-173317D01*
X-207949Y-174663D01*
X-207287Y-175325D01*
X-202713D01*
X-202051Y-174663D01*
X-200000Y-173317D01*
X-197949Y-174663D01*
X-197287Y-175325D01*
X-192713D01*
X-192051Y-174663D01*
X-190000Y-173317D01*
X-187949Y-174663D01*
X-187287Y-175325D01*
X-182713D01*
X-182051Y-174663D01*
X-180000Y-173317D01*
X-177949Y-174663D01*
X-177287Y-175325D01*
X-172713D01*
X-172051Y-174663D01*
X-170000Y-173317D01*
X-167949Y-174663D01*
X-167287Y-175325D01*
X-162713D01*
X-162051Y-174663D01*
X-160000Y-173317D01*
X-157949Y-174663D01*
X-157287Y-175325D01*
X-152713D01*
X-152051Y-174663D01*
X-150000Y-173317D01*
X-147949Y-174663D01*
X-147287Y-175325D01*
X-142713D01*
X-140425Y-173037D01*
Y-166963D01*
X-142713Y-164675D01*
D02*
G37*
G36*
X-216181D02*
X-217287D01*
X-219575Y-166963D01*
Y-168819D01*
X-216181D01*
Y-164675D01*
D02*
G37*
G36*
Y-171181D02*
X-219575D01*
Y-173037D01*
X-217287Y-175325D01*
X-216181D01*
Y-171181D01*
D02*
G37*
%LPD*%
G36*
X225699Y-63811D02*
Y-68430D01*
X225601Y-68666D01*
X225425Y-69549D01*
Y-70451D01*
X225601Y-71334D01*
X225946Y-72167D01*
X226447Y-72916D01*
X227084Y-73554D01*
X227833Y-74054D01*
X228666Y-74399D01*
X229549Y-74575D01*
X230451D01*
X231334Y-74399D01*
X231876Y-74174D01*
X233340Y-74702D01*
X234654Y-75428D01*
X235026Y-75829D01*
Y-89220D01*
X223688Y-100558D01*
X223227Y-100534D01*
X220538Y-99454D01*
Y-93012D01*
X220432Y-91932D01*
X220117Y-90893D01*
X219605Y-89935D01*
X218916Y-89096D01*
X214304Y-84484D01*
X213464Y-83795D01*
X212507Y-83283D01*
X211468Y-82968D01*
X210387Y-82862D01*
X180694D01*
X175142Y-77309D01*
X175555Y-76134D01*
X176815Y-74528D01*
X177049Y-74575D01*
X177951D01*
X178834Y-74399D01*
X179667Y-74054D01*
X180416Y-73554D01*
X181053Y-72916D01*
X181554Y-72167D01*
X181899Y-71334D01*
X182075Y-70451D01*
Y-69549D01*
X181899Y-68666D01*
X181643Y-68049D01*
Y-64869D01*
X187902Y-58610D01*
X220498D01*
X225699Y-63811D01*
D02*
G37*
G36*
X143820Y-102001D02*
X142713Y-104675D01*
X140425Y-106963D01*
Y-108819D01*
X145000D01*
Y-110000D01*
X146181D01*
Y-115325D01*
X147287D01*
X147949Y-114663D01*
X150000Y-113317D01*
X152051Y-114663D01*
X152713Y-115325D01*
X157287D01*
X157949Y-114663D01*
X160000Y-113317D01*
X162051Y-114663D01*
X162713Y-115325D01*
X167287D01*
X167949Y-114663D01*
X170000Y-113317D01*
X172051Y-114663D01*
X172713Y-115325D01*
X177287D01*
X177949Y-114663D01*
X180000Y-113317D01*
X182051Y-114663D01*
X182713Y-115325D01*
X187287D01*
X187949Y-114663D01*
X190000Y-113317D01*
X192051Y-114663D01*
X192713Y-115325D01*
X193491Y-117205D01*
X182473Y-128223D01*
X181905Y-128963D01*
X181548Y-129825D01*
X181426Y-130750D01*
Y-164360D01*
X178382Y-165621D01*
X177949Y-165337D01*
X177287Y-164675D01*
X172713D01*
X172051Y-165337D01*
X170000Y-166683D01*
X167949Y-165337D01*
X167287Y-164675D01*
X162713D01*
X162051Y-165337D01*
X160000Y-166683D01*
X157949Y-165337D01*
X157287Y-164675D01*
X153795D01*
X147135Y-158015D01*
X146641Y-157637D01*
X146403Y-157538D01*
X146067Y-157399D01*
X145450Y-157317D01*
X92887D01*
X87383Y-151813D01*
Y-148655D01*
X90197Y-147062D01*
X91940Y-147365D01*
X92210Y-147635D01*
X93246Y-148234D01*
X93819Y-148387D01*
Y-144000D01*
X95000D01*
Y-142819D01*
X99387D01*
X99234Y-142246D01*
X98636Y-141210D01*
X98365Y-140940D01*
X98027Y-139000D01*
X98365Y-137060D01*
X98636Y-136790D01*
X99234Y-135754D01*
X99543Y-134598D01*
Y-133402D01*
X99234Y-132246D01*
X98636Y-131210D01*
X97790Y-130365D01*
X97383Y-130129D01*
Y-117500D01*
X97383Y-117500D01*
X97301Y-116883D01*
X97063Y-116309D01*
X96685Y-115815D01*
X87383Y-106513D01*
Y-95230D01*
X87949Y-94663D01*
X90000Y-93317D01*
X92051Y-94663D01*
X92713Y-95325D01*
X97287D01*
X97949Y-94663D01*
X100000Y-93317D01*
X102051Y-94663D01*
X102713Y-95325D01*
X107287D01*
X109575Y-93037D01*
Y-92780D01*
X134599D01*
X143820Y-102001D01*
D02*
G37*
G36*
X50425Y-88660D02*
Y-93037D01*
X52713Y-95325D01*
X57287D01*
X57949Y-94663D01*
X60000Y-93317D01*
X62051Y-94663D01*
X62713Y-95325D01*
X63819D01*
Y-90000D01*
X66181D01*
Y-95325D01*
X67287D01*
X67949Y-94663D01*
X70000Y-93317D01*
X72051Y-94663D01*
X72617Y-95230D01*
Y-107500D01*
X72699Y-108117D01*
X72838Y-108453D01*
X72937Y-108691D01*
X73315Y-109185D01*
X82617Y-118487D01*
Y-129345D01*
X79803Y-130938D01*
X78060Y-130635D01*
X77790Y-130365D01*
X76754Y-129766D01*
X75598Y-129457D01*
X74402D01*
X73246Y-129766D01*
X72210Y-130365D01*
X71940Y-130635D01*
X70000Y-130973D01*
X68060Y-130635D01*
X67790Y-130365D01*
X66754Y-129766D01*
X65598Y-129457D01*
X64402D01*
X63246Y-129766D01*
X62210Y-130365D01*
X61940Y-130635D01*
X60000Y-130973D01*
X58060Y-130635D01*
X57790Y-130365D01*
X56754Y-129766D01*
X55598Y-129457D01*
X54402D01*
X53246Y-129766D01*
X52210Y-130365D01*
X51940Y-130635D01*
X50000Y-130973D01*
X48060Y-130635D01*
X47790Y-130365D01*
X46754Y-129766D01*
X45598Y-129457D01*
X44402D01*
X43246Y-129766D01*
X42210Y-130365D01*
X41940Y-130635D01*
X40000Y-130973D01*
X38060Y-130635D01*
X37790Y-130365D01*
X36754Y-129766D01*
X35598Y-129457D01*
X34402D01*
X33246Y-129766D01*
X32210Y-130365D01*
X31940Y-130635D01*
X30000Y-130973D01*
X28060Y-130635D01*
X27790Y-130365D01*
X26754Y-129766D01*
X25598Y-129457D01*
X24402D01*
X23246Y-129766D01*
X22210Y-130365D01*
X21940Y-130635D01*
X20000Y-130973D01*
X18060Y-130635D01*
X17790Y-130365D01*
X16754Y-129766D01*
X15598Y-129457D01*
X14402D01*
X13246Y-129766D01*
X12210Y-130365D01*
X11940Y-130635D01*
X10000Y-130973D01*
X8060Y-130635D01*
X7790Y-130365D01*
X6754Y-129766D01*
X5598Y-129457D01*
X4402D01*
X3246Y-129766D01*
X2210Y-130365D01*
X1940Y-130635D01*
X0Y-130973D01*
X-1940Y-130635D01*
X-2210Y-130365D01*
X-3246Y-129766D01*
X-4402Y-129457D01*
X-5598D01*
X-6754Y-129766D01*
X-7790Y-130365D01*
X-8060Y-130635D01*
X-9803Y-130938D01*
X-12617Y-129345D01*
Y-120887D01*
X6685Y-101585D01*
X7063Y-101091D01*
X7162Y-100853D01*
X7301Y-100517D01*
X7383Y-99900D01*
Y-95230D01*
X7949Y-94663D01*
X10000Y-93317D01*
X12051Y-94663D01*
X12713Y-95325D01*
X17287D01*
X17949Y-94663D01*
X20000Y-93317D01*
X22051Y-94663D01*
X22713Y-95325D01*
X27287D01*
X29575Y-93037D01*
Y-92780D01*
X40700D01*
X41419Y-92685D01*
X42090Y-92407D01*
X42665Y-91966D01*
X47276Y-87356D01*
X50425Y-88660D01*
D02*
G37*
G36*
X-13819Y-95325D02*
X-12713D01*
X-12051Y-94663D01*
X-10000Y-93317D01*
X-7949Y-94663D01*
X-7383Y-95230D01*
Y-98913D01*
X-24468Y-115998D01*
X-27617Y-114694D01*
Y-99400D01*
X-27699Y-98783D01*
X-27838Y-98447D01*
X-27937Y-98209D01*
X-27940Y-98204D01*
X-27060Y-96262D01*
X-26252Y-95325D01*
X-22713D01*
X-22051Y-94663D01*
X-20000Y-93317D01*
X-17949Y-94663D01*
X-17287Y-95325D01*
X-16181D01*
Y-90000D01*
X-13819D01*
Y-95325D01*
D02*
G37*
G36*
X178400Y-93938D02*
X178400Y-93938D01*
X208093D01*
X209461Y-95307D01*
Y-103775D01*
X207287Y-104675D01*
X202713D01*
X202051Y-105337D01*
X200000Y-106683D01*
X197949Y-105337D01*
X197287Y-104675D01*
X196181D01*
Y-110000D01*
X193819D01*
Y-104675D01*
X192713D01*
X192051Y-105337D01*
X190000Y-106683D01*
X187949Y-105337D01*
X187287Y-104675D01*
X184356D01*
X176516Y-96835D01*
X176826Y-95678D01*
X178038Y-93903D01*
X178400Y-93938D01*
D02*
G37*
G36*
X71940Y-147365D02*
X72210Y-147635D01*
X73246Y-148234D01*
X74402Y-148543D01*
X75598D01*
X76754Y-148234D01*
X77790Y-147635D01*
X78060Y-147365D01*
X79803Y-147062D01*
X82617Y-148655D01*
Y-152800D01*
X82699Y-153417D01*
X82838Y-153753D01*
X82937Y-153991D01*
X83315Y-154485D01*
X90215Y-161385D01*
X90709Y-161763D01*
X91283Y-162001D01*
X91900Y-162083D01*
X141368D01*
X142156Y-165232D01*
X140425Y-166963D01*
Y-168819D01*
X145000D01*
Y-171181D01*
X140425D01*
Y-173037D01*
X141056Y-173668D01*
X139751Y-176817D01*
X79587D01*
X57483Y-154713D01*
Y-148877D01*
X60331Y-147085D01*
X61940Y-147365D01*
X62210Y-147635D01*
X63246Y-148234D01*
X64402Y-148543D01*
X65598D01*
X66754Y-148234D01*
X67790Y-147635D01*
X68060Y-147365D01*
X70000Y-147027D01*
X71940Y-147365D01*
D02*
G37*
%LPC*%
G36*
X218681Y-65570D02*
Y-68819D01*
X221930D01*
X221899Y-68666D01*
X221554Y-67833D01*
X221054Y-67084D01*
X220416Y-66447D01*
X219667Y-65946D01*
X218834Y-65601D01*
X218681Y-65570D01*
D02*
G37*
G36*
X216319Y-65570D02*
X216166Y-65601D01*
X215333Y-65946D01*
X214584Y-66447D01*
X213947Y-67084D01*
X213446Y-67833D01*
X213101Y-68666D01*
X213071Y-68819D01*
X216319D01*
Y-65570D01*
D02*
G37*
G36*
X221930Y-71181D02*
X218681D01*
Y-74430D01*
X218834Y-74399D01*
X219667Y-74054D01*
X220416Y-73554D01*
X221054Y-72916D01*
X221554Y-72167D01*
X221899Y-71334D01*
X221930Y-71181D01*
D02*
G37*
G36*
X216319D02*
X213071D01*
X213101Y-71334D01*
X213446Y-72167D01*
X213947Y-72916D01*
X214584Y-73554D01*
X215333Y-74054D01*
X216166Y-74399D01*
X216319Y-74430D01*
Y-71181D01*
D02*
G37*
G36*
X143819Y-111181D02*
X140425D01*
Y-113037D01*
X142713Y-115325D01*
X143819D01*
Y-111181D01*
D02*
G37*
G36*
X114862Y-132012D02*
X113485D01*
X112135Y-132280D01*
X110863Y-132807D01*
X109719Y-133572D01*
X108745Y-134545D01*
X107980Y-135690D01*
X107454Y-136962D01*
X107185Y-138312D01*
Y-139688D01*
X107454Y-141038D01*
X107980Y-142310D01*
X108745Y-143455D01*
X109719Y-144428D01*
X110863Y-145193D01*
X112135Y-145720D01*
X113485Y-145988D01*
X114862D01*
X116212Y-145720D01*
X117483Y-145193D01*
X118628Y-144428D01*
X119601Y-143455D01*
X120366Y-142310D01*
X120893Y-141038D01*
X121161Y-139688D01*
Y-138312D01*
X120893Y-136962D01*
X120366Y-135690D01*
X119601Y-134545D01*
X118628Y-133572D01*
X117483Y-132807D01*
X116212Y-132280D01*
X114862Y-132012D01*
D02*
G37*
G36*
X99387Y-145181D02*
X96181D01*
Y-148387D01*
X96754Y-148234D01*
X97790Y-147635D01*
X98636Y-146790D01*
X99234Y-145754D01*
X99387Y-145181D01*
D02*
G37*
%LPD*%
D10*
X-103300Y-128586D02*
X-100994Y-126279D01*
X-90748D01*
X-103300Y-178100D02*
Y-128586D01*
X-90748Y-126279D02*
X-85383Y-131645D01*
Y-133617D02*
X-85000Y-134000D01*
X-85383Y-133617D02*
Y-131645D01*
X-103300Y-178100D02*
X-86000Y-195400D01*
X204200D01*
X226100Y-173500D02*
Y-103200D01*
X230000Y-10000D02*
X238600Y-18600D01*
X226100Y-103200D02*
X238600Y-90700D01*
X204200Y-195400D02*
X226100Y-173500D01*
X238600Y-90700D02*
Y-18600D01*
X185000Y-130750D02*
X205000Y-110750D01*
X185000Y-170000D02*
Y-130750D01*
X167500Y-20000D02*
X177500Y-10000D01*
X130000Y-20000D02*
X167500D01*
X70000D02*
X100000D01*
X-70000D02*
X70000D01*
X-100000D02*
X-70000D01*
X100000D02*
X130000D01*
X-130000D02*
X-100000D01*
D12*
X177533Y-69967D02*
Y-63166D01*
X177500Y-70000D02*
X177533Y-69967D01*
Y-63166D02*
X186200Y-54500D01*
X222200D02*
X229809Y-62109D01*
Y-69809D02*
Y-62109D01*
Y-69809D02*
X230000Y-70000D01*
X186200Y-54500D02*
X222200D01*
D14*
X177289Y-236127D02*
G03*
X295276Y0I-177289J236127D01*
G01*
X-295276D02*
G03*
X-177289Y-236127I295276J0D01*
G01*
X-177196Y-236220D02*
X0Y-236221D01*
X177196Y-236221D01*
X-295276Y0D02*
X295276D01*
D27*
X70000Y-147027D02*
Y-142274D01*
X73274Y-139000D02*
X98027D01*
X70000Y-142274D02*
X73274Y-139000D01*
X-49707Y-100780D02*
X-40157Y-91231D01*
X-50607Y-101680D02*
X-49707Y-100780D01*
X-50607Y-101680D02*
X-49124Y-103163D01*
X-51652Y-105691D02*
X-49124Y-103163D01*
X-55090Y-102253D02*
X-51652Y-105691D01*
X-57617Y-104781D02*
X-55090Y-102253D01*
X-57617Y-104781D02*
X-53688Y-108710D01*
X-56216Y-111238D02*
X-53688Y-108710D01*
X-60145Y-107309D02*
X-56216Y-111238D01*
X-62673Y-109836D02*
X-60145Y-107309D01*
X-62673Y-109836D02*
X-60718Y-111791D01*
X-61275Y-112348D02*
X-60718Y-111791D01*
X-70020Y-121093D02*
X-61275Y-112348D01*
X-40157Y-91231D02*
Y-70157D01*
X-40000Y-70000D01*
X-70020Y-139020D02*
Y-121093D01*
X-75000Y-144000D02*
X-70020Y-139020D01*
X-32800Y-96600D02*
Y-79060D01*
X-23800Y-70060D01*
X-50000Y-91073D02*
Y-70000D01*
X-80020Y-121093D02*
X-50000Y-91073D01*
X-80020Y-139020D02*
Y-121093D01*
X-85000Y-144000D02*
X-80020Y-139020D01*
X-32800Y-96600D02*
X-30000Y-99400D01*
X-34800Y-152500D02*
X-30000Y-147700D01*
Y-99400D01*
X-92000Y-152500D02*
X-34800D01*
X85000Y-107500D02*
Y-90000D01*
X95000Y-134000D02*
Y-117500D01*
X85000Y-107500D02*
X95000Y-117500D01*
X75000Y-107500D02*
X85000Y-117500D01*
Y-134000D02*
Y-117500D01*
X75000Y-107500D02*
Y-90000D01*
X-15000Y-119900D02*
X5000Y-99900D01*
Y-90000D01*
X-15000Y-134000D02*
Y-119900D01*
X-25000Y-134000D02*
Y-119900D01*
X-5000Y-99900D02*
Y-90000D01*
X-25000Y-119900D02*
X-5000Y-99900D01*
X145450Y-159700D02*
X155000Y-169250D01*
X91900Y-159700D02*
X145450D01*
X85000Y-152800D02*
X91900Y-159700D01*
X85000Y-152800D02*
Y-144000D01*
X45700Y-189800D02*
X182600D01*
X195000Y-177400D01*
X10000Y-154100D02*
X45700Y-189800D01*
X-95000Y-149500D02*
Y-144000D01*
Y-149500D02*
X-92000Y-152500D01*
X10000Y-154100D02*
Y-139000D01*
X5000Y-134000D02*
X10000Y-139000D01*
X161250Y-184500D02*
X175000Y-170750D01*
X74100Y-184500D02*
X161250D01*
X45000Y-155400D02*
Y-144000D01*
Y-155400D02*
X74100Y-184500D01*
X175000Y-170750D02*
Y-170000D01*
X156550Y-179200D02*
X165000Y-170750D01*
X55100Y-155700D02*
X78600Y-179200D01*
X156550D01*
X55000Y-144000D02*
X55100Y-144100D01*
X165000Y-170750D02*
Y-170000D01*
X55100Y-155700D02*
Y-144100D01*
X195000Y-177400D02*
Y-170000D01*
D28*
X-70000Y-99700D02*
Y-90000D01*
X-73600Y-103300D02*
X-70000Y-99700D01*
X-117125Y-103300D02*
X-73600D01*
X-167200Y-81300D02*
X-67950D01*
X-60000Y-89250D01*
Y-90000D02*
Y-89250D01*
X-185000Y-110000D02*
Y-99100D01*
X-167200Y-81300D01*
X-164700Y-90000D02*
X-110000D01*
X-175000Y-100300D02*
X-164700Y-90000D01*
X-175000Y-110000D02*
Y-100300D01*
X-133475Y-119650D02*
X-117125Y-103300D01*
X-150650Y-119650D02*
X-133475D01*
X-154882Y-115418D02*
Y-110118D01*
Y-115418D02*
X-150650Y-119650D01*
X-155000Y-110000D02*
X-154882Y-110118D01*
X147750Y-72000D02*
X185000Y-109250D01*
X36600Y-82400D02*
X47000Y-72000D01*
X147750D01*
X54200Y-76500D02*
X142250D01*
X40700Y-90000D02*
X54200Y-76500D01*
X142250D02*
X175000Y-109250D01*
X56621Y-86180D02*
X61600Y-81200D01*
X136950D02*
X165000Y-109250D01*
X61600Y-81200D02*
X136950D01*
X55000Y-90000D02*
Y-88211D01*
X56621Y-86591D01*
Y-86180D01*
X-17400Y-82400D02*
X36600D01*
X-25000Y-90000D02*
X-17400Y-82400D01*
X-25000Y-90000D02*
Y-90000D01*
X185000Y-110000D02*
Y-109250D01*
X25000Y-90000D02*
X40700D01*
X135750D02*
X155000Y-109250D01*
X175000Y-110000D02*
Y-109250D01*
X105000Y-90000D02*
X135750D01*
X165000Y-110000D02*
Y-109250D01*
X155000Y-110000D02*
Y-109250D01*
D29*
X-148500Y-58500D02*
X148500D01*
X178400Y-88400D01*
X-160000Y-70000D02*
X-148500Y-58500D01*
X178400Y-88400D02*
X210387D01*
X215000Y-93012D01*
Y-110000D02*
Y-93012D01*
D30*
X-260000Y-70000D02*
X-259900D01*
D31*
X-80000Y-90000D02*
D03*
X-90000D02*
D03*
X-5000Y-30800D02*
D03*
X-15000D02*
D03*
X145000Y-110000D02*
D03*
X155000D02*
D03*
X165000D02*
D03*
X175000D02*
D03*
X185000D02*
D03*
X195000D02*
D03*
X205000D02*
D03*
X215000D02*
D03*
X145000Y-170000D02*
D03*
X155000D02*
D03*
X165000D02*
D03*
X175000D02*
D03*
X185000D02*
D03*
X195000D02*
D03*
X205000D02*
D03*
X215000D02*
D03*
X-215000Y-110000D02*
D03*
X-205000D02*
D03*
X-195000D02*
D03*
X-185000D02*
D03*
X-175000D02*
D03*
X-165000D02*
D03*
X-155000D02*
D03*
X-145000D02*
D03*
X-215000Y-170000D02*
D03*
X-205000D02*
D03*
X-195000D02*
D03*
X-185000D02*
D03*
X-175000D02*
D03*
X-165000D02*
D03*
X-155000D02*
D03*
X-145000D02*
D03*
X35000Y-30800D02*
D03*
X25000D02*
D03*
X15000D02*
D03*
X5000D02*
D03*
X-25000D02*
D03*
X-35000D02*
D03*
X-110000Y-90000D02*
D03*
X-100000D02*
D03*
X-70000D02*
D03*
X-60000D02*
D03*
X-25000D02*
D03*
X-15000D02*
D03*
X-5000D02*
D03*
X5000D02*
D03*
X15000D02*
D03*
X25000D02*
D03*
X55000D02*
D03*
X65000D02*
D03*
X75000D02*
D03*
X85000D02*
D03*
X95000D02*
D03*
X105000D02*
D03*
D32*
X270000Y-70000D02*
D03*
Y-10000D02*
D03*
X230000Y-70000D02*
D03*
Y-10000D02*
D03*
X-200000D02*
D03*
Y-70000D02*
D03*
X-160000Y-10000D02*
D03*
Y-70000D02*
D03*
X217500D02*
D03*
Y-10000D02*
D03*
X177500Y-70000D02*
D03*
Y-10000D02*
D03*
D33*
X114173Y-139000D02*
D03*
Y-229551D02*
D03*
X-114173Y-139000D02*
D03*
Y-229551D02*
D03*
D34*
X95000Y-134000D02*
D03*
Y-144000D02*
D03*
X85000Y-134000D02*
D03*
Y-144000D02*
D03*
X75000Y-134000D02*
D03*
Y-144000D02*
D03*
X65000Y-134000D02*
D03*
Y-144000D02*
D03*
X55000Y-134000D02*
D03*
Y-144000D02*
D03*
X45000Y-134000D02*
D03*
Y-144000D02*
D03*
X35000Y-134000D02*
D03*
Y-144000D02*
D03*
X25000Y-134000D02*
D03*
Y-144000D02*
D03*
X15000Y-134000D02*
D03*
Y-144000D02*
D03*
X5000Y-134000D02*
D03*
Y-144000D02*
D03*
X-5000Y-134000D02*
D03*
Y-144000D02*
D03*
X-15000Y-134000D02*
D03*
Y-144000D02*
D03*
X-25000Y-134000D02*
D03*
Y-144000D02*
D03*
X-35000Y-134000D02*
D03*
Y-144000D02*
D03*
X-45000Y-134000D02*
D03*
Y-144000D02*
D03*
X-55000Y-134000D02*
D03*
Y-144000D02*
D03*
X-65000Y-134000D02*
D03*
Y-144000D02*
D03*
X-75000Y-134000D02*
D03*
Y-144000D02*
D03*
X-85000Y-134000D02*
D03*
Y-144000D02*
D03*
X-95000Y-134000D02*
D03*
D35*
Y-144000D02*
D03*
D36*
X-130000Y-40000D02*
D03*
Y-30000D02*
D03*
Y-20000D02*
D03*
X130000Y-40000D02*
D03*
Y-30000D02*
D03*
Y-20000D02*
D03*
X-70000Y-40000D02*
D03*
Y-30000D02*
D03*
Y-20000D02*
D03*
X-100000Y-40000D02*
D03*
Y-30000D02*
D03*
Y-20000D02*
D03*
X100000Y-40000D02*
D03*
Y-30000D02*
D03*
Y-20000D02*
D03*
X70000Y-40000D02*
D03*
Y-30000D02*
D03*
Y-20000D02*
D03*
D37*
X-235550Y-23950D02*
D03*
D38*
X-255550D02*
D03*
D39*
X-231654Y-70000D02*
D03*
D40*
X-260000D02*
D03*
D41*
X-23800D02*
D03*
X-40000D02*
D03*
X-50000D02*
D03*
M02*
